<?xml version="1.0" encoding="utf-8"?>
<!-- Generator: Adobe Illustrator 26.1.0, SVG Export Plug-In . SVG Version: 6.00 Build 0)  -->
<svg version="1.1" id="Layer_1" xmlns="http://www.w3.org/2000/svg" xmlns:xlink="http://www.w3.org/1999/xlink" x="0px" y="0px"
	 viewBox="0 0 651.1 608.3" style="enable-background:new 0 0 651.1 608.3;" xml:space="preserve">
<style type="text/css">
	.st0{clip-path:url(#SVGID_00000079446608940863229650000007234488638094265517_);}
	.st1{fill:#ffffff;}
	.st2{opacity:0.33;fill:#ffffff;enable-background:new    ;}
	.st3{opacity:0.7;}
</style>
<g id="a">
</g>
<g id="b">
	<g id="c">
		<g>
			<defs>
				<polygon id="SVGID_1_" points="240.3,19.7 240.5,19.7 240.3,20 				"/>
			</defs>
			<defs>
				<polygon id="SVGID_00000128482670912431171380000010544141320297753740_" points="239.8,19.2 239.6,19.2 239.8,19 				"/>
			</defs>
			<clipPath id="SVGID_00000110467773809480566860000000458490299431278768_">
				<use xlink:href="#SVGID_1_"  style="overflow:visible;"/>
			</clipPath>
			
				<clipPath id="SVGID_00000010990731826523954450000013177272972476550573_" style="clip-path:url(#SVGID_00000110467773809480566860000000458490299431278768_);">
				<use xlink:href="#SVGID_00000128482670912431171380000010544141320297753740_"  style="overflow:visible;"/>
			</clipPath>
			<g style="clip-path:url(#SVGID_00000010990731826523954450000013177272972476550573_);enable-background:new    ;">
			</g>
		</g>
		<path class="st1" d="M273.1,332.5C198.2,330.7,138,269.5,138,194.1S199.8,55.9,276.1,55.7V0H0v388.2h276.1v-53.4
			C275.1,334.1,274.1,333.3,273.1,332.5L273.1,332.5z"/>
		<polygon class="st2" points="193.1,388.2 225.5,332.2 139.7,332.2 53.9,332.2 86.2,388.2 		"/>
		<polygon class="st1" points="139.7,608.3 225.5,608.3 182.6,534 139.7,459.6 96.8,534 53.9,608.3 		"/>
		<polygon class="st1" points="414.1,608.3 542.6,608.3 478.4,497 414.1,385.7 349.9,497 285.6,608.3 		"/>
		<polyline class="st1" points="133.6,470.2 96.8,406.5 86.2,388.2 193.1,388.2 182.6,406.5 145.8,470.2 133.6,470.2 139.7,480.8 
			145.8,470.2 		"/>
		<g class="st3">
			<path class="st1" d="M403.1,8.5h10.5v2.8h-7.2v3.5h5.3v2.6h-5.3v3.5h7.2v2.8h-10.5V8.5z"/>
			<path class="st1" d="M423.9,16l-5.5-7.5h3.8l3.6,4.9l3.6-4.9h3.8l-5.5,7.5l5.6,7.6h-3.8l-3.7-5l-3.7,5h-3.8L423.9,16L423.9,16z"
				/>
			<path class="st1" d="M440.6,23c-1.2-0.6-2.2-1.6-2.9-2.8c-0.7-1.2-1-2.6-1-4.2s0.3-3,1-4.2s1.6-2.1,2.9-2.8c1.2-0.6,2.7-1,4.3-1
				c2.1,0,3.9,0.5,5.2,1.4v3.1c-0.6-0.5-1.4-0.9-2.2-1.2s-1.8-0.4-2.8-0.4c-1.6,0-2.8,0.4-3.7,1.3c-0.9,0.9-1.4,2.1-1.4,3.6
				s0.5,2.7,1.4,3.6c0.9,0.9,2.2,1.3,3.7,1.3c1.1,0,2-0.1,2.8-0.4c0.8-0.2,1.6-0.7,2.3-1.2v3.1c-1.3,1-3.1,1.5-5.4,1.5
				C443.3,24,441.9,23.7,440.6,23L440.6,23z"/>
			<path class="st1" d="M455.9,8.5h3.3v12.4h6.9v2.8h-10.2V8.5z"/>
			<path class="st1" d="M472.1,22.3c-1.1-1.2-1.7-2.7-1.7-4.7V8.5h3.3v9.1c0,1.1,0.3,1.9,0.9,2.5c0.6,0.6,1.4,0.9,2.5,0.9
				s1.9-0.3,2.5-0.9s0.9-1.4,0.9-2.5V8.5h3.3v9.1c0,2-0.6,3.5-1.7,4.7s-2.8,1.8-5,1.8S473.2,23.4,472.1,22.3L472.1,22.3z"/>
			<path class="st1" d="M491.4,23.8c-0.9-0.2-1.7-0.4-2.2-0.7v-2.9c0.8,0.4,1.6,0.7,2.4,0.9c0.8,0.2,1.6,0.3,2.4,0.3
				c0.8,0,1.5-0.1,1.9-0.4s0.6-0.7,0.6-1.2c0-0.4-0.1-0.7-0.3-1s-0.5-0.5-0.9-0.7s-1-0.5-1.9-0.8c-1.4-0.6-2.5-1.2-3.1-1.9
				s-1-1.6-1-2.7c0-0.9,0.2-1.6,0.7-2.3c0.5-0.7,1.1-1.2,2-1.5c0.8-0.4,1.8-0.5,2.9-0.5c0.9,0,1.7,0.1,2.4,0.2
				c0.7,0.1,1.4,0.4,2,0.7v2.8c-1.3-0.6-2.5-1-3.8-1c-0.8,0-1.5,0.1-1.9,0.4s-0.7,0.7-0.7,1.2c0,0.4,0.1,0.7,0.3,0.9
				c0.2,0.2,0.5,0.5,0.9,0.6s1,0.5,1.9,0.8c1,0.4,1.8,0.9,2.4,1.2c0.6,0.4,1,0.9,1.3,1.4c0.3,0.5,0.4,1.2,0.4,2
				c0,1.4-0.5,2.5-1.5,3.2c-1,0.8-2.5,1.1-4.4,1.1C493.2,24,492.3,23.9,491.4,23.8L491.4,23.8z"/>
			<path class="st1" d="M505.6,8.5h3.3v15.2h-3.3V8.5z"/>
			<path class="st1" d="M514.5,8.5h3.5l4.2,10.8l4.2-10.8h3.5l-6.1,15.2h-3.2L514.5,8.5z"/>
			<path class="st1" d="M535.3,8.5h10.5v2.8h-7.2v3.5h5.3v2.6h-5.3v3.5h7.2v2.8h-10.5V8.5z"/>
			<path class="st1" d="M476.6,49.1c-1.2-0.6-2.2-1.6-2.9-2.8c-0.7-1.2-1-2.6-1-4.2s0.3-3,1-4.2c0.7-1.2,1.6-2.1,2.9-2.8
				c1.2-0.6,2.7-1,4.3-1c2.1,0,3.9,0.5,5.2,1.4v3.1c-0.6-0.5-1.4-0.9-2.2-1.2s-1.8-0.4-2.8-0.4c-1.6,0-2.8,0.4-3.7,1.3
				c-0.9,0.9-1.4,2.1-1.4,3.6s0.5,2.7,1.4,3.6c0.9,0.9,2.2,1.3,3.7,1.3c1.1,0,2-0.1,2.8-0.4c0.8-0.2,1.6-0.7,2.3-1.2v3.1
				c-1.3,1-3.1,1.5-5.4,1.5C479.3,50,477.8,49.7,476.6,49.1L476.6,49.1z"/>
			<path class="st1" d="M494.9,49c-1.2-0.7-2.2-1.6-2.9-2.8c-0.7-1.2-1.1-2.6-1.1-4.1s0.4-2.9,1.1-4.1c0.7-1.2,1.7-2.1,2.9-2.8
				c1.2-0.7,2.6-1,4.1-1s2.9,0.3,4.1,1c1.2,0.7,2.2,1.6,2.9,2.8s1.1,2.6,1.1,4.1s-0.4,2.9-1.1,4.1c-0.7,1.2-1.7,2.1-2.9,2.8
				c-1.2,0.7-2.6,1-4.1,1S496.1,49.7,494.9,49z M501.4,46.4c0.7-0.4,1.3-1,1.7-1.7s0.6-1.6,0.6-2.6s-0.2-1.8-0.6-2.5s-1-1.3-1.7-1.7
				s-1.5-0.6-2.4-0.6s-1.7,0.2-2.4,0.6s-1.3,1-1.7,1.7c-0.4,0.7-0.6,1.6-0.6,2.5s0.2,1.8,0.6,2.6s1,1.3,1.7,1.7s1.5,0.6,2.4,0.6
				S500.6,46.8,501.4,46.4z"/>
			<path class="st1" d="M513.2,34.2h3.2l-1.8,4.3h-2.8L513.2,34.2z"/>
			<path class="st1" d="M527,42.1l-5.5-7.5h3.8l3.6,5l3.6-5h3.8l-5.5,7.5l5.6,7.6h-3.8l-3.7-5l-3.7,5h-3.8L527,42.1L527,42.1z"/>
			<path class="st1" d="M541.9,34.5h3.3v15.2h-3.3C541.9,49.7,541.9,34.6,541.9,34.5z"/>
		</g>
		<g>
			<path class="st1" d="M403.1,8.5h10.5v2.8h-7.2v3.5h5.3v2.6h-5.3v3.5h7.2v2.8h-10.5V8.5z"/>
			<path class="st1" d="M423.9,16l-5.5-7.5h3.8l3.6,4.9l3.6-4.9h3.8l-5.5,7.5l5.6,7.6h-3.8l-3.7-5l-3.7,5h-3.8L423.9,16L423.9,16z"
				/>
			<path class="st1" d="M440.6,23c-1.2-0.6-2.2-1.6-2.9-2.8c-0.7-1.2-1-2.6-1-4.2s0.3-3,1-4.2s1.6-2.1,2.9-2.8c1.2-0.6,2.7-1,4.3-1
				c2.1,0,3.9,0.5,5.2,1.4v3.1c-0.6-0.5-1.4-0.9-2.2-1.2s-1.8-0.4-2.8-0.4c-1.6,0-2.8,0.4-3.7,1.3c-0.9,0.9-1.4,2.1-1.4,3.6
				s0.5,2.7,1.4,3.6c0.9,0.9,2.2,1.3,3.7,1.3c1.1,0,2-0.1,2.8-0.4c0.8-0.2,1.6-0.7,2.3-1.2v3.1c-1.3,1-3.1,1.5-5.4,1.5
				C443.3,24,441.9,23.7,440.6,23L440.6,23z"/>
			<path class="st1" d="M455.9,8.5h3.3v12.4h6.9v2.8h-10.2V8.5z"/>
			<path class="st1" d="M472.1,22.3c-1.1-1.2-1.7-2.7-1.7-4.7V8.5h3.3v9.1c0,1.1,0.3,1.9,0.9,2.5c0.6,0.6,1.4,0.9,2.5,0.9
				s1.9-0.3,2.5-0.9s0.9-1.4,0.9-2.5V8.5h3.3v9.1c0,2-0.6,3.5-1.7,4.7s-2.8,1.8-5,1.8S473.2,23.4,472.1,22.3L472.1,22.3z"/>
			<path class="st1" d="M491.4,23.8c-0.9-0.2-1.7-0.4-2.2-0.7v-2.9c0.8,0.4,1.6,0.7,2.4,0.9c0.8,0.2,1.6,0.3,2.4,0.3
				c0.8,0,1.5-0.1,1.9-0.4s0.6-0.7,0.6-1.2c0-0.4-0.1-0.7-0.3-1s-0.5-0.5-0.9-0.7s-1-0.5-1.9-0.8c-1.4-0.6-2.5-1.2-3.1-1.9
				s-1-1.6-1-2.7c0-0.9,0.2-1.6,0.7-2.3c0.5-0.7,1.1-1.2,2-1.5c0.8-0.4,1.8-0.5,2.9-0.5c0.9,0,1.7,0.1,2.4,0.2
				c0.7,0.1,1.4,0.4,2,0.7v2.8c-1.3-0.6-2.5-1-3.8-1c-0.8,0-1.5,0.1-1.9,0.4s-0.7,0.7-0.7,1.2c0,0.4,0.1,0.7,0.3,0.9
				c0.2,0.2,0.5,0.5,0.9,0.6s1,0.5,1.9,0.8c1,0.4,1.8,0.9,2.4,1.2c0.6,0.4,1,0.9,1.3,1.4c0.3,0.5,0.4,1.2,0.4,2
				c0,1.4-0.5,2.5-1.5,3.2c-1,0.8-2.5,1.1-4.4,1.1C493.2,24,492.3,23.9,491.4,23.8L491.4,23.8z"/>
			<path class="st1" d="M505.6,8.5h3.3v15.2h-3.3V8.5z"/>
			<path class="st1" d="M514.5,8.5h3.5l4.2,10.8l4.2-10.8h3.5l-6.1,15.2h-3.2L514.5,8.5z"/>
			<path class="st1" d="M535.3,8.5h10.5v2.8h-7.2v3.5h5.3v2.6h-5.3v3.5h7.2v2.8h-10.5V8.5z"/>
			<path class="st1" d="M476.6,49.1c-1.2-0.6-2.2-1.6-2.9-2.8c-0.7-1.2-1-2.6-1-4.2s0.3-3,1-4.2c0.7-1.2,1.6-2.1,2.9-2.8
				c1.2-0.6,2.7-1,4.3-1c2.1,0,3.9,0.5,5.2,1.4v3.1c-0.6-0.5-1.4-0.9-2.2-1.2s-1.8-0.4-2.8-0.4c-1.6,0-2.8,0.4-3.7,1.3
				c-0.9,0.9-1.4,2.1-1.4,3.6s0.5,2.7,1.4,3.6c0.9,0.9,2.2,1.3,3.7,1.3c1.1,0,2-0.1,2.8-0.4c0.8-0.2,1.6-0.7,2.3-1.2v3.1
				c-1.3,1-3.1,1.5-5.4,1.5C479.3,50,477.8,49.7,476.6,49.1L476.6,49.1z"/>
			<path class="st1" d="M494.9,49c-1.2-0.7-2.2-1.6-2.9-2.8c-0.7-1.2-1.1-2.6-1.1-4.1s0.4-2.9,1.1-4.1c0.7-1.2,1.7-2.1,2.9-2.8
				c1.2-0.7,2.6-1,4.1-1s2.9,0.3,4.1,1c1.2,0.7,2.2,1.6,2.9,2.8s1.1,2.6,1.1,4.1s-0.4,2.9-1.1,4.1c-0.7,1.2-1.7,2.1-2.9,2.8
				c-1.2,0.7-2.6,1-4.1,1S496.1,49.7,494.9,49z M501.4,46.4c0.7-0.4,1.3-1,1.7-1.7s0.6-1.6,0.6-2.6s-0.2-1.8-0.6-2.5s-1-1.3-1.7-1.7
				s-1.5-0.6-2.4-0.6s-1.7,0.2-2.4,0.6s-1.3,1-1.7,1.7c-0.4,0.7-0.6,1.6-0.6,2.5s0.2,1.8,0.6,2.6s1,1.3,1.7,1.7s1.5,0.6,2.4,0.6
				S500.6,46.8,501.4,46.4z"/>
			<path class="st1" d="M513.2,34.2h3.2l-1.8,4.3h-2.8L513.2,34.2z"/>
			<path class="st1" d="M527,42.1l-5.5-7.5h3.8l3.6,5l3.6-5h3.8l-5.5,7.5l5.6,7.6h-3.8l-3.7-5l-3.7,5h-3.8L527,42.1L527,42.1z"/>
			<path class="st1" d="M541.9,34.5h3.3v15.2h-3.3C541.9,49.7,541.9,34.6,541.9,34.5z"/>
		</g>
		<circle class="st1" cx="419.9" cy="195.3" r="131.5"/>
		<path class="st1" d="M513.9,102.4c73.6-8.5,128.2,1.3,136.2,28.6c11.5,39.4-78.6,100.4-201.3,136.3s-231.5,32.9-243-6.5
			c-7.4-25.2,26.9-59.3,84.7-90l-0.7,1c-38.9,22.1-61.2,45-56.3,61.9c8.7,29.9,99.2,29.8,202.1-0.3s179.2-78.6,170.4-108.5
			c-5.3-18.2-40.8-25.2-90.8-21.3"/>
	</g>
</g>
</svg>
