<svg width="712" height="469" viewBox="0 0 712 469" fill="none" xmlns="http://www.w3.org/2000/svg">
<g opacity="0.1">
<path d="M78.758 106.603C70.6791 106.953 62.9514 107.302 54.8725 107.652C42.9297 108.001 12.7216 110.797 3.23763 101.711C-7.65136 90.8772 11.6678 76.1994 20.8005 72.3552C66.464 53.4837 120.206 66.0647 165.87 47.5427C191.512 37.0586 212.236 17.8376 237.878 7.70294C257.899 -0.33491 280.38 -2.08227 301.807 2.46086C327.8 8.05241 351.685 22.7302 378.029 24.1281C411.399 25.526 444.417 4.20822 477.084 11.8966C497.106 16.4397 513.615 31.467 533.285 37.0586C547.336 41.2522 563.142 40.5533 575.787 47.5427C590.54 55.5805 598.619 72.3552 611.967 82.1404C632.691 97.5171 661.846 94.3719 685.38 105.555C690.649 108.001 696.269 112.544 696.269 118.485C695.917 125.824 687.136 129.669 683.272 135.959C677.301 145.744 684.326 157.976 692.405 166.014C700.484 174.051 710.319 182.089 711.022 193.622C711.724 207.95 697.323 218.434 683.623 223.327C655.172 233.462 623.207 233.112 595.107 221.929C568.762 211.445 546.633 192.573 520.289 181.39C494.296 170.207 464.79 167.761 436.689 170.906C418.073 173.003 399.456 177.896 380.84 175.1C350.28 170.557 327.097 146.793 300.753 131.066C264.924 109.749 222.071 102.759 180.271 102.06C146.551 101.711 112.83 104.856 78.758 106.603Z" fill="url(#paint0_radial_556_3508)"/>
<path d="M23.9619 89.8291C14.8292 99.6143 22.2056 105.555 29.582 112.545C38.0122 120.233 42.5786 131.416 52.0625 138.406C66.1128 148.54 85.432 144.347 102.292 141.551C179.92 128.62 259.304 150.637 332.717 178.595C409.291 207.951 483.407 243.946 556.82 280.291C558.927 281.34 561.035 283.087 562.088 285.533C564.196 290.426 561.035 293.222 558.225 295.668C501.672 342.148 433.879 382.337 360.467 379.891C349.578 379.541 337.986 378.143 328.151 384.084C322.531 387.579 318.667 393.171 319.018 399.81C319.721 412.741 334.825 417.634 347.119 418.682C396.997 422.876 446.525 407.149 491.134 384.783C535.744 362.068 576.139 332.712 618.992 306.851C648.498 289.028 679.76 272.603 696.269 240.102C704.699 223.327 706.455 203.407 698.376 186.283C688.892 166.014 670.627 157.277 650.957 150.987C643.58 148.54 644.634 138.056 652.01 137.008C652.713 137.008 653.064 136.658 653.767 136.658C667.817 134.562 668.871 114.642 655.172 111.496H654.82C642.878 108.351 629.881 108.701 617.938 106.254C585.623 99.6143 559.63 73.7534 527.665 65.3661C501.321 58.3767 473.22 63.6188 446.174 59.0756C419.127 54.882 392.782 40.9031 365.384 44.3978C348.524 46.4947 332.717 55.2314 315.506 56.2799C293.376 57.3283 272.652 44.3978 250.523 42.6505C213.992 39.8547 182.028 66.4145 146.2 74.8019C110.723 83.1892 73.138 73.0545 37.661 82.1408C33.0946 83.1892 28.5283 85.6355 25.3669 88.7807C25.0157 88.7807 24.3132 89.1302 23.9619 89.8291Z" fill="url(#paint1_radial_556_3508)"/>
<path d="M582.11 209.349C574.382 204.457 566.655 199.914 558.927 195.72C532.934 181.042 505.536 168.811 476.382 162.52C436.338 153.434 395.241 151.687 354.144 152.735C318.667 153.434 282.839 154.133 249.469 166.015C241.39 168.811 233.311 172.655 227.691 179.295C206.265 205.855 255.792 221.581 273.706 226.474C346.768 247.092 424.395 247.442 497.457 267.711C517.127 273.303 538.203 281.341 549.443 298.465C555.063 307.202 557.873 317.336 559.278 327.471C560.683 337.256 564.898 348.439 559.63 357.875C556.468 363.117 551.551 367.311 546.633 370.456C529.421 381.639 507.292 387.929 493.944 404.704C492.891 405.753 492.188 407.5 492.891 408.898C493.593 409.946 494.647 409.946 495.701 410.296C503.077 410.995 510.805 409.946 518.181 409.946C553.307 411.344 584.569 387.231 605.996 361.37C620.046 344.595 629.53 322.928 627.071 301.261C625.315 285.534 617.587 270.856 608.103 257.926C621.451 266.663 631.989 279.593 639.365 293.572C643.229 300.911 646.039 308.25 647.795 316.288C648.498 319.084 653.064 339.003 650.605 340.401C659.387 335.509 663.251 324.675 663.953 314.89C665.358 288.68 649.903 264.915 631.637 246.743C616.885 232.764 599.673 220.533 582.11 209.349Z" fill="url(#paint2_radial_556_3508)"/>
<path d="M402.296 447.218C403.615 449.161 407.28 450.092 412.761 448.672C456.701 438.001 499.121 421.185 537.933 398.495C548.136 392.582 558.595 385.929 565.161 376.613C573.844 364.553 575.968 348.415 572.656 334.044C569.692 319.627 561.596 306.585 552.289 295.111C527.932 266.216 491.922 248.359 454.542 241.607C451.271 240.977 447.999 240.346 445.241 238.239C442.484 236.132 441.587 232.019 443.751 229.622C445.31 228.009 448.096 227.645 450.579 227.673C450.928 227.628 450.928 227.628 451.276 227.582C458.379 227.713 460.234 217.601 453.554 215.301C438.709 210.19 423.653 206.163 408.084 203.613C391.378 200.507 374.204 199.224 357.304 200.02C343.538 200.407 339.948 218.852 352.4 224.628L352.794 224.929C314.238 225.38 274.244 225.666 238.652 240.534C236.305 241.545 233.308 242.994 232.977 245.857C232.389 249.458 236.585 251.73 239.948 253.053C277.454 266.133 318.036 262.246 357.608 264.129C421.714 266.688 486.391 284.328 537.817 322.378C542.544 325.99 547.06 330.688 549.881 335.959C559.405 354.454 546.936 367.361 534.267 376.064C496.003 402.911 447.474 411.009 407.937 436.26C402.033 439.851 400.189 444.673 402.296 447.218Z" fill="url(#paint3_linear_556_3508)"/>
</g>
<defs>
<radialGradient id="paint0_radial_556_3508" cx="0" cy="0" r="1" gradientUnits="userSpaceOnUse" gradientTransform="translate(331.432 102.507) rotate(127.59) scale(240.312 549.288)">
<stop stop-color="#197F95" stop-opacity="0.65"/>
<stop offset="0.458333" stop-color="#7F83E6" stop-opacity="0.72"/>
<stop offset="1" stop-color="#1A11B6" stop-opacity="0.03"/>
</radialGradient>
<radialGradient id="paint1_radial_556_3508" cx="0" cy="0" r="1" gradientUnits="userSpaceOnUse" gradientTransform="translate(269.835 11.2713) rotate(99.3091) scale(394.842 606.083)">
<stop stop-color="#E6C4D1"/>
<stop offset="0.541667" stop-color="#CCE1E1" stop-opacity="0.8"/>
<stop offset="1" stop-color="#C6D4EB" stop-opacity="0"/>
</radialGradient>
<radialGradient id="paint2_radial_556_3508" cx="0" cy="0" r="1" gradientUnits="userSpaceOnUse" gradientTransform="translate(428.263 267.165) rotate(113.137) scale(231.713 395.915)">
<stop stop-color="#197F95" stop-opacity="0.65"/>
<stop offset="0.458333" stop-color="#7F83E6" stop-opacity="0.72"/>
<stop offset="1" stop-color="#1A11B6" stop-opacity="0.03"/>
</radialGradient>
<linearGradient id="paint3_linear_556_3508" x1="395.374" y1="232.416" x2="546.864" y2="397.392" gradientUnits="userSpaceOnUse">
<stop stop-color="#ECFFFA"/>
<stop offset="1" stop-color="white" stop-opacity="0.3"/>
<stop offset="1" stop-color="white" stop-opacity="0.42"/>
</linearGradient>
</defs>
</svg>
