<?xml version="1.0" encoding="UTF-8"?><svg xmlns="http://www.w3.org/2000/svg" viewBox="0 0 2644.57 792.95"><defs><style>.d{fill:#fff;}</style></defs><g id="a"/><g id="b"><g id="c"><g><path class="d" d="M768.34,315.09c-11.89-20.64-23.53-39.95-35.13-58.05-4.6-21-10.03-42.9-16.23-65.96-15.51-57.67-42.53-90.59-104.69-111.14-25.6-8.46-51.55-15.4-77.4-20.87-17.78-11.37-36.76-22.78-57.03-34.46-51.74-29.81-94.13-33.98-152.61-4.56-23.73,11.94-46.68,25.15-68.53,39.32-25.41,5.43-50.92,12.26-76.06,20.57-62.15,20.55-89.18,53.47-104.69,111.14-6.07,22.58-11.41,44.05-15.95,64.65-14.42,22.16-27.87,45.44-39.98,69.52-29.42,58.48-25.25,100.87,4.56,152.61,11.92,20.69,23.56,40.02,35.16,58.12,4.59,21,10.01,42.88,16.2,65.89,15.51,57.67,42.53,90.59,104.69,111.14,25.58,8.46,51.55,15.39,77.41,20.86,17.79,11.38,36.76,22.8,57.01,34.47,51.74,29.81,94.13,33.98,152.61,4.56,23.7-11.92,46.63-25.13,68.48-39.3,25.42-5.43,50.94-12.27,76.11-20.59,62.15-20.55,89.18-53.47,104.69-111.14,6.06-22.53,11.39-43.99,15.92-64.59,14.43-22.17,27.88-45.47,40.01-69.58,29.42-58.48,25.25-100.87-4.56-152.61Zm-371.86,421.43c-188.06,0-340.52-152.46-340.52-340.52S208.41,55.48,396.48,55.48s340.52,152.46,340.52,340.52-152.46,340.52-340.52,340.52Z"/><g><rect class="d" x="309.69" y="178.8" width="8.04" height="430.76"/><rect class="d" x="393.27" y="162.72" width="8.04" height="466.12"/><rect class="d" x="476.83" y="178.8" width="8.07" height="430.76"/><rect class="d" x="560.45" y="207.73" width="8" height="372.91"/><rect class="d" x="226.09" y="207.73" width="8.08" height="372.91"/><rect class="d" x="211.65" y="225.41" width="372.91" height="8.01"/><rect class="d" x="182.7" y="308.99" width="432.4" height="8.04"/><rect class="d" x="158.58" y="392.58" width="475.79" height="8.01"/><rect class="d" x="182.7" y="476.14" width="432.4" height="8.01"/><rect class="d" x="211.65" y="559.73" width="372.91" height="8.03"/><rect class="d" x="379.67" y="205.23" width="34.94" height="379.71"/><rect class="d" x="203.64" y="377.59" width="384.54" height="34.94"/><path class="d" d="M203.32,323.95v34.93s270.06,22.11,335.04-133.89l-31.23-15.6s-37.79,133.42-303.81,114.56"/></g><g><circle class="d" cx="396.62" cy="81.09" r="8.19" transform="translate(169.93 416.49) rotate(-67.5)"/><circle class="d" cx="365.22" cy="82.64" r="8.19"/><circle class="d" cx="334.13" cy="87.31" r="8.19"/><circle class="d" cx="303.66" cy="95.06" r="8.19"/><circle class="d" cx="274.11" cy="105.8" r="8.19"/><circle class="d" cx="245.78" cy="119.42" r="8.19"/><circle class="d" cx="218.94" cy="135.81" r="8.19"/><circle class="d" cx="193.87" cy="154.78" r="8.19"/><circle class="d" cx="170.81" cy="176.15" r="8.19"/><circle class="d" cx="150" cy="199.71" r="8.19"/><circle class="d" cx="131.63" cy="225.23" r="8.19"/><circle class="d" cx="115.9" cy="252.45" r="8.19"/><circle class="d" cx="102.95" cy="281.1" r="8.19"/><circle class="d" cx="92.92" cy="310.9" r="8.19"/><circle class="d" cx="85.91" cy="341.55" r="8.19"/><circle class="d" cx="81.98" cy="372.74" r="8.19"/><circle class="d" cx="81.18" cy="404.17" r="8.19"/><circle class="d" cx="83.52" cy="435.53" r="8.19"/><circle class="d" cx="88.96" cy="466.49" r="8.19"/><circle class="d" cx="97.46" cy="496.76" r="8.19"/><circle class="d" cx="108.93" cy="526.04" r="8.19"/><circle class="d" cx="123.26" cy="554.02" r="8.19"/><circle class="d" cx="140.3" cy="580.44" r="8.19"/><circle class="d" cx="159.89" cy="605.03" r="8.19"/><circle class="d" cx="181.83" cy="627.55" r="8.19"/><circle class="d" cx="205.9" cy="647.78" r="8.19"/><circle class="d" cx="231.87" cy="665.5" r="8.19"/><circle class="d" cx="259.47" cy="680.56" r="8.19"/><circle class="d" cx="288.44" cy="692.79" r="8.19"/><circle class="d" cx="318.47" cy="702.07" r="8.19"/><circle class="d" cx="349.29" cy="708.32" r="8.19"/><circle class="d" cx="380.57" cy="711.47" r="8.19"/><circle class="d" cx="412.01" cy="711.49" r="8.19"/><circle class="d" cx="443.3" cy="708.38" r="8.19"/><circle class="d" cx="474.12" cy="702.17" r="8.19"/><circle class="d" cx="504.17" cy="692.92" r="8.19"/><circle class="d" cx="533.14" cy="680.72" r="8.19"/><circle class="d" cx="560.77" cy="665.7" r="8.19"/><circle class="d" cx="586.75" cy="648.01" r="8.19"/><circle class="d" cx="610.85" cy="627.82" r="8.19"/><circle class="d" cx="632.82" cy="605.32" r="8.19"/><circle class="d" cx="652.44" cy="580.75" r="8.19"/><circle class="d" cx="669.51" cy="554.35" r="8.19"/><circle class="d" cx="683.88" cy="526.39" r="8.19"/><circle class="d" cx="695.38" cy="497.13" r="8.19"/><circle class="d" cx="703.92" cy="466.87" r="8.19"/><circle class="d" cx="709.4" cy="435.91" r="8.19"/><circle class="d" cx="711.77" cy="404.56" r="8.19"/><circle class="d" cx="711.01" cy="373.13" r="8.19"/><circle class="d" cx="707.12" cy="341.93" r="8.19"/><circle class="d" cx="700.14" cy="311.27" r="8.19"/><circle class="d" cx="690.15" cy="281.46" r="8.19"/><circle class="d" cx="677.24" cy="252.79" r="8.19"/><circle class="d" cx="661.54" cy="225.55" r="8.19"/><circle class="d" cx="643.2" cy="200.01" r="8.19"/><circle class="d" cx="622.42" cy="176.43" r="8.19"/><circle class="d" cx="599.39" cy="155.02" r="8.19"/><circle class="d" cx="574.34" cy="136.02" r="8.19"/><circle class="d" cx="547.52" cy="119.61" r="8.19"/><circle class="d" cx="519.21" cy="105.95" r="8.19"/><circle class="d" cx="489.67" cy="95.17" r="8.19"/><circle class="d" cx="459.21" cy="87.39" r="8.19"/><circle class="d" cx="428.12" cy="82.68" r="8.19"/></g><g><g><path class="d" d="M389.09,123.83h-.26l-16.28-.03,16.19-10.43,.33,.49-14.52,9.36,14.29,.03h.17c1.01,0,6.26-.18,9.16-3.95,2.38-3.08,4.38-5.14,10.25-5.62l.04,.59c-5.62,.46-7.54,2.43-9.82,5.4-3.04,3.93-8.3,4.17-9.55,4.17Z"/><path class="d" d="M408.44,114.26l-19.76-.33-.07-.05-16.03-11.14,1.01,.04s12.98,.54,15.32,.63c4.17,.18,7.44,1.72,9.7,4.56h0c.25,.34,.5,.66,.73,.99,1.49,2.04,2.76,3.8,9.14,4.7l-.04,.59Zm-19.58-.92l16.31,.27c-3.94-1.05-5.09-2.65-6.3-4.31-.23-.33-.47-.64-.73-.97h0c-2.15-2.71-5.26-4.16-9.25-4.34-1.94-.08-11.22-.46-14.31-.59l14.29,9.93Z"/></g><g><path class="d" d="M345.64,127.53l.77-.62,14.28-11.37,.37,.47-13.51,10.75,14.23-1.39c.07,0,6.12-.41,8.9-4.85,2.07-3.32,3.85-5.57,9.63-6.62l.1,.57c-5.54,1.01-7.25,3.18-9.24,6.35-2.93,4.71-9.08,5.11-9.33,5.13l-16.2,1.58Z"/><path class="d" d="M360.71,116.12l-.08-.04-17.06-9.49,1.01-.06s12.98-.75,15.31-.9c4.12-.24,7.55,.97,10.11,3.57h0c.3,.31,.56,.61,.82,.91,1.68,1.88,3.11,3.5,9.56,3.78v.59l-19.67,1.64Zm-15.09-9.06l15.21,8.47,16.25-1.36c-4.02-.65-5.32-2.12-6.7-3.66-.25-.3-.52-.59-.81-.89-2.22-2.27-5.13-3.42-8.67-3.42-.32,0-.64,.01-.97,.03-1.93,.11-11.21,.65-14.3,.83Z"/></g><g><path class="d" d="M319.24,133.94l13.79-13.43,.41,.43-12.37,12.04,14.01-2.8c.07-.01,6.06-1.02,8.37-5.72,1.73-3.5,3.29-5.91,8.93-7.54l.16,.57c-5.41,1.55-6.9,3.87-8.56,7.24-2.45,4.97-8.53,5.99-8.79,6.03l-15.95,3.19Z"/><path class="d" d="M333.09,121.09l-.08-.04-17.92-7.75,.99-.15,15.15-2.4c4.14-.66,7.62,.19,10.41,2.54h0c.32,.27,.62,.55,.92,.81,1.65,1.53,3.1,2.86,7.99,2.86,.58,0,1.21-.02,1.88-.06l.07,.58-19.41,3.6Zm-15.92-7.52l15.98,6.91,16.02-2.97c-4.05-.24-5.5-1.57-7.01-2.96-.3-.26-.58-.54-.91-.8h0c-2.64-2.22-5.97-3.02-9.93-2.42l-14.16,2.25Z"/></g><g><path class="d" d="M293.59,142.94l12.39-14.74,.45,.39-11.11,13.21,13.67-4.19c.06-.01,5.91-1.6,7.75-6.51,1.37-3.65,2.68-6.21,8.13-8.39l.22,.55c-5.23,2.09-6.49,4.54-7.81,8.04-1.94,5.2-7.89,6.81-8.14,6.88l-15.55,4.76Z"/><path class="d" d="M306.1,128.77l-.09-.03-18.6-5.92,.98-.25s12.57-3.31,14.83-3.9c4.03-1.08,7.6-.56,10.61,1.5h0c.35,.23,.67,.48,.99,.72,2.01,1.52,3.75,2.81,10.13,1.81l.12,.57-18.96,5.51Zm-16.59-5.89l16.59,5.28,15.67-4.55c-.24,.01-.49,.01-.72,.01-3.55,0-5.04-1.11-6.59-2.27-.31-.23-.62-.47-.96-.7h0c-2.88-1.96-6.28-2.46-10.14-1.41-1.87,.49-10.85,2.85-13.85,3.64Z"/></g><g><path class="d" d="M268.97,154.45l.56-.81,10.3-15.08,.49,.33-9.74,14.26,13.18-5.53c.07-.02,5.74-2.19,7.07-7.25,1-3.78,2.04-6.45,7.26-9.17l.26,.53c-5.01,2.6-6.01,5.16-6.95,8.79-1.41,5.36-7.19,7.56-7.43,7.66l-15,6.28Z"/><path class="d" d="M280.01,139.11l-.09-.02-19.1-4.04,.95-.36s12.17-4.54,14.36-5.35c3.92-1.45,7.52-1.31,10.71,.44h0c.37,.2,.71,.41,1.06,.62,2.15,1.3,3.99,2.42,10.25,.78l.18,.56-18.32,7.37Zm-17.09-4.22l17.03,3.61,15.12-6.08c-.78,.1-1.49,.15-2.12,.15-2.58,0-3.94-.82-5.35-1.68-.34-.2-.67-.41-1.04-.61h0c-3.03-1.64-6.47-1.77-10.22-.4-1.81,.67-10.52,3.92-13.42,5Z"/></g><g><path class="d" d="M245.63,168.35l9.22-16.91,.51,.29-8.27,15.16,12.56-6.8c.07-.03,5.49-2.76,6.32-7.94,.62-3.85,1.39-6.62,6.3-9.82l.33,.49c-4.71,3.07-5.46,5.73-6.06,9.44-.88,5.48-6.38,8.25-6.62,8.36l-14.3,7.75Z"/><path class="d" d="M255.08,151.98h-.09l-19.41-2.13,.91-.45s11.67-5.73,13.76-6.77c3.76-1.84,7.35-2.04,10.7-.63h0c.39,.17,.75,.35,1.12,.52,2.27,1.07,4.21,2.02,10.27-.23l.23,.54-17.49,9.15Zm-17.43-2.49l17.31,1.88,14.44-7.55c-3.94,.97-5.74,.12-7.59-.76-.36-.17-.71-.35-1.09-.5h0c-3.19-1.35-6.63-1.16-10.21,.61-1.74,.86-10.08,4.96-12.86,6.32Z"/></g><g><path class="d" d="M223.78,184.5l.38-.91,7.11-16.82,.55,.22-6.73,15.91,11.84-8.03c.06-.04,5.18-3.28,5.49-8.52,.23-3.89,.73-6.72,5.3-10.4l.37,.45c-4.39,3.54-4.86,6.25-5.08,10-.34,5.54-5.54,8.84-5.76,8.97l-13.46,9.13Z"/><path class="d" d="M231.55,167.27h-.08l-19.51-.17,.86-.53s11.03-6.87,13.02-8.1c3.54-2.2,7.09-2.77,10.58-1.7h0c.4,.13,.78,.26,1.16,.41,2.37,.83,4.42,1.59,10.2-1.26l.3,.51-16.51,10.85Zm-17.58-.74l17.41,.15,13.62-8.95c-3.83,1.35-5.7,.68-7.62-.01-.38-.13-.75-.26-1.15-.39h0c-3.27-1.03-6.68-.49-10.09,1.62-1.65,1.03-9.53,5.93-12.16,7.57Z"/></g><g><path class="d" d="M203.65,202.75l.29-.96,5.4-17.44,.57,.18-5.11,16.48,10.97-9.15c.05-.04,4.83-3.78,4.62-9.02-.15-3.9,.05-6.77,4.23-10.89l.41,.43c-4,3.94-4.2,6.7-4.05,10.44,.21,5.55-4.64,9.33-4.85,9.5l-12.48,10.42Z"/><path class="d" d="M190.14,186.6l.79-.62,12.15-9.34c3.3-2.56,6.77-3.47,10.36-2.74h0c.42,.08,.8,.18,1.2,.27,2.41,.61,4.53,1.14,10.02-2.25l.34,.47-15.34,12.44h-.08l-19.44,1.77Zm20.96-12.36c-2.63,0-5.19,.96-7.64,2.86l-11.36,8.72,17.35-1.57,12.65-10.26c-3.67,1.73-5.59,1.24-7.58,.74-.39-.09-.77-.19-1.18-.27h0c-.74-.15-1.49-.22-2.23-.22Z"/></g><g><path class="d" d="M185.42,222.92l.2-.98,3.64-17.9,.57,.12-3.44,16.92,10-10.2c.06-.05,4.44-4.24,3.71-9.45-.54-3.86-.62-6.72,3.14-11.25l.45,.37c-3.6,4.35-3.52,7.1-2.99,10.8,.77,5.51-3.7,9.76-3.88,9.95l-11.39,11.61Z"/><path class="d" d="M170.38,208.19l.73-.69s9.46-8.91,11.16-10.52c3.04-2.86,6.47-4.11,10.04-3.76h0c.42,.05,.81,.1,1.21,.16,2.49,.37,4.64,.68,9.75-3.25l.39,.44-14.03,13.92h-.09l-19.16,3.7Zm20.72-14.43c-3.01,0-5.83,1.22-8.42,3.65-1.41,1.33-8.17,7.7-10.42,9.82l17.09-3.29,11.58-11.47c-3.5,2.09-5.43,1.8-7.5,1.5-.38-.06-.77-.11-1.18-.15h0c-.39-.04-.77-.06-1.15-.06Z"/></g><g><path class="d" d="M169.3,244.78l.09-.99,1.84-18.17,.59,.06-1.75,17.18,8.95-11.15c.04-.05,3.99-4.67,2.74-9.76-.93-3.79-1.29-6.64,2-11.51l.49,.33c-3.16,4.68-2.81,7.41-1.91,11.04,1.32,5.4-2.69,10.09-2.86,10.28l-10.17,12.68Z"/><path class="d" d="M152.86,231.63l.66-.76s8.52-9.8,10.06-11.57c2.75-3.14,5.97-4.73,9.59-4.73h.02c.42,0,.82,.02,1.22,.04,2.47,.13,4.68,.22,9.39-4.2l.43,.4-12.57,15.24-.09,.03-18.7,5.57Zm20.31-16.48c-3.44,0-6.51,1.53-9.14,4.53-1.28,1.47-7.37,8.47-9.4,10.81l16.67-4.97,10.38-12.57c-2.65,1.95-4.44,2.27-6.11,2.27-.41,0-.8-.02-1.2-.03-.39-.02-.78-.04-1.19-.04h-.02Z"/></g><g><path class="d" d="M155.43,268.14l.03-19.25h.59l-.03,17.27,7.79-11.99c.04-.06,3.5-5.04,1.76-9.98-1.3-3.69-1.94-6.48,.84-11.66l.51,.29c-2.67,4.96-2.05,7.64-.8,11.17,1.84,5.24-1.68,10.3-1.82,10.52l-8.87,13.63Z"/><path class="d" d="M137.76,256.7l.58-.82s7.51-10.62,8.86-12.52c2.41-3.4,5.48-5.31,9.1-5.67h0c.42-.04,.82-.06,1.22-.08,2.5-.13,4.68-.24,8.92-5.11l.47,.36-11,16.4-.08,.04-18.06,7.41Zm18.6-18.43h0c-3.45,.34-6.37,2.16-8.67,5.43-1.12,1.58-6.48,9.16-8.28,11.7l16.1-6.62,9.08-13.54c-3.02,2.74-4.99,2.84-7.04,2.95-.4,.02-.78,.04-1.19,.08Z"/></g><g><path class="d" d="M143.95,292.79l-.1-.99-1.79-18.18,.59-.06,1.69,17.19,6.56-12.7c.04-.06,2.99-5.35,.76-10.11-1.67-3.52-2.59-6.25-.34-11.68l.55,.22c-2.17,5.21-1.28,7.82,.32,11.21,2.36,5.03-.64,10.4-.77,10.63l-7.46,14.47Z"/><path class="d" d="M125.24,283.15l.5-.88s6.41-11.31,7.56-13.34c2.07-3.63,4.92-5.83,8.48-6.55h0c.42-.08,.81-.14,1.21-.2,2.48-.39,4.63-.72,8.36-5.99l.5,.32-9.3,17.42-.07,.04-17.23,9.17Zm16.66-20.19c-3.39,.68-6.11,2.79-8.09,6.26-.96,1.68-5.54,9.76-7.06,12.46l15.37-8.17,7.68-14.38c-2.73,3.02-4.67,3.33-6.71,3.63-.39,.06-.78,.12-1.18,.2h0Z"/></g><g><path class="d" d="M134.99,318.43l-3.78-18.87,.57-.12,3.39,16.94,5.26-13.29c.03-.06,2.43-5.63-.25-10.13-2.01-3.35-3.19-5.97-1.49-11.58l.57,.16c-1.64,5.4-.5,7.91,1.43,11.12,2.84,4.77,.4,10.42,.29,10.67l-5.99,15.12Z"/><path class="d" d="M115.41,310.7l.41-.93,6.21-14.02c1.69-3.82,4.31-6.29,7.79-7.36h0c.4-.12,.79-.22,1.18-.32,2.43-.63,4.53-1.17,7.73-6.78l.53,.25-7.53,18.26-.07,.05-16.24,10.83Zm22.05-26.34c-2.42,3.29-4.33,3.78-6.32,4.29-.38,.1-.76,.2-1.16,.33-3.3,1.01-5.79,3.37-7.42,7.03l-5.8,13.09,14.5-9.66,6.21-15.08Z"/></g><g><path class="d" d="M128.61,344.86l-5.65-18.41,.57-.16,5.06,16.5,3.91-13.74c.03-.07,1.87-5.84-1.25-10.06-2.32-3.14-3.77-5.63-2.63-11.39l.57,.12c-1.09,5.52,.3,7.91,2.52,10.92,3.31,4.46,1.43,10.33,1.34,10.58l-4.45,15.65Z"/><path class="d" d="M108.37,339.11l.32-.96s4.05-12.35,4.78-14.57c1.28-3.96,3.64-6.69,7.01-8.1h0c.39-.15,.76-.3,1.14-.44,2.36-.87,4.41-1.61,7.02-7.51l.55,.2-5.68,18.92-.07,.05-15.08,12.4Zm12.34-23.08c-3.2,1.34-5.45,3.94-6.69,7.74-.6,1.84-3.5,10.67-4.47,13.61l13.46-11.07,4.68-15.61c-2.08,3.5-3.93,4.18-5.86,4.89-.37,.14-.74,.27-1.12,.44h0Z"/></g><g><path class="d" d="M124.91,371.77l-.39-.92-7.06-16.84,.55-.22,6.68,15.92,2.52-14.07c.01-.07,1.27-6.01-2.25-9.88-2.63-2.89-4.31-5.22-3.76-11.07l.59,.06c-.54,5.6,1.08,7.84,3.59,10.62,3.74,4.1,2.45,10.13,2.39,10.38l-2.87,16.01Z"/><path class="d" d="M104.19,368.08l.21-.99s2.8-12.69,3.31-14.97c.89-4.07,2.96-7.02,6.17-8.75h0c.38-.2,.73-.38,1.1-.55,2.26-1.1,4.21-2.05,6.24-8.17l.56,.15-3.77,19.38-.07,.06-13.75,13.84Zm9.98-24.21c-3.05,1.66-5.03,4.47-5.88,8.37-.42,1.89-2.42,10.96-3.09,13.99l12.28-12.34,3.11-16c-1.72,3.7-3.49,4.55-5.34,5.45-.36,.17-.71,.35-1.07,.54h0Z"/></g><g><path class="d" d="M123.89,398.92l-9.17-16.92,.51-.29,8.24,15.19,1.11-14.25c.01-.07,.67-6.1-3.22-9.61-2.9-2.61-4.8-4.76-4.84-10.64h.59c.03,5.63,1.85,7.7,4.63,10.21,4.12,3.71,3.45,9.83,3.42,10.09l-1.27,16.22Z"/><path class="d" d="M102.91,397.3l.11-1,1.8-15.23c.5-4.14,2.27-7.28,5.28-9.32h0c.35-.23,.69-.45,1.03-.66,2.15-1.31,4-2.45,5.4-8.74l.58,.09-1.82,19.66-.06,.07-12.32,15.14Zm13.31-31.67c-1.34,3.85-3.02,4.88-4.77,5.97-.34,.2-.67,.41-1.02,.64h0c-2.86,1.94-4.55,4.94-5.02,8.9l-1.69,14.23,10.99-13.5,1.51-16.24Z"/></g><g><path class="d" d="M125.59,426.05l-10.82-15.93,.49-.33,9.7,14.28-.32-14.28c0-.08,.07-6.15-4.16-9.25-3.15-2.3-5.25-4.24-5.86-10.1l.59-.06c.58,5.62,2.61,7.48,5.62,9.69,4.48,3.29,4.41,9.46,4.41,9.72l.36,16.26Z"/><path class="d" d="M104.54,426.53l.02-1.02s.23-13,.27-15.33c.07-4.16,1.53-7.46,4.34-9.79h0c.32-.27,.64-.52,.96-.75,2-1.53,3.73-2.85,4.49-9.25l.59,.03,.14,19.76-.05,.07-10.76,16.29Zm10.11-32.85c-.97,3.97-2.52,5.16-4.16,6.41-.32,.24-.63,.48-.95,.74h0c-2.66,2.22-4.04,5.36-4.11,9.37-.04,1.93-.2,11.22-.25,14.31l9.59-14.53-.11-16.31Z"/></g><g><path class="d" d="M129.97,452.86l-.63-.76-11.71-14.02,.45-.37,11.08,13.25-1.74-14.2c0-.07-.54-6.1-5.06-8.76-3.36-1.99-5.65-3.72-6.84-9.48l.57-.12c1.14,5.53,3.35,7.19,6.58,9.09,4.77,2.83,5.32,8.96,5.34,9.22l1.96,16.14Z"/><path class="d" d="M109.08,455.43l-.08-1.01s-1.06-12.95-1.25-15.28c-.35-4.14,.78-7.57,3.33-10.18h0c.31-.31,.6-.58,.9-.86,1.83-1.72,3.41-3.2,3.53-9.65l.59-.02,2.12,19.65-.05,.07-9.08,17.27Zm6.78-33.67c-.56,4.03-1.99,5.37-3.49,6.78-.29,.26-.58,.54-.87,.83h0c-2.43,2.48-3.5,5.75-3.17,9.73,.15,1.93,.92,11.19,1.17,14.27l8.09-15.41-1.74-16.21Z"/></g><g><path class="d" d="M137.01,479.12l-.71-.69-13.05-12.78,.41-.43,12.34,12.08-3.14-13.95c-.01-.07-1.16-6.03-5.91-8.24-3.53-1.64-5.99-3.13-7.75-8.73l.55-.18c1.7,5.39,4.05,6.82,7.44,8.39,5.04,2.34,6.2,8.4,6.24,8.65l3.58,15.87Z"/><path class="d" d="M116.48,483.75l-.18-1s-2.35-12.79-2.77-15.08c-.76-4.09,.01-7.61,2.3-10.46h0c.25-.33,.53-.63,.79-.94,1.65-1.89,3.08-3.52,2.56-9.96l.58-.08,4.06,19.34-.03,.08-7.31,18.09Zm3.38-34.17c-.15,4.06-1.45,5.54-2.8,7.09-.25,.3-.52,.59-.78,.92h0c-2.17,2.71-2.9,6.08-2.18,10,.35,1.9,2.03,11.03,2.59,14.08l6.53-16.13-3.35-15.94Z"/></g><g><path class="d" d="M146.61,504.52l-15.04-12.03,.37-.45,13.49,10.79-4.51-13.57c-.02-.07-1.75-5.87-6.7-7.6-3.7-1.27-6.28-2.51-8.58-7.93l.53-.22c2.22,5.18,4.7,6.37,8.24,7.6,5.25,1.83,7,7.73,7.07,7.98l5.13,15.43Z"/><path class="d" d="M126.64,511.18l-.29-.97s-3.6-12.48-4.26-14.73c-1.14-4.02-.72-7.59,1.25-10.65h0c.22-.35,.47-.68,.69-1.01,1.47-2.04,2.73-3.81,1.58-10.16l.56-.14,5.97,18.84-.02,.08-5.49,18.73Zm-2.8-26.02c-1.87,2.89-2.27,6.31-1.17,10.16,.54,1.86,3.11,10.79,3.97,13.76l4.9-16.71-4.93-15.54c.26,4.07-.89,5.67-2.09,7.35-.22,.32-.46,.64-.68,.99h0Z"/></g><g><path class="d" d="M158.69,528.86l-16.16-10.47,.33-.49,14.49,9.4-5.83-13.05c-.03-.07-2.33-5.68-7.43-6.89-3.79-.91-6.48-1.88-9.32-7.03l.51-.29c2.73,4.94,5.31,5.87,8.96,6.75,5.4,1.28,7.73,6.99,7.83,7.23l6.64,14.85Z"/><path class="d" d="M139.48,537.48l-.38-.94s-4.83-12.06-5.7-14.23c-1.55-3.88-1.49-7.49,.18-10.72,.19-.38,.4-.72,.6-1.07,1.25-2.18,2.33-4.06,.54-10.26l.55-.19,7.82,18.14-.02,.08-3.59,19.19Zm-5.63-25.75l.26,.13c-1.6,3.07-1.65,6.53-.16,10.23,.72,1.8,4.17,10.42,5.32,13.29l3.21-17.11-6.44-14.96c.66,4.02-.33,5.72-1.34,7.5-.19,.35-.4,.68-.58,1.05l-.26-.13Z"/></g><g><path class="d" d="M173.14,551.88l-.88-.45-16.23-8.37,.26-.53,15.35,7.92-7.11-12.41c-.03-.06-2.88-5.42-8.07-6.12-3.87-.53-6.66-1.24-9.99-6.08l.49-.33c3.19,4.63,5.86,5.31,9.58,5.81,5.49,.75,8.39,6.2,8.51,6.43l8.07,14.11Z"/><path class="d" d="M154.89,562.35l-.47-.9s-6.01-11.52-7.09-13.6c-1.92-3.7-2.22-7.29-.89-10.68h0c.15-.39,.33-.75,.49-1.12,1.03-2.29,1.91-4.28-.48-10.26l.53-.25,9.57,17.28v.08l-1.67,19.44Zm-7.89-24.95h0c-1.27,3.22-.99,6.65,.87,10.19,.9,1.72,5.18,9.96,6.62,12.7l1.49-17.35-7.9-14.26c1.05,3.94,.24,5.73-.6,7.6-.15,.36-.32,.72-.47,1.11Z"/></g><g><path class="d" d="M189.81,573.35l-17.91-7.07,.22-.55,16.05,6.34-8.3-11.63c-.04-.06-3.42-5.11-8.65-5.29-3.89-.14-6.73-.57-10.54-5.05l.45-.39c3.64,4.31,6.37,4.71,10.11,4.85,5.55,.2,8.97,5.33,9.11,5.55l9.45,13.24Z"/><path class="d" d="M172.69,585.58l-.55-.84s-7.13-10.87-8.41-12.83c-2.29-3.49-2.94-7.03-1.94-10.54h0c.12-.41,.24-.79,.38-1.18,.78-2.38,1.48-4.44-1.51-10.16l.51-.3,11.25,16.24v.09l.27,19.51Zm-10.15-32.82c1.45,3.8,.82,5.67,.17,7.62-.12,.37-.24,.75-.36,1.15h0c-.96,3.33-.33,6.71,1.86,10.05,1.07,1.63,6.16,9.4,7.86,11.98l-.25-17.41-9.28-13.4Z"/></g><g><path class="d" d="M208.53,593.04l-.96-.26-17.57-4.99,.16-.57,16.61,4.72-9.42-10.75c-.04-.05-3.63-4.43-8.6-4.43-.17,0-.36,.01-.53,.02-3.89,.24-6.76,.1-10.98-3.97l.41-.43c4.04,3.91,6.78,4.08,10.54,3.81,.19-.01,.4-.02,.59-.02,5.23,0,8.88,4.45,9.03,4.64l10.72,12.23Z"/><path class="d" d="M192.71,606.92l-10.27-12.7c-2.63-3.26-3.62-6.72-2.98-10.29h0c.07-.42,.16-.81,.24-1.2,.56-2.45,1.04-4.58-2.49-9.97l.47-.36,12.81,15.05v.09l2.23,19.38Zm-12.68-22.89c-.6,3.4,.36,6.71,2.86,9.82l9.01,11.14-1.99-17.3-10.56-12.41c1.8,3.64,1.37,5.56,.93,7.57-.09,.38-.18,.76-.25,1.17h0Z"/></g><g><path class="d" d="M229.12,610.77l-18.94-3.38,.1-.57,16.99,3.03-10.43-9.76c-.05-.06-4.37-4.29-9.52-3.48-3.87,.64-6.74,.76-11.33-2.85l.37-.47c4.42,3.49,7.19,3.33,10.86,2.75,.52-.09,1.02-.12,1.51-.12,4.75,0,8.36,3.58,8.52,3.76l11.88,11.1Z"/><path class="d" d="M214.76,626.17l-.7-.72s-9.15-9.24-10.79-10.91c-2.93-2.95-4.28-6.29-3.99-9.94h0c.03-.43,.08-.82,.13-1.23,.31-2.49,.57-4.64-3.47-9.66l.43-.4,14.23,13.69,.02,.09,4.14,19.08Zm-16.45-30.17c2.17,3.45,1.93,5.41,1.68,7.44-.04,.4-.09,.79-.12,1.2h0c-.27,3.47,1.01,6.66,3.82,9.49,1.36,1.38,7.9,7.99,10.08,10.19l-3.7-17.01-11.76-11.31Z"/></g><g><path class="d" d="M251.37,626.37l-.99-.07-18.2-1.4,.04-.59,17.21,1.33-11.35-8.67c-.06-.05-4.76-3.84-9.83-2.51-3.76,1.03-6.6,1.44-11.55-1.72l.33-.49c4.75,3.03,7.48,2.65,11.08,1.64,5.4-1.47,10.15,2.45,10.34,2.63l12.93,9.86Z"/><path class="d" d="M238.61,643.11l-.77-.64s-10.01-8.29-11.81-9.77c-3.22-2.67-4.89-5.86-4.97-9.5h0c-.01-.43,0-.83,.01-1.24,.05-2.5,.1-4.67-4.43-9.26l.4-.44,15.52,12.22,.02,.08,6.03,18.56Zm-19.36-28.36c2.49,3.21,2.45,5.17,2.41,7.22-.01,.4-.02,.8-.01,1.21h0c.07,3.46,1.67,6.51,4.74,9.07,1.5,1.23,8.65,7.15,11.03,9.13l-5.37-16.56-12.81-10.07Z"/></g><g><path class="d" d="M255.82,640.12l-.02-.59,17.26-.39-12.16-7.49c-.06-.05-5.11-3.41-10.03-1.53-3.5,1.35-6.41,2.1-11.67-.56l.26-.53c5.02,2.58,7.7,1.88,11.2,.54,5.19-1.96,10.33,1.43,10.55,1.58l13.84,8.54-19.24,.43Z"/><path class="d" d="M264.03,657.62l-.83-.56s-10.79-7.26-12.72-8.56c-3.46-2.32-5.45-5.33-5.89-8.95h0c-.05-.42-.08-.82-.11-1.22-.18-2.5-.36-4.67-5.31-8.81l.34-.47,16.67,10.6,.03,.08,7.84,17.89Zm-18.86-18.15c.42,3.45,2.32,6.32,5.63,8.54,1.61,1.08,9.31,6.27,11.89,8l-6.99-15.95-13.76-8.76c2.82,2.97,2.96,4.94,3.13,6.99,.03,.39,.06,.77,.11,1.18h0Z"/></g><g><path class="d" d="M280.85,652.92l-.08-.59,17.15-2.1-12.86-6.25c-.06-.03-5.46-2.86-10.12-.52-3.49,1.75-6.2,2.74-11.67,.6l.2-.55c5.25,2.06,7.84,1.1,11.2-.58,4.95-2.43,10.42,.4,10.66,.53l14.62,7.12-.98,.12-18.13,2.22Z"/><path class="d" d="M290.77,669.51l-.9-.48s-11.45-6.14-13.52-7.25c-3.67-1.97-5.94-4.78-6.74-8.33h0c-.09-.41-.16-.81-.23-1.2-.44-2.47-.82-4.61-6.17-8.21l.3-.51,17.64,8.9,.04,.08,9.58,17Zm-20.58-16.18c.76,3.37,2.93,6.04,6.45,7.94,1.71,.92,9.89,5.3,12.62,6.77l-8.54-15.17-14.56-7.34c3.08,2.66,3.43,4.59,3.8,6.62,.06,.39,.13,.77,.22,1.18h0Z"/></g><g><path class="d" d="M307.03,663.16l-.12-.57,16.85-3.81-13.42-4.94c-.06-.03-5.68-2.3-10.13,.49-3.3,2.09-5.86,3.35-11.55,1.77l.16-.57c5.42,1.51,7.91,.3,11.09-1.69,4.68-2.97,10.41-.65,10.65-.55l15.26,5.63-.97,.21-17.81,4.02Z"/><path class="d" d="M318.54,678.68l-.93-.38s-12-4.97-14.16-5.86c-3.86-1.61-6.39-4.16-7.53-7.62h0c-.13-.4-.24-.78-.36-1.17-.69-2.42-1.28-4.51-6.97-7.56l.24-.53,18.45,7.09,.05,.07,11.21,15.97Zm-26.85-21.41c3.34,2.34,3.88,4.23,4.44,6.21,.11,.38,.22,.76,.35,1.15h0c1.1,3.29,3.52,5.73,7.21,7.26,1.79,.74,10.36,4.3,13.23,5.49l-10.02-14.25-15.21-5.85Z"/></g><g><path class="d" d="M334.11,670.75l-.18-.55,16.38-5.47-13.83-3.57c-.09-.02-5.92-1.74-10.02,1.5-3.08,2.4-5.56,3.91-11.33,2.89l.1-.57c5.53,.93,7.9-.49,10.86-2.79,4.41-3.42,10.3-1.66,10.54-1.6l15.76,4.08-.95,.31-17.33,5.77Z"/><path class="d" d="M347.12,685.05l-.97-.29s-12.44-3.76-14.68-4.43c-4-1.22-6.77-3.52-8.26-6.83h0c-.17-.39-.33-.76-.47-1.14-.93-2.34-1.73-4.36-7.69-6.83l.19-.56,19.05,5.23,.06,.06,12.76,14.78Zm-23.37-11.79c1.41,3.16,4.07,5.34,7.89,6.5,1.86,.56,10.75,3.25,13.71,4.14l-11.37-13.19-15.72-4.31c3.55,2,4.28,3.83,5.03,5.74,.14,.37,.3,.73,.46,1.11h0Z"/></g><g><path class="d" d="M361.81,675.6l-.24-.53,15.76-7.05-14.12-2.2c-.08,0-6.04-1.12-9.82,2.49-2.82,2.7-5.11,4.46-10.97,4.01l.04-.59c.56,.04,1.08,.06,1.57,.06,4.49,0,6.51-1.58,8.96-3.91,4.02-3.85,10.06-2.7,10.33-2.64l16.07,2.48-17.57,7.87Z"/><path class="d" d="M376.17,688.54l-1-.19s-12.76-2.5-15.05-2.95c-4.09-.79-7.09-2.8-8.9-5.97h0c-.2-.36-.39-.72-.57-1.07-1.15-2.24-2.14-4.17-8.32-6.05l.13-.57,19.46,3.3,.07,.06,14.16,13.44Zm-24.43-9.4c1.72,3,4.58,4.92,8.51,5.68,1.89,.37,11.01,2.16,14.05,2.76l-12.62-11.99-16.07-2.73c3.74,1.64,4.64,3.39,5.58,5.22,.18,.35,.36,.7,.56,1.06h0Z"/></g><g><path class="d" d="M389.84,677.69l-.29-.51,14.97-8.59-14.27-.77c-.06-.02-6.12-.52-9.53,3.45-2.54,2.96-4.64,4.92-10.52,5.08l-.02-.59c5.63-.15,7.66-2.04,10.09-4.88,2.84-3.3,7.24-3.69,9.12-3.69,.52,0,.84,.03,.91,.03l16.24,.88-16.7,9.59Z"/><path class="d" d="M405.43,689.12l-1.01-.09s-12.94-1.21-15.27-1.44c-4.14-.39-7.32-2.09-9.44-5.05h0c-.25-.35-.47-.69-.69-1.03-1.36-2.11-2.56-3.93-8.88-5.18l.08-.58,19.71,1.35,.07,.05,15.42,11.96Zm-31.98-12.55c3.88,1.25,4.95,2.9,6.07,4.63,.22,.33,.44,.66,.67,1h0c2.02,2.83,5.05,4.44,9.03,4.8,1.93,.19,11.18,1.06,14.26,1.34l-13.76-10.67-16.27-1.11Z"/></g><g><path class="d" d="M398.29,677.59l-.08-.59c5.6-.72,7.42-2.78,9.55-5.84,3.19-4.56,9.34-4.64,9.61-4.64l16.25-.74-.8,.57-14.85,10.62-.35-.47,14.05-10.05-14.28,.66c-.07,0-6.13,.08-9.13,4.39-2.23,3.19-4.12,5.33-9.96,6.1Z"/><path class="d" d="M418.09,686.89c-4.09,0-7.37-1.37-9.74-4.09h0c-.27-.32-.54-.64-.78-.96-1.58-1.95-2.93-3.64-9.34-4.26l.02-.59,19.74-.61,.07,.05,16.54,10.35h-1.01s-13,.09-15.33,.1h-.16Zm-16.56-9.41c3.97,.86,5.2,2.39,6.48,3.99,.25,.31,.51,.62,.78,.94h0c2.25,2.59,5.39,3.89,9.3,3.89h.15c1.93-.01,11.22-.06,14.32-.08l-14.76-9.24-16.29,.51Z"/></g><g><path class="d" d="M426.34,676.02l-.12-.57c5.48-1.27,7.1-3.51,8.93-6.78,2.71-4.85,8.84-5.54,9.09-5.57l16.09-2.35-.74,.66-13.73,12.04-.39-.45,12.99-11.38-14.15,2.06c-.07,.01-6.09,.7-8.65,5.27-1.91,3.41-3.59,5.74-9.31,7.06Z"/><path class="d" d="M445.33,683.39c-3.36,0-6.2-1.06-8.46-3.18-.31-.29-.59-.58-.87-.86-1.74-1.79-3.26-3.33-9.57-3.33h-.16l-.04-.59,19.59-2.58,.08,.04,17.49,8.67-1.01,.11s-12.92,1.36-15.25,1.61c-.62,.06-1.22,.09-1.8,.09Zm-8.05-3.6c2.14,2.01,4.85,3.02,8.05,3.02,.57,0,1.15-.03,1.74-.1,1.93-.2,11.17-1.17,14.24-1.5l-15.6-7.74-16.17,2.13c4.05,.46,5.43,1.86,6.87,3.34,.27,.29,.55,.56,.86,.84Z"/></g><g><path class="d" d="M454.1,671.67l-.18-.55c5.32-1.81,6.71-4.2,8.21-7.64,2.21-5.08,8.24-6.38,8.49-6.43l15.79-3.95-.68,.73-12.47,13.35-.43-.41,11.79-12.61-13.86,3.46c-.07,.01-6,1.29-8.09,6.1-1.56,3.58-3,6.08-8.56,7.96Z"/><path class="d" d="M472.26,677.2c-2.73,0-5.16-.8-7.25-2.4h-.01c-.33-.25-.64-.52-.95-.77-1.93-1.61-3.63-3.02-10.02-2.33l-.1-.58,19.24-4.51,18.34,6.91-.99,.2s-12.71,2.65-15,3.13c-1.13,.23-2.22,.36-3.27,.36Zm-6.9-2.87c2.76,2.11,6.13,2.75,10.05,1.94,1.9-.4,10.98-2.29,14.02-2.92l-16.29-6.14-15.87,3.73c4.08,.05,5.59,1.31,7.17,2.64,.31,.25,.6,.51,.93,.75h0Z"/></g><g><path class="d" d="M481.3,664.59l-.24-.53c5.13-2.34,6.26-4.85,7.41-8.42,1.69-5.28,7.56-7.18,7.81-7.25l15.31-5.5-.6,.78-11.08,14.52-.47-.35,10.47-13.73-13.45,4.83c-.07,.02-5.84,1.88-7.45,6.88-1.19,3.72-2.37,6.33-7.72,8.76Z"/><path class="d" d="M498.6,668.34c-2.22,0-4.28-.58-6.15-1.73-.36-.22-.69-.45-1.02-.67-2.08-1.41-3.87-2.63-10.2-1.33l-.15-.56,18.68-6.4,.08,.02,18.86,5.04-.96,.3s-12.4,3.9-14.63,4.6c-1.57,.5-3.08,.74-4.52,.74Zm-5.84-2.24c2.95,1.82,6.38,2.14,10.18,.95,1.85-.59,10.71-3.37,13.67-4.31l-16.83-4.49-15.42,5.28c4.03-.35,5.69,.75,7.4,1.91,.33,.22,.65,.44,1,.65Z"/></g><g><path class="d" d="M507.64,654.84l-.29-.51c4.87-2.83,5.74-5.45,6.54-9.11,1.16-5.42,6.81-7.89,7.05-7.99l14.69-6.99-10.1,16.39-.51-.31,9.06-14.7-12.91,6.14c-.06,.03-5.62,2.46-6.72,7.58-.82,3.82-1.74,6.55-6.82,9.5Z"/><path class="d" d="M524.02,656.91c-1.76,0-3.45-.4-5.07-1.18h0c-.38-.18-.73-.38-1.09-.57-2.21-1.19-4.13-2.23-10.27-.31l-.21-.54,17.96-8.24,.09,.02,19.26,3.13-.93,.4s-11.95,5.11-14.1,6.04c-1.94,.83-3.83,1.25-5.64,1.25Zm-10.77-3.71c2.23,0,3.53,.7,4.89,1.44,.35,.19,.7,.38,1.08,.56h0c3.1,1.52,6.53,1.49,10.22-.07,1.78-.77,10.32-4.43,13.17-5.64l-17.19-2.8-14.81,6.79c1.02-.19,1.88-.27,2.65-.27Z"/></g><g><path class="d" d="M532.9,642.5l-.35-.47c4.57-3.31,5.19-6,5.6-9.71,.61-5.52,6-8.54,6.22-8.66l13.92-8.42-.43,.9-7.98,16.43-.53-.26,7.55-15.53-12.24,7.4c-.06,.03-5.35,3.01-5.92,8.21-.44,3.88-1.08,6.68-5.84,10.12Z"/><path class="d" d="M548.24,643c-1.35,0-2.69-.23-4-.72h0c-.4-.14-.77-.31-1.14-.46-2.32-.99-4.31-1.82-10.26,.71l-.26-.52,17.06-9.97h.09l19.47,1.19-14.31,7.9c-2.25,1.24-4.48,1.86-6.65,1.86Zm-8.98-2.72c1.69,0,2.86,.49,4.06,1,.37,.15,.73,.31,1.12,.45h0c3.24,1.2,6.67,.83,10.16-1.1l12.54-6.92-17.37-1.07-14.08,8.24c1.44-.43,2.59-.59,3.56-.59Z"/></g><g><path class="d" d="M556.8,627.73l-.39-.45c4.21-3.75,4.55-6.47,4.59-10.21,.07-5.56,5.12-9.09,5.33-9.24l13.02-9.76-6.66,18.07-.55-.2,5.97-16.21-11.44,8.58c-.06,.04-5.01,3.52-5.08,8.76-.04,3.9-.4,6.75-4.79,10.66Z"/><path class="d" d="M556.75,627.76l-.32-.49,15.97-11.63h.09l19.5-.75-.83,.58s-10.7,7.38-12.62,8.7c-3.42,2.36-6.95,3.1-10.49,2.2h0c-.41-.11-.79-.22-1.18-.35-2.42-.75-4.5-1.36-10.13,1.73Zm11.45-1.95c3.34,.88,6.72,.15,10.02-2.12,1.6-1.1,9.24-6.37,11.79-8.12l-17.4,.65-13.19,9.6c3.77-1.53,5.66-.95,7.63-.35,.38,.11,.75,.23,1.15,.34h0Z"/></g><g><path class="d" d="M579.1,610.65l-.43-.41c3.82-4.13,3.89-6.89,3.56-10.63-.48-5.53,4.18-9.55,4.38-9.72l11.98-11-.24,.96-4.57,17.68-.57-.14,4.33-16.73-10.54,9.67c-.05,.05-4.63,4.01-4.17,9.23,.34,3.9,.25,6.77-3.73,11.09Z"/><path class="d" d="M579.05,610.69l-.36-.46,14.73-13.16,.09-.02,19.33-2.68-.76,.65s-9.9,8.41-11.69,9.93c-2.67,2.24-5.49,3.36-8.41,3.36-.6,0-1.21-.04-1.81-.14h0c-.42-.06-.82-.14-1.21-.21-2.45-.51-4.58-.94-9.91,2.74Zm14.64-13.07l-12.16,10.86c3.61-1.89,5.53-1.5,7.55-1.11,.39,.08,.77,.15,1.18,.22h0c.58,.08,1.15,.13,1.72,.13,2.79,0,5.49-1.08,8.03-3.23,1.49-1.26,8.56-7.27,10.92-9.27l-17.24,2.39Z"/></g><g><path class="d" d="M599.6,591.42l-.47-.35c3.39-4.52,3.19-7.26,2.49-10.94-1.04-5.45,3.21-9.91,3.39-10.1l10.82-12.14-2.94,19.03-.57-.08,2.64-17.07-9.52,10.67c-.04,.05-4.22,4.45-3.25,9.6,.73,3.83,.94,6.69-2.6,11.39Z"/><path class="d" d="M599.56,591.47l-.41-.42,13.36-14.57,.08-.02,18.96-4.58-.69,.72s-9.02,9.34-10.65,11.02c-2.71,2.82-5.79,4.24-9.19,4.24-.22,0-.44,0-.66-.01h0c-.42-.02-.82-.06-1.22-.1-2.46-.27-4.66-.47-9.58,3.71Zm13.25-14.46l-11.02,12.02c3.4-2.24,5.37-2.04,7.41-1.86,.39,.04,.78,.08,1.2,.1,.2,.01,.41,.02,.61,.02,3.24,0,6.19-1.36,8.77-4.07,1.35-1.39,7.8-8.07,9.95-10.3l-16.92,4.09Z"/></g><g><path class="d" d="M618.1,570.25l-.51-.31c2.92-4.8,2.44-7.52,1.38-11.13-1.57-5.31,2.22-10.19,2.37-10.39l9.56-13.16-.05,1-.98,18.23-.59-.04,.93-17.23-8.4,11.56c-.04,.06-3.76,4.86-2.27,9.87,1.1,3.76,1.59,6.59-1.45,11.59Z"/><path class="d" d="M618.06,570.3l-.45-.38,11.83-15.81,.08-.03,18.43-6.46-.62,.79-9.5,12.04c-2.59,3.28-5.74,5.02-9.39,5.18h0c-3.07,.15-5.2-.7-10.38,4.66Zm11.75-15.7l-9.76,13.05c3.15-2.58,5.12-2.58,7.18-2.59,.39,0,.78,0,1.2-.02h0c3.46-.15,6.46-1.82,8.94-4.96l8.88-11.25-16.43,5.76Z"/></g><g><path class="d" d="M634.38,547.35l-.53-.24c2.43-5.08,1.69-7.74,.27-11.21-2.1-5.14,1.18-10.36,1.32-10.59l8.2-14.05,.05,1,.83,18.24-.59,.02-.78-17.24-7.22,12.35c-.04,.06-3.26,5.19-1.27,10.05,1.47,3.62,2.24,6.39-.3,11.68Z"/><path class="d" d="M634.35,547.41l-.49-.34,10.21-16.91,.08-.04,17.69-8.26-.55,.86s-6.99,10.95-8.26,12.93c-2.26,3.51-5.22,5.56-8.82,6.08h0c-.42,.07-.82,.11-1.22,.15-2.49,.25-4.65,.47-8.65,5.53Zm10.13-16.8l-8.43,13.97c2.89-2.87,4.85-3.07,6.89-3.29,.4-.04,.79-.08,1.2-.13h0c3.41-.5,6.24-2.46,8.41-5.83,1.05-1.64,6.05-9.47,7.71-12.07l-15.78,7.36Z"/></g><g><path class="d" d="M648.3,522.95l-.55-.2c1.91-5.3,.91-7.87-.83-11.18-2.6-4.9,.14-10.42,.25-10.66l6.77-14.79,.14,.99,2.65,18.07-.57,.08-2.5-17.08-5.96,12.99c-.03,.06-2.72,5.51-.27,10.14,1.82,3.44,2.87,6.11,.88,11.65Z"/><path class="d" d="M648.27,523.01l-.51-.29,8.48-17.84,.07-.05,16.78-9.97-.45,.9s-5.87,11.59-6.93,13.68c-1.87,3.72-4.62,6.06-8.16,6.94h0c-.41,.1-.8,.18-1.2,.26-2.46,.5-4.59,.94-8.07,6.36Zm8.42-17.72l-6.99,14.73c2.59-3.15,4.51-3.53,6.54-3.95,.38-.07,.77-.15,1.17-.25h0c3.37-.84,6-3.07,7.78-6.64,.89-1.73,5.08-10.02,6.48-12.79l-14.97,8.9Z"/></g><g><path class="d" d="M659.74,497.28l-.57-.14c1.36-5.46,.11-7.91-1.95-11.03-3.07-4.62-.9-10.39-.8-10.63l5.26-15.39,.24,.96,4.44,17.71-.57,.14-4.19-16.76-4.63,13.53c-.02,.07-2.16,5.74,.74,10.11,2.16,3.26,3.46,5.81,2.04,11.5Z"/><path class="d" d="M659.72,497.34l-.54-.23,6.65-18.59,.07-.05,15.71-11.6-.37,.94s-4.69,12.12-5.53,14.3c-1.51,3.89-4,6.49-7.43,7.73h0c-.4,.14-.78,.25-1.16,.38-2.4,.74-4.48,1.38-7.4,7.14Zm6.6-18.46l-5.49,15.34c2.27-3.4,4.15-3.97,6.12-4.58,.38-.11,.75-.23,1.13-.37,3.27-1.18,5.65-3.66,7.09-7.38,.69-1.81,4.04-10.47,5.16-13.37l-14.01,10.35Z"/></g><g><path class="d" d="M668.55,470.6l-.57-.08c.82-5.58-.66-7.89-3.03-10.79-3.52-4.29-1.93-10.25-1.86-10.51l3.71-15.83,.34,.93,6.18,17.18-.55,.2-5.84-16.26-3.26,13.93c-.02,.06-1.58,5.92,1.74,9.99,2.47,3.01,4.03,5.43,3.16,11.24Z"/><path class="d" d="M668.54,470.66l-.56-.17,4.77-19.16,.07-.06,14.47-13.11-.26,.98-4.08,14.78c-1.11,4.02-3.34,6.85-6.64,8.42h0c-.38,.18-.75,.34-1.12,.5-2.31,.98-4.31,1.82-6.65,7.83Zm4.74-19.03l-3.94,15.82c1.91-3.6,3.73-4.37,5.62-5.17,.36-.14,.72-.31,1.1-.48h0c3.13-1.49,5.25-4.19,6.31-8.05l3.82-13.8-12.91,11.69Z"/></g><g><path class="d" d="M674.69,443.17l-.59-.02c.26-5.63-1.46-7.79-4.1-10.44-3.92-3.92-2.93-10.01-2.88-10.26l2.11-16.12,8.29,17.39-.53,.24-7.43-15.6-1.85,14.18c-.02,.07-.99,6.06,2.71,9.76,2.76,2.76,4.55,5.01,4.29,10.87Z"/><path class="d" d="M674.68,443.24l-.58-.12,2.84-19.56,.06-.06,13.09-14.48-.17,1s-2.19,12.81-2.59,15.12c-.7,4.11-2.65,7.15-5.75,9.03h0c-.36,.21-.71,.41-1.07,.6-2.21,1.21-4.11,2.25-5.83,8.47Zm2.81-19.41l-2.33,16.13c1.54-3.78,3.27-4.72,5.08-5.71,.34-.18,.68-.38,1.04-.59h0c2.96-1.78,4.8-4.68,5.49-8.62,.33-1.91,1.89-11.07,2.41-14.12l-11.69,12.91Z"/></g><g><path class="d" d="M677.46,415.31c-.3-5.63-2.22-7.6-5.11-9.98-4.3-3.51-3.92-9.66-3.9-9.93l.5-16.26,.52,.84,9.46,15.62-.51,.31-8.94-14.77-.44,14.29c-.01,.07-.38,6.12,3.67,9.45,3.02,2.46,5.02,4.52,5.33,10.38l-.59,.04Z"/><path class="d" d="M678.04,415.34l-.58-.06,.89-19.74,.05-.07,11.59-15.71-.07,1.01s-.92,12.97-1.08,15.3c-.3,4.16-1.91,7.38-4.84,9.56h0c-.34,.25-.67,.48-1,.7-2.08,1.43-3.87,2.66-4.97,9.01Zm.88-19.6l-.72,16.29c1.16-3.9,2.79-5.02,4.49-6.18,.32-.22,.64-.45,.98-.69h0c2.77-2.08,4.32-5.15,4.59-9.13,.14-1.93,.79-11.2,1.01-14.29l-10.34,14.01Z"/></g><g><path class="d" d="M678.04,387.27c-.86-5.57-2.96-7.34-6.09-9.41-4.62-3.07-4.86-9.24-4.87-9.5l-1.11-16.23,.59,.79,10.96,14.61-.47,.35-10.37-13.81,.99,14.26c0,.07,.23,6.14,4.6,9.04,3.25,2.16,5.45,4,6.33,9.81l-.57,.08Z"/><path class="d" d="M678.62,387.24h-.59l-1.08-19.73,.04-.08,9.98-16.78,.03,1.01s.39,12.99,.45,15.33c.12,4.16-1.17,7.53-3.86,10-.31,.29-.62,.55-.93,.8-1.92,1.62-3.58,3.02-4.04,9.45Zm-1.08-19.59l.9,16.28c.76-3.99,2.27-5.26,3.85-6.59,.31-.25,.61-.51,.92-.78h0c2.54-2.35,3.78-5.56,3.65-9.55-.05-1.94-.33-11.23-.42-14.32l-8.9,14.96Z"/></g><g><path class="d" d="M675.82,359.31c-1.4-5.46-3.67-7.01-6.98-8.76-4.91-2.6-5.75-8.69-5.79-8.95l-2.73-16.04,13.03,14.18-.43,.39-11.69-12.71,2.39,14.1c.01,.07,.86,6.08,5.48,8.53,3.45,1.82,5.82,3.44,7.29,9.13l-.57,.14Z"/><path class="d" d="M675.82,359.28l-3.05-19.51,.04-.08,8.26-17.68,.13,1s1.68,12.89,1.97,15.2c.54,4.14-.42,7.61-2.85,10.33h0c-.27,.32-.56,.61-.83,.9-1.75,1.8-3.27,3.36-3.08,9.8l-.58,.05Zm-2.44-19.43l2.51,16.12c.37-4.06,1.73-5.48,3.17-6.95,.27-.29,.56-.57,.82-.88h.01c2.31-2.59,3.22-5.9,2.69-9.86-.24-1.92-1.44-11.13-1.84-14.2l-7.36,15.77Z"/></g><g><path class="d" d="M670.83,331.73c-1.92-5.29-4.35-6.62-7.83-8.03-5.14-2.1-6.58-8.09-6.64-8.35l-4.33-15.67,.74,.65,13.64,12.13-.39,.45-12.9-11.48,3.8,13.77c.01,.07,1.44,5.97,6.29,7.94,3.62,1.49,6.15,2.86,8.15,8.38l-.55,.2Z"/><path class="d" d="M670.82,331.69l-4.97-19.12,.03-.09,6.45-18.41,.22,.98s2.95,12.65,3.48,14.93c.95,4.07,.34,7.62-1.8,10.57h0c-.24,.35-.5,.66-.75,.98-1.56,1.96-2.91,3.66-2.09,10.06l-.58,.11Zm-4.36-19.1l4.1,15.79c-.04-4.08,1.18-5.62,2.46-7.23,.24-.31,.5-.62,.74-.96h0c2.04-2.8,2.61-6.19,1.7-10.08-.44-1.89-2.54-10.94-3.26-13.96l-5.75,16.43Z"/></g><g><path class="d" d="M663.12,304.76c-2.45-5.07-4.99-6.15-8.58-7.21-5.32-1.58-7.36-7.39-7.44-7.64l-5.85-15.18,.8,.59,14.77,10.73-.35,.47-13.97-10.14,5.14,13.34c.02,.06,2.03,5.78,7.05,7.27,3.75,1.11,6.38,2.23,8.95,7.51l-.53,.26Z"/><path class="d" d="M663.11,304.73l-6.84-18.53,.02-.09,4.58-18.96,.33,.96s4.19,12.3,4.95,14.52c1.34,3.94,1.1,7.54-.73,10.69h0c-.21,.36-.44,.7-.65,1.04-1.36,2.12-2.54,3.94-1.09,10.21l-.56,.17Zm-6.23-18.57l5.64,15.29c-.44-4.04,.63-5.69,1.74-7.42,.21-.33,.44-.66,.64-1.03h0c1.75-2.98,1.97-6.42,.69-10.2-.63-1.84-3.62-10.63-4.62-13.56l-4.09,16.92Z"/></g><g><path class="d" d="M652.77,278.7c-2.94-4.8-5.58-5.62-9.25-6.32-5.46-1.03-8.06-6.63-8.16-6.86l-7.34-14.52,.87,.5,15.77,9.2-.31,.51-14.9-8.7,6.44,12.76c.03,.07,2.6,5.57,7.74,6.55,3.84,.72,6.58,1.58,9.66,6.59l-.51,.31Z"/><path class="d" d="M652.76,278.68l-8.66-17.76v-.09l2.7-19.33,.42,.92s5.4,11.82,6.36,13.95c1.73,3.81,1.84,7.41,.33,10.71h0c-.17,.39-.36,.74-.54,1.1-1.14,2.24-2.13,4.17-.06,10.29l-.54,.22Zm-8.05-17.87l7.15,14.67c-.84-3.99,.05-5.75,.99-7.58,.17-.36,.36-.7,.53-1.08h0c1.44-3.14,1.33-6.58-.33-10.22-.8-1.77-4.66-10.21-5.94-13.03l-2.39,17.24Z"/></g><g><path class="d" d="M639.88,253.79c-3.42-4.49-6.12-5.04-9.84-5.35-5.53-.49-8.67-5.79-8.81-6.03l-8.74-13.71,.91,.42,16.6,7.58-.24,.53-15.7-7.17,7.68,12.05c.04,.06,3.14,5.27,8.36,5.73,3.88,.34,6.7,.92,10.26,5.6l-.47,.35Z"/><path class="d" d="M639.86,253.77l-10.37-16.81v-.09l.73-19.5,.51,.87s6.56,11.24,7.73,13.26c2.1,3.58,2.58,7.16,1.39,10.61h0c-.13,.4-.29,.77-.43,1.15-.93,2.34-1.72,4.37,.96,10.24l-.52,.27Zm-9.78-16.97l8.56,13.87c-1.24-3.89-.52-5.72,.23-7.64,.14-.36,.3-.72,.43-1.11,1.11-3.29,.66-6.7-1.35-10.13-.97-1.69-5.65-9.71-7.22-12.39l-.65,17.4Z"/></g><g><path class="d" d="M624.57,230.3c-3.63-3.91-6.3-4.37-9.77-4.37-.21,0-.48,.03-.67,.01-5.49,0-9.09-4.9-9.24-5.11l-10.07-12.78,.94,.33,17.28,5.89-.18,.55-16.35-5.57,8.85,11.22c.04,.06,3.59,4.88,8.77,4.88h.68c3.62,0,6.39,.47,10.19,4.54l-.43,.41Z"/><path class="d" d="M624.55,230.26l-11.99-15.68v-.09l-1.22-19.48,9.6,13.23c2.45,3.36,3.28,6.87,2.44,10.43h0c-.09,.41-.2,.79-.32,1.17-.68,2.42-1.26,4.51,1.97,10.1l-.49,.32Zm-11.42-15.9l9.9,12.96c-1.62-3.76-1.09-5.65-.53-7.63,.1-.37,.21-.75,.31-1.15h0c.79-3.38,.01-6.73-2.34-9.95l-8.42-11.6,1.08,17.38Z"/></g><g><path class="d" d="M607.01,208.44c-4.24-3.72-7.01-3.76-10.72-3.31-.35,.03-.69,.05-1.03,.05-4.99,0-8.63-4.02-8.8-4.2l-11.28-11.71,18.75,4.37-.14,.57-16.82-3.92,9.93,10.29c.04,.05,3.63,4.02,8.38,4.02,.32,0,.62-.02,.95-.06,3.86-.41,6.74-.42,11.17,3.45l-.39,.45Z"/><path class="d" d="M606.99,208.42l-13.51-14.42v-.08l-3.15-19.26,10.86,12.21c2.77,3.11,3.94,6.53,3.47,10.14h0c-.06,.42-.13,.81-.2,1.21-.44,2.47-.81,4.61,2.97,9.83l-.45,.38Zm-12.96-14.69l11.14,11.89c-1.97-3.55-1.63-5.49-1.27-7.51,.06-.39,.13-.78,.18-1.19h0c.45-3.43-.67-6.69-3.33-9.67l-9.52-10.7,2.8,17.18Z"/></g><g><path class="d" d="M587.35,188.44c-4.54-3.26-7.29-3.01-10.98-2.23-5.4,1.18-9.99-2.97-10.18-3.15l-12.4-10.54,.99,.12,18.11,2.36-.08,.59-17.12-2.24,10.89,9.26c.05,.05,4.57,4.09,9.67,3.01,3.8-.81,6.69-1.11,11.45,2.33l-.35,.47Z"/><path class="d" d="M587.33,188.43l-14.87-13.01-.02-.09-5.03-18.84,.74,.68s9.56,8.8,11.28,10.38c3.06,2.81,4.56,6.09,4.46,9.73h0c-.01,.42-.04,.82-.07,1.23-.19,2.5-.36,4.67,3.93,9.5l-.42,.42Zm-14.34-13.34l12.27,10.74c-2.32-3.35-2.18-5.31-2.03-7.37,.03-.39,.06-.78,.07-1.2h0c.1-3.46-1.33-6.59-4.27-9.28-1.44-1.31-8.27-7.6-10.55-9.7l4.5,16.82Z"/></g><g><path class="d" d="M565.81,170.49c-4.91-2.81-7.6-2.26-11.16-1.12-.99,.33-1.96,.45-2.9,.45-4.07,0-7.38-2.44-7.54-2.58l-13.39-9.24,19.25,.57-.02,.59-17.25-.51,11.75,8.11c.06,.05,4.96,3.61,9.93,2.06,3.59-1.16,6.53-1.77,11.63,1.16l-.29,.51Z"/><path class="d" d="M565.78,170.47l-16.08-11.45-6.92-18.35,.8,.61s10.39,7.81,12.26,9.21c3.34,2.5,5.16,5.62,5.42,9.25h0c.03,.42,.04,.82,.05,1.23,.06,2.5,.11,4.67,4.86,9.05l-.38,.45Zm-15.6-11.82l13.28,9.46c-2.66-3.1-2.71-5.07-2.76-7.13-.01-.39-.02-.79-.05-1.2-.23-3.46-1.99-6.43-5.17-8.83-1.55-1.17-8.98-6.75-11.45-8.6l6.15,16.3Z"/></g><g><path class="d" d="M527.47,155.57c-3.59,0-6.55-1.77-6.71-1.86l-14.24-7.88,.99-.07,18.22-1.27,.04,.59-17.23,1.2,12.52,6.92c.07,.03,5.25,3.1,10.08,1.05,3.57-1.57,6.32-2.4,11.69,0l-.24,.53c-5.12-2.28-7.77-1.49-11.21,0-1.32,.58-2.65,.79-3.9,.79Z"/><path class="d" d="M542.56,154.76l-17.15-9.79-.04-.08-8.67-17.49,.87,.52s11.12,6.73,13.11,7.94c3.56,2.16,5.69,5.08,6.3,8.67h0c.07,.42,.12,.81,.17,1.21,.31,2.49,.58,4.65,5.73,8.53l-.32,.49Zm-16.7-10.22l14.15,8.08c-2.95-2.81-3.19-4.76-3.44-6.81-.05-.39-.1-.78-.16-1.18h0c-.59-3.42-2.62-6.21-6.04-8.27-1.66-1.01-9.6-5.82-12.25-7.42l7.74,15.6Z"/></g><g><path class="d" d="M501.81,143.79c-3.07,0-5.57-1.17-5.72-1.24l-14.95-6.41,.98-.16,18-3.07,.1,.57-17.02,2.91,13.13,5.64c.08,.03,5.57,2.61,10.14,.04,3.42-1.91,6.09-3.01,11.63-1.16l-.18,.55c-5.33-1.78-7.88-.71-11.16,1.12-1.64,.92-3.36,1.22-4.94,1.22Z"/><path class="d" d="M517.87,141.44l-18.04-8.04-.04-.08-10.37-16.53,.91,.44s11.73,5.6,13.84,6.6c3.77,1.8,6.16,4.49,7.14,8h0c.11,.41,.2,.81,.3,1.2,.55,2.45,1.04,4.57,6.55,7.9l-.27,.52Zm-17.63-8.51l14.87,6.64c-3.2-2.49-3.63-4.41-4.09-6.41-.08-.39-.17-.77-.29-1.17h0c-.92-3.35-3.22-5.91-6.81-7.63-1.76-.82-10.14-4.83-12.94-6.16l9.25,14.74Z"/></g><g><path class="d" d="M474.95,134.64c-2.46,0-4.39-.67-4.53-.72l-15.51-4.9,18.56-5.12,.16,.57-16.64,4.59,13.63,4.31c.07,.02,5.78,2.05,10.08-.99,3.22-2.22,5.76-3.58,11.45-2.3l-.12,.57c-5.51-1.22-7.91,.06-10.99,2.22-1.97,1.37-4.18,1.77-6.08,1.77Z"/><path class="d" d="M491.99,130.64l-18.74-6.2-.06-.07-11.97-15.43,15.39,5.54c3.92,1.41,6.58,3.85,7.89,7.25h0c.15,.39,.27,.77,.41,1.15,.79,2.39,1.49,4.45,7.3,7.23l-.21,.54Zm-18.39-6.71l15.47,5.13c-3.44-2.18-4.07-4.05-4.72-6.01-.12-.37-.24-.74-.4-1.13h0c-1.25-3.23-3.79-5.55-7.54-6.9l-13.48-4.85,10.67,13.75Z"/></g><g><path class="d" d="M447.2,128.21c-1.77,0-3.06-.32-3.18-.35l-15.92-3.33,17.97-6.93,.2,.55-16.11,6.22,14,2.92c.06,.02,5.98,1.44,9.95-1.97,2.47-2.13,4.54-3.6,8.56-3.6,.79,0,1.65,.06,2.61,.17l-.08,.59c-.91-.12-1.73-.17-2.48-.17-3.87,0-5.84,1.41-8.21,3.46-2.31,1.97-5.15,2.44-7.29,2.44Z"/><path class="d" d="M465.17,122.47l-19.28-4.32-.06-.06-13.44-14.16,15.86,3.98c4.04,1,6.92,3.17,8.57,6.42h0c.18,.38,.36,.75,.52,1.12,1.04,2.28,1.92,4.27,7.99,6.45l-.16,.56Zm-18.97-4.85l15.91,3.56c-3.64-1.83-4.45-3.62-5.29-5.5-.16-.36-.33-.72-.52-1.09h0c-1.57-3.1-4.32-5.16-8.18-6.12l-13.91-3.49,11.99,12.63Z"/></g><g><path class="d" d="M418.84,124.58c-.96,0-1.59-.08-1.67-.1l-16.18-1.72,17.17-8.69,.26,.53-15.4,7.8,14.21,1.51c.06,.04,6.09,.83,9.69-2.94,2.6-2.73,4.73-4.54,10.15-4.54,.2,0,.41,.01,.63,.01l-.02,.59c-.2-.01-.41-.01-.6-.01-5.19,0-7.25,1.74-9.73,4.36-2.65,2.77-6.38,3.22-8.52,3.22Z"/><path class="d" d="M437.68,117.02l-19.62-2.38-.07-.06-14.78-12.74,1,.15s12.86,1.89,15.17,2.23c4.12,.59,7.21,2.45,9.17,5.54h0c.23,.35,.43,.7,.63,1.05,1.26,2.18,2.34,4.06,8.6,5.64l-.1,.58Zm-19.37-2.95l16.2,1.97c-3.82-1.46-4.79-3.17-5.83-4.95-.19-.35-.39-.68-.61-1.04-1.87-2.92-4.81-4.69-8.76-5.26-1.92-.29-11.11-1.64-14.17-2.09l13.18,11.36Z"/></g></g></g><g><rect class="d" x="894.32" y="724.92" width="378" height="34.99"/><g><path class="d" d="M894.38,107.27c0-43.19,19.63-67.14,53-67.14,13.35,0,26.11,3.93,37.49,11.19l-9.03,20.02c-7.26-4.91-15.7-8.44-25.13-8.44-20.42,0-30.82,15.9-30.82,44.37s10.4,44.36,31.21,44.36c9.82,0,18.26-3.53,25.52-8.44l9.03,20.02c-11.39,7.26-24.15,11.19-37.89,11.19-33.76,0-53.39-23.95-53.39-67.13Z"/><path class="d" d="M997.44,122.97c0-32.98,15.31-51.43,42.99-51.43s42.99,18.45,42.99,51.43-15.31,51.43-42.99,51.43-42.99-18.45-42.99-51.43Zm62.42,0c0-20.02-6.87-31.02-19.43-31.02s-19.43,10.99-19.43,31.02,6.87,31.02,19.43,31.02,19.43-10.99,19.43-31.02Z"/><path class="d" d="M1102.65,149.28V38.17h23.16v107.38c0,4.71,2.55,7.26,7.07,7.26,1.77,0,3.73-.39,5.89-1.18v20.02c-3.53,1.18-7.46,1.96-12.37,1.96-14.92,0-23.75-8.64-23.75-24.34Z"/><path class="d" d="M1152.12,149.28V38.17h23.16v107.38c0,4.71,2.55,7.26,7.07,7.26,1.77,0,3.73-.39,5.89-1.18v20.02c-3.53,1.18-7.46,1.96-12.37,1.96-14.92,0-23.75-8.64-23.75-24.34Z"/><path class="d" d="M1279.91,132.59h-58.11c2.16,14.13,9.81,21.79,23.16,21.79,9.23,0,17.28-3.53,23.75-8.05l8.05,18.45c-9.82,6.08-21.2,9.62-34.16,9.62-29.05,0-44.56-18.26-44.56-51.23s15.7-51.63,42.21-51.63,40.63,18.26,40.63,51.04c0,3.34-.2,6.48-.98,10.01Zm-58.11-18.06h36.32c-1.18-15.12-6.48-23.36-16.69-23.36s-17.67,8.24-19.63,23.36Z"/><path class="d" d="M1299.34,197.37l8.44-18.26c7.07,5.3,15.51,8.25,24.34,8.25,14.13,0,22.18-7.46,22.18-21v-7.26h-.79c-5.5,8.24-14.72,12.96-25.91,12.96-21.2,0-32.98-16.88-32.98-47.11,0-31.8,12.76-53.39,34.16-53.39,10.21,0,19.04,4.91,25.52,13.54h.79v-11.19h22.38v95.6c0,24.54-15.12,38.28-41.62,38.28-13.74,0-25.91-3.73-36.51-10.4Zm54.96-56.34v-38.87c-4.91-6.67-11.78-10.21-17.86-10.21-11.78,0-18.26,13.35-18.26,31.8s6.67,27.48,17.67,27.48c6.67,0,13.54-3.53,18.45-10.21Z"/><path class="d" d="M1478.56,132.59h-58.11c2.16,14.13,9.81,21.79,23.16,21.79,9.23,0,17.28-3.53,23.75-8.05l8.05,18.45c-9.82,6.08-21.2,9.62-34.16,9.62-29.05,0-44.56-18.26-44.56-51.23s15.7-51.63,42.21-51.63,40.63,18.26,40.63,51.04c0,3.34-.2,6.48-.98,10.01Zm-58.11-18.06h36.32c-1.18-15.12-6.48-23.36-16.69-23.36s-17.67,8.24-19.63,23.36Z"/><path class="d" d="M1532.54,122.97c0-32.98,15.31-51.43,42.99-51.43s42.99,18.45,42.99,51.43-15.31,51.43-42.99,51.43-42.99-18.45-42.99-51.43Zm62.42,0c0-20.02-6.87-31.02-19.43-31.02s-19.43,10.99-19.43,31.02,6.87,31.02,19.43,31.02,19.43-10.99,19.43-31.02Z"/><path class="d" d="M1644.04,93.53h-14.13v-19.63h14.13v-9.62c0-18.84,12.76-27.68,30.23-27.68,4.51,0,9.23,.59,14.13,1.96v20.02c-2.55-.79-4.91-1.18-7.26-1.18-7.07,0-13.94,3.53-13.94,12.96v3.53h21.2v19.63h-21.2v78.52h-23.16V93.53Z"/><path class="d" d="M890.85,335.15l9.03-20.42c9.03,6.09,20.61,10.21,32,10.21,14.13,0,20.02-6.28,20.02-12.96,0-7.26-6.87-13.35-25.91-21.99-23.16-10.4-31.41-23.95-31.41-41.22,0-22.18,13.54-35.33,39.26-35.33,15.12,0,28.86,4.52,39.85,12.56l-9.03,20.42c-8.24-6.08-18.84-10.6-29.45-10.6-11.19,0-15.9,5.1-15.9,11.19,0,6.87,6.08,12.37,23.36,20.22,27.29,12.56,34.35,26.11,34.35,42.6,0,23.95-15.12,37.89-44.56,37.89-16.88,0-30.62-4.51-41.62-12.56Z"/><path class="d" d="M991.55,296.28c0-32.98,15.31-51.43,42.99-51.43s42.99,18.45,42.99,51.43-15.31,51.43-42.99,51.43-42.99-18.45-42.99-51.43Zm62.42,0c0-20.02-6.87-31.02-19.43-31.02s-19.43,10.99-19.43,31.02,6.87,31.02,19.43,31.02,19.43-10.99,19.43-31.02Z"/><path class="d" d="M1093.23,296.28c0-32.98,15.31-51.43,42.01-51.43,11.78,0,22.97,3.53,32.78,9.62l-8.05,18.06c-6.28-4.12-13.15-7.26-21-7.26-14.53,0-22.18,10.6-22.18,31.02s7.66,31.02,22.18,31.02c7.85,0,14.72-3.14,21-7.26l8.05,18.06c-9.82,6.08-21,9.62-32.78,9.62-26.7,0-42.01-18.45-42.01-51.43Z"/><path class="d" d="M1182.54,224.63c0-8.44,6.08-14.72,14.33-14.72s14.33,6.28,14.33,14.72-6.08,14.72-14.33,14.72-14.33-6.28-14.33-14.72Zm2.75,22.57h23.16v98.15h-23.16v-98.15Z"/><path class="d" d="M1308.96,341.43v.39l-23.16,5.3c-2.16-3.73-3.34-7.66-3.53-12.96h-.79c-5.89,8.83-14.72,13.54-25.72,13.54-17.67,0-28.46-12.17-28.46-30.62,0-21,13.94-33.96,36.71-33.96,6.28,0,11.97,.98,17.47,2.75v-3.93c0-10.99-6.48-16.69-18.45-16.69-8.64,0-17.08,2.95-24.15,8.25l-8.44-18.26c10.6-6.67,22.77-10.4,36.32-10.4,24.93,0,37.89,12.76,37.89,35.53v45.74c0,5.69,1.57,10.99,4.32,15.31Zm-27.48-23.16v-14.33c-4.32-1.57-9.03-2.36-13.74-2.36-11.19,0-17.47,4.91-17.47,13.94,0,7.66,4.52,12.17,12.56,12.17,6.67,0,13.35-3.14,18.65-9.42Z"/><path class="d" d="M1327.02,322.59v-111.11h23.16v107.38c0,4.71,2.55,7.26,7.07,7.26,1.77,0,3.73-.39,5.89-1.18v20.02c-3.53,1.18-7.46,1.96-12.37,1.96-14.92,0-23.75-8.64-23.75-24.34Z"/><path class="d" d="M1413,280.58c0-43.19,19.63-67.14,53-67.14,13.35,0,26.11,3.93,37.49,11.19l-9.03,20.02c-7.26-4.91-15.7-8.44-25.13-8.44-20.42,0-30.82,15.9-30.82,44.37s10.4,44.36,31.21,44.36c9.82,0,18.26-3.53,25.52-8.44l9.03,20.02c-11.39,7.26-24.15,11.19-37.89,11.19-33.76,0-53.39-23.95-53.39-67.13Z"/><path class="d" d="M1516.05,296.28c0-32.98,15.31-51.43,42.99-51.43s42.99,18.45,42.99,51.43-15.31,51.43-42.99,51.43-42.99-18.45-42.99-51.43Zm62.42,0c0-20.02-6.87-31.02-19.43-31.02s-19.43,10.99-19.43,31.02,6.87,31.02,19.43,31.02,19.43-10.99,19.43-31.02Z"/><path class="d" d="M1750.44,276.06v69.29h-23.16v-64.19c0-10.8-5.3-15.51-12.76-15.51-6.28,0-12.56,3.34-17.08,9.42v70.28h-23.16v-64.19c0-10.8-5.3-15.51-12.76-15.51-6.28,0-12.56,3.34-17.08,9.42v70.28h-23.16v-98.15h22.38v10.6h.79c5.89-8.64,14.33-12.96,25.32-12.96,11.97,0,20.42,5.1,24.54,14.53h.59c5.89-9.42,15.9-14.53,27.88-14.53,17.86,0,27.68,11.19,27.68,31.21Z"/><path class="d" d="M1901.59,276.06v69.29h-23.16v-64.19c0-10.8-5.3-15.51-12.76-15.51-6.28,0-12.56,3.34-17.08,9.42v70.28h-23.16v-64.19c0-10.8-5.3-15.51-12.76-15.51-6.28,0-12.56,3.34-17.08,9.42v70.28h-23.16v-98.15h22.38v10.6h.79c5.89-8.64,14.33-12.96,25.32-12.96,11.97,0,20.42,5.1,24.54,14.53h.59c5.89-9.42,15.9-14.53,27.88-14.53,17.86,0,27.68,11.19,27.68,31.21Z"/><path class="d" d="M1922.78,315.72v-68.51h23.16v63.41c0,11.39,5.1,16.29,12.96,16.29,6.67,0,13.35-3.53,18.06-10.01v-69.69h23.16v78.92c0,5.69,1.57,10.99,4.32,15.31v.39l-23.16,5.3c-2.16-3.73-3.34-7.66-3.53-12.17h-.79c-6.48,8.25-15.12,12.76-26.3,12.76-17.67,0-27.88-11.38-27.88-32Z"/><path class="d" d="M2023.68,247.21h22.38v10.6h.79c6.48-8.44,15.12-12.96,26.5-12.96,18.26,0,28.46,11.58,28.46,32.39v68.12h-23.16v-63.01c0-11.58-5.3-16.69-13.35-16.69-6.67,0-13.54,3.53-18.45,10.21v69.49h-23.16v-98.15Z"/><path class="d" d="M2121.44,224.63c0-8.44,6.08-14.72,14.33-14.72s14.33,6.28,14.33,14.72-6.08,14.72-14.33,14.72-14.33-6.28-14.33-14.72Zm2.75,22.57h23.16v98.15h-23.16v-98.15Z"/><path class="d" d="M2166.98,296.28c0-32.98,15.31-51.43,42.01-51.43,11.78,0,22.97,3.53,32.78,9.62l-8.05,18.06c-6.28-4.12-13.15-7.26-21-7.26-14.53,0-22.18,10.6-22.18,31.02s7.66,31.02,22.18,31.02c7.85,0,14.72-3.14,21-7.26l8.05,18.06c-9.82,6.08-21,9.62-32.78,9.62-26.7,0-42.01-18.45-42.01-51.43Z"/><path class="d" d="M2335.99,341.43v.39l-23.16,5.3c-2.16-3.73-3.34-7.66-3.53-12.96h-.79c-5.89,8.83-14.72,13.54-25.72,13.54-17.67,0-28.46-12.17-28.46-30.62,0-21,13.94-33.96,36.71-33.96,6.28,0,11.97,.98,17.47,2.75v-3.93c0-10.99-6.48-16.69-18.45-16.69-8.64,0-17.08,2.95-24.15,8.25l-8.44-18.26c10.6-6.67,22.77-10.4,36.32-10.4,24.93,0,37.89,12.76,37.89,35.53v45.74c0,5.69,1.57,10.99,4.32,15.31Zm-27.48-23.16v-14.33c-4.32-1.57-9.03-2.36-13.74-2.36-11.19,0-17.47,4.91-17.47,13.94,0,7.66,4.52,12.17,12.56,12.17,6.67,0,13.35-3.14,18.65-9.42Z"/><path class="d" d="M2359.94,318.66v-51.82h-14.13v-19.63h14.13v-21.2h23.16v21.2h18.06v19.63h-18.06v45.74c0,9.42,3.93,13.54,10.99,13.54,2.16,0,4.51-.39,7.07-1.18v20.02c-5.1,1.38-10.01,1.96-14.33,1.96-17.28,0-26.89-9.42-26.89-28.27Z"/><path class="d" d="M2415.69,224.63c0-8.44,6.08-14.72,14.33-14.72s14.33,6.28,14.33,14.72-6.08,14.72-14.33,14.72-14.33-6.28-14.33-14.72Zm2.75,22.57h23.16v98.15h-23.16v-98.15Z"/><path class="d" d="M2461.23,296.28c0-32.98,15.31-51.43,42.99-51.43s42.99,18.45,42.99,51.43-15.31,51.43-42.99,51.43-42.99-18.45-42.99-51.43Zm62.42,0c0-20.02-6.87-31.02-19.43-31.02s-19.43,10.99-19.43,31.02,6.87,31.02,19.43,31.02,19.43-10.99,19.43-31.02Z"/><path class="d" d="M2566.44,247.21h22.38v10.6h.79c6.48-8.44,15.12-12.96,26.5-12.96,18.26,0,28.46,11.58,28.46,32.39v68.12h-23.16v-63.01c0-11.58-5.3-16.69-13.35-16.69-6.67,0-13.54,3.53-18.45,10.21v69.49h-23.16v-98.15Z"/><path class="d" d="M892.42,389.11h25.13v129.56h-25.13v-129.56Z"/><path class="d" d="M943.45,420.52h22.38v10.6h.79c6.48-8.44,15.12-12.96,26.5-12.96,18.26,0,28.46,11.58,28.46,32.39v68.12h-23.16v-63.01c0-11.58-5.3-16.69-13.35-16.69-6.67,0-13.54,3.53-18.45,10.21v69.49h-23.16v-98.15Z"/><path class="d" d="M1043.57,420.52h22.38v10.6h.79c6.48-8.44,15.12-12.96,26.5-12.96,18.26,0,28.46,11.58,28.46,32.39v68.12h-23.16v-63.01c0-11.58-5.3-16.69-13.35-16.69-6.67,0-13.54,3.53-18.45,10.21v69.49h-23.16v-98.15Z"/><path class="d" d="M1140.14,469.59c0-32.98,15.31-51.43,42.99-51.43s42.99,18.45,42.99,51.43-15.31,51.43-42.99,51.43-42.99-18.45-42.99-51.43Zm62.42,0c0-20.02-6.87-31.02-19.43-31.02s-19.43,10.99-19.43,31.02,6.87,31.02,19.43,31.02,19.43-10.99,19.43-31.02Z"/><path class="d" d="M1234.56,420.52h24.34l17.28,66.55h.98l17.27-66.55h23.95l-28.66,98.15h-26.5l-28.66-98.15Z"/><path class="d" d="M1409.66,514.74v.39l-23.16,5.3c-2.16-3.73-3.34-7.66-3.53-12.96h-.79c-5.89,8.83-14.72,13.54-25.72,13.54-17.67,0-28.46-12.17-28.46-30.62,0-21,13.94-33.96,36.71-33.96,6.28,0,11.97,.98,17.47,2.75v-3.93c0-10.99-6.48-16.69-18.45-16.69-8.64,0-17.08,2.95-24.15,8.25l-8.44-18.26c10.6-6.67,22.77-10.4,36.32-10.4,24.93,0,37.89,12.76,37.89,35.53v45.74c0,5.69,1.57,10.99,4.32,15.31Zm-27.48-23.16v-14.33c-4.32-1.57-9.03-2.36-13.74-2.36-11.19,0-17.47,4.91-17.47,13.94,0,7.66,4.52,12.17,12.56,12.17,6.67,0,13.35-3.14,18.65-9.42Z"/><path class="d" d="M1433.61,491.97v-51.83h-14.13v-19.63h14.13v-21.2h23.16v21.2h18.06v19.63h-18.06v45.74c0,9.42,3.93,13.54,10.99,13.54,2.16,0,4.51-.39,7.07-1.18v20.02c-5.1,1.37-10.01,1.96-14.33,1.96-17.28,0-26.89-9.42-26.89-28.27Z"/><path class="d" d="M1489.36,397.94c0-8.44,6.08-14.72,14.33-14.72s14.33,6.28,14.33,14.72-6.08,14.72-14.33,14.72-14.33-6.28-14.33-14.72Zm2.75,22.58h23.16v98.15h-23.16v-98.15Z"/><path class="d" d="M1534.9,469.59c0-32.98,15.31-51.43,42.99-51.43s42.99,18.45,42.99,51.43-15.31,51.43-42.99,51.43-42.99-18.45-42.99-51.43Zm62.42,0c0-20.02-6.87-31.02-19.43-31.02s-19.43,10.99-19.43,31.02,6.87,31.02,19.43,31.02,19.43-10.99,19.43-31.02Z"/><path class="d" d="M1640.11,420.52h22.38v10.6h.79c6.48-8.44,15.12-12.96,26.5-12.96,18.26,0,28.46,11.58,28.46,32.39v68.12h-23.16v-63.01c0-11.58-5.3-16.69-13.35-16.69-6.67,0-13.54,3.53-18.45,10.21v69.49h-23.16v-98.15Z"/></g><g><path class="d" d="M890.59,650.83l4.8-10.86c4.8,3.24,10.96,5.43,17.02,5.43,7.52,0,10.65-3.34,10.65-6.89,0-3.86-3.65-7.1-13.78-11.69-12.32-5.53-16.7-12.74-16.7-21.92,0-11.8,7.2-18.79,20.88-18.79,8.04,0,15.35,2.4,21.19,6.68l-4.8,10.86c-4.38-3.24-10.02-5.64-15.66-5.64-5.95,0-8.46,2.71-8.46,5.95,0,3.65,3.24,6.58,12.42,10.75,14.51,6.68,18.27,13.88,18.27,22.65,0,12.74-8.04,20.15-23.7,20.15-8.98,0-16.29-2.4-22.13-6.68Z"/><path class="d" d="M998.23,647.6v.21l-7.83,10.54c-12.11-4.7-19.42-13.68-22.03-27.46h-6.47v25.37h-13.36v-68.9h21.92c15.03,0,23.39,7.83,23.39,21.92,0,10.34-4.59,17.02-13.16,19.73,1.57,9.29,7.31,15.35,17.54,18.58Zm-29.44-27.88c7.41,0,11.48-3.76,11.48-10.44s-4.07-10.44-11.48-10.44h-7.1v20.88h7.1Z"/><path class="d" d="M1007.63,587.35h13.36v68.9h-13.36v-68.9Z"/><path class="d" d="M1037.28,587.35h14.72l19.31,44.37h.42l-.42-20.88v-23.49h12.53v68.9h-14.72l-19.31-44.37h-.42l.42,20.88v23.49h-12.53v-68.9Z"/><path class="d" d="M1146.69,656.05v.21h-13.99l-2.92-11.69h-18.79l-2.92,11.69h-13.99v-.21l18.38-68.7h15.87l18.37,68.7Zm-19.63-22.55l-2.61-10.44-3.86-18.79h-.42l-3.86,18.79-2.61,10.44h13.36Z"/><path class="d" d="M1156.92,587.46h13.47v20.36l-.42,8.98h.42l19.52-29.44h14.72v.21l-22.45,33.2v.42l24.12,34.87v.21h-15.45l-20.46-30.07h-.42l.42,8.98v21.09h-13.47v-68.8Z"/><path class="d" d="M1215.7,587.35h13.36v28.08h21.09v-28.08h13.36v68.9h-13.36v-29.13h-21.09v29.13h-13.36v-68.9Z"/><path class="d" d="M1326.37,656.05v.21h-13.99l-2.92-11.69h-18.79l-2.92,11.69h-13.99v-.21l18.37-68.7h15.87l18.37,68.7Zm-19.63-22.55l-2.61-10.44-3.86-18.79h-.42l-3.86,18.79-2.61,10.44h13.36Z"/><path class="d" d="M1386.3,647.6v.21l-7.83,10.54c-12.11-4.7-19.42-13.68-22.03-27.46h-6.47v25.37h-13.36v-68.9h21.92c15.03,0,23.39,7.83,23.39,21.92,0,10.34-4.59,17.02-13.16,19.73,1.57,9.29,7.31,15.35,17.54,18.58Zm-29.44-27.88c7.41,0,11.48-3.76,11.48-10.44s-4.07-10.44-11.48-10.44h-7.1v20.88h7.1Z"/><path class="d" d="M1395.69,587.35h13.36v68.9h-13.36v-68.9Z"/><path class="d" d="M1425.34,587.35h14.72l19.31,44.37h.42l-.42-20.88v-23.49h12.53v68.9h-14.72l-19.31-44.37h-.42l.42,20.88v23.49h-12.53v-68.9Z"/><path class="d" d="M1481.93,587.56v-.21h13.99l5.01,26.83,3.24,19h.42l3.34-19,5.43-26.83h13.57l5.43,26.83,3.45,19h.42l3.24-19,5.01-26.83h13.99v.21l-14.41,68.7h-15.87l-4.49-21.82-3.34-18.58h-.42l-3.24,18.58-4.49,21.82h-15.87l-14.41-68.7Z"/><path class="d" d="M1568.69,587.35h13.36v68.9h-13.36v-68.9Z"/><path class="d" d="M1648.03,647.6v.21l-7.83,10.54c-12.11-4.7-19.42-13.68-22.03-27.46h-6.47v25.37h-13.36v-68.9h21.92c15.03,0,23.39,7.83,23.39,21.92,0,10.34-4.59,17.02-13.16,19.73,1.57,9.29,7.31,15.35,17.54,18.58Zm-29.44-27.88c7.41,0,11.48-3.76,11.48-10.44s-4.07-10.44-11.48-10.44h-7.1v20.88h7.1Z"/><path class="d" d="M1653.88,621.81c0-22.97,9.71-35.71,27.25-35.71s27.25,12.74,27.25,35.71-9.71,35.71-27.25,35.71-27.25-12.74-27.25-35.71Zm40.92,0c0-15.14-4.91-23.6-13.68-23.6s-13.68,8.46-13.68,23.6,4.91,23.59,13.68,23.59,13.68-8.46,13.68-23.59Z"/><path class="d" d="M1759.53,599.05h-16.29v57.21h-13.57v-57.21h-16.29v-11.69h46.15v11.69Z"/><path class="d" d="M1791.48,633.92v-46.56h13.36v44.89c0,8.35,3.86,13.05,10.75,13.05s10.75-4.7,10.75-13.05v-44.89h13.36v46.56c0,15.14-8.56,23.49-24.01,23.49s-24.22-8.35-24.22-23.49Z"/><path class="d" d="M1855.37,587.35h14.72l19.31,44.37h.42l-.42-20.88v-23.49h12.53v68.9h-14.72l-19.31-44.37h-.42l.42,20.88v23.49h-12.53v-68.9Z"/><path class="d" d="M1918.23,587.35h13.36v68.9h-13.36v-68.9Z"/><path class="d" d="M1941.82,587.56v-.21h13.99l8.25,33.2,3.86,18.79h.42l3.86-18.79,8.25-33.2h13.99v.21l-18.37,68.7h-15.87l-18.37-68.7Z"/><path class="d" d="M2004.46,587.35h39.46v11.69h-25.89v16.5h23.39v11.48h-23.39v17.54h26.73v11.69h-40.3v-68.9Z"/><path class="d" d="M2107.4,647.6v.21l-7.83,10.54c-12.11-4.7-19.42-13.68-22.03-27.46h-6.47v25.37h-13.36v-68.9h21.92c15.03,0,23.39,7.83,23.39,21.92,0,10.34-4.59,17.02-13.16,19.73,1.57,9.29,7.31,15.35,17.54,18.58Zm-29.44-27.88c7.41,0,11.48-3.76,11.48-10.44s-4.07-10.44-11.48-10.44h-7.1v20.88h7.1Z"/><path class="d" d="M2111.79,650.83l4.8-10.86c4.8,3.24,10.96,5.43,17.02,5.43,7.52,0,10.65-3.34,10.65-6.89,0-3.86-3.65-7.1-13.78-11.69-12.32-5.53-16.7-12.74-16.7-21.92,0-11.8,7.2-18.79,20.88-18.79,8.04,0,15.35,2.4,21.19,6.68l-4.8,10.86c-4.38-3.24-10.02-5.64-15.66-5.64-5.95,0-8.46,2.71-8.46,5.95,0,3.65,3.24,6.58,12.42,10.75,14.51,6.68,18.27,13.88,18.27,22.65,0,12.74-8.04,20.15-23.7,20.15-8.98,0-16.29-2.4-22.13-6.68Z"/><path class="d" d="M2169.94,587.35h13.36v68.9h-13.36v-68.9Z"/><path class="d" d="M2240.1,599.05h-16.29v57.21h-13.57v-57.21h-16.29v-11.69h46.15v11.69Z"/><path class="d" d="M2264.63,628.8l-19.31-41.24v-.21h14.2l7,16.29,4.59,12.11h.42l4.59-12.11,7-16.29h14.2v.21l-19.31,41.24v27.46h-13.36v-27.46Z"/></g></g></g></g></svg>