<svg width="38" height="38" viewBox="0 0 38 38" fill="none" xmlns="http://www.w3.org/2000/svg">
<path d="M18.995 13.0807C15.598 13.0807 12.8258 15.853 12.8258 19.25C12.8258 22.647 15.598 25.4193 18.995 25.4193C22.392 25.4193 25.1642 22.647 25.1642 19.25C25.1642 15.853 22.392 13.0807 18.995 13.0807ZM37.4979 19.25C37.4979 16.6953 37.5211 14.1637 37.3776 11.6136C37.2341 8.65159 36.5584 6.02281 34.3925 3.85685C32.222 1.68626 29.5979 1.01518 26.6359 0.871708C24.0812 0.728236 21.5497 0.751377 18.9997 0.751377C16.445 0.751377 13.9134 0.728236 11.3634 0.871708C8.40144 1.01518 5.77271 1.69089 3.60679 3.85685C1.43624 6.02744 0.765175 8.65159 0.621706 11.6136C0.478236 14.1683 0.501377 16.6999 0.501377 19.25C0.501377 21.8001 0.478236 24.3363 0.621706 26.8864C0.765175 29.8484 1.44087 32.4772 3.60679 34.6431C5.77734 36.8137 8.40144 37.4848 11.3634 37.6283C13.9181 37.7718 16.4496 37.7486 18.9997 37.7486C21.5543 37.7486 24.0859 37.7718 26.6359 37.6283C29.5979 37.4848 32.2266 36.8091 34.3925 34.6431C36.5631 32.4726 37.2341 29.8484 37.3776 26.8864C37.5257 24.3363 37.4979 21.8047 37.4979 19.25ZM18.995 28.7423C13.7422 28.7423 9.50292 24.5029 9.50292 19.25C9.50292 13.9971 13.7422 9.75771 18.995 9.75771C24.2479 9.75771 28.4871 13.9971 28.4871 19.25C28.4871 24.5029 24.2479 28.7423 18.995 28.7423ZM28.8759 11.5858C27.6495 11.5858 26.6591 10.5954 26.6591 9.36895C26.6591 8.14249 27.6495 7.15208 28.8759 7.15208C30.1023 7.15208 31.0927 8.14249 31.0927 9.36895C31.0931 9.66017 31.036 9.94861 30.9247 10.2177C30.8134 10.4869 30.6502 10.7314 30.4442 10.9373C30.2383 11.1433 29.9938 11.3065 29.7247 11.4178C29.4555 11.5291 29.1671 11.5862 28.8759 11.5858Z" fill="white"/>
</svg>
