<svg width="514" height="765" viewBox="0 0 514 765" fill="none" xmlns="http://www.w3.org/2000/svg">
<g opacity="0.1">
<path d="M4.29594 333.784C-4.9546 323.873 2.51699 317.855 9.98859 310.775C18.5276 302.988 23.1528 291.66 32.7592 284.581C46.9908 274.315 66.5592 278.563 83.6372 281.395C162.267 294.492 242.675 272.191 317.036 243.873C394.598 214.138 469.67 177.678 544.03 140.864C546.164 139.802 548.299 138.032 549.367 135.554C551.501 130.599 548.299 127.767 545.453 125.289C488.171 78.2095 419.503 37.5016 345.143 39.9795C334.114 40.3335 322.372 41.7495 312.41 35.7318C306.718 32.192 302.804 26.5282 303.16 19.8026C303.871 6.70529 319.17 1.74954 331.623 0.687592C382.145 -3.56018 432.312 12.369 477.497 35.0238C522.682 58.0326 563.598 87.767 607.005 113.962C636.891 132.015 668.556 148.652 685.279 181.572C693.818 198.563 695.596 218.74 687.413 236.085C677.807 256.616 659.306 265.466 639.382 271.837C631.91 274.315 632.977 284.935 640.449 285.997C641.161 285.997 641.516 286.351 642.228 286.351C656.46 288.474 657.527 308.651 643.651 311.837H643.295C631.198 315.023 618.034 314.669 605.937 317.147C573.205 323.873 546.876 350.067 514.499 358.563C487.815 365.642 459.352 360.333 431.956 364.934C404.56 369.182 377.876 383.341 350.124 379.802C333.046 377.678 317.036 368.828 299.602 367.766C277.187 366.704 256.195 379.802 233.781 381.571C196.778 384.403 164.402 357.501 128.111 349.005C92.1761 340.51 54.1066 350.775 18.1718 341.572C13.5465 340.51 8.92122 338.032 5.7191 334.846C5.36331 334.846 4.65173 334.492 4.29594 333.784Z" fill="url(#paint0_radial_556_3528)"/>
<path d="M608.918 680.975C599.819 682.717 590.849 684.13 582.01 685.213C552.064 689.397 521.703 690.753 491.892 685.858C450.781 679.556 411.402 665.946 373.06 649.702C339.885 635.873 306.379 621.914 279.342 598.328C272.766 592.694 266.579 586.072 263.748 577.728C253.414 544.743 305.928 548.308 324.627 550.348C401.136 558.039 474.425 586.527 550.804 594.548C571.418 596.58 594.264 596.829 611.214 584.864C619.754 578.716 626.164 570.208 631.251 561.179C636.207 552.478 644.331 543.504 642.869 532.655C641.835 526.542 638.758 520.764 635.291 515.974C623.222 499.045 604.702 484.902 598.35 464.138C597.746 462.759 597.732 460.851 598.913 459.795C599.965 459.068 600.958 459.459 602.081 459.521C609.292 461.6 616.185 465.457 623.137 468.195C656.759 479.918 677.27 514.248 687.862 546.574C694.876 567.599 695.771 591.54 685.41 611.047C677.917 625.215 665.185 636.179 651.447 644.845C667.27 641.566 682.001 633.292 694.142 622.856C700.508 617.374 705.881 611.501 710.52 604.578C712.22 602.204 723.918 585.126 722.12 582.896C728.579 590.767 728.199 602.411 725.228 611.894C716.822 637.117 693.435 653.775 669.475 664.12C650.382 671.818 629.621 676.956 608.918 680.975Z" fill="url(#paint1_radial_556_3528)"/>
<path d="M502.269 277.194C504.251 275.879 508.044 276.413 512.637 279.848C549.729 306.715 583.038 338.759 610.71 374.925C618.004 384.384 625.255 394.634 627.834 405.887C631.345 420.524 627.141 436.467 618.521 448.667C610.209 461.043 597.614 470.161 584.486 477.344C550.564 495.08 509.956 497.998 472.326 489.98C469.017 489.315 465.709 488.65 462.315 489.567C458.921 490.484 456.502 493.995 457.61 497.072C458.452 499.183 460.924 500.593 463.263 501.52C463.572 501.696 463.572 501.696 463.881 501.873C470.589 504.477 468.447 514.667 461.302 514.259C445.426 513.353 429.767 511.348 414.194 507.762C397.342 504.262 380.752 498.873 365.216 491.64C352.461 485.994 356.175 467.327 370.064 466.691L370.549 466.56C334.581 451.34 297.201 435.721 269.545 408.123C267.734 406.275 265.48 403.766 266.268 400.956C267.1 397.354 271.905 396.835 275.566 396.886C315.742 399.02 352.291 418.241 390.108 431.663C451.18 453.87 518.576 462.159 581.386 446.23C587.204 444.658 593.24 441.988 597.907 438.13C613.933 424.449 607.199 407.565 598.664 394.544C573.102 354.692 530.719 328.475 503.35 289.63C499.195 283.999 499.317 278.77 502.269 277.194Z" fill="url(#paint2_linear_556_3528)"/>
</g>
<defs>
<radialGradient id="paint0_radial_556_3528" cx="0" cy="0" r="1" gradientUnits="userSpaceOnUse" gradientTransform="translate(253.342 413.356) rotate(-99.3091) scale(399.937 613.904)">
<stop stop-color="#E6C4D1"/>
<stop offset="0.541667" stop-color="#CCE1E1" stop-opacity="0.8"/>
<stop offset="1" stop-color="#C6D4EB" stop-opacity="0"/>
</radialGradient>
<radialGradient id="paint1_radial_556_3528" cx="0" cy="0" r="1" gradientUnits="userSpaceOnUse" gradientTransform="translate(485.391 569.375) rotate(-91.6373) scale(234.703 401.024)">
<stop stop-color="#197F95" stop-opacity="0.65"/>
<stop offset="0.458333" stop-color="#7F83E6" stop-opacity="0.72"/>
<stop offset="1" stop-color="#1A11B6" stop-opacity="0.03"/>
</radialGradient>
<linearGradient id="paint2_linear_556_3528" x1="413.335" y1="475.886" x2="618.659" y2="379.387" gradientUnits="userSpaceOnUse">
<stop stop-color="#ECFFFA"/>
<stop offset="1" stop-color="white" stop-opacity="0.3"/>
<stop offset="1" stop-color="white" stop-opacity="0.42"/>
</linearGradient>
</defs>
</svg>
