<?xml version="1.0" encoding="UTF-8"?><svg xmlns="http://www.w3.org/2000/svg" viewBox="0 0 824 824"><defs><style>.d{fill:#fff;}</style></defs><g id="a"/><g id="b"><g id="c"><g><g><circle class="d" cx="412.15" cy="85.84" r="8.47" transform="translate(175.13 433.77) rotate(-67.5)"/><circle class="d" cx="379.68" cy="87.44" r="8.47"/><circle class="d" cx="347.52" cy="92.27" r="8.47"/><circle class="d" cx="316.01" cy="100.28" r="8.47"/><circle class="d" cx="285.45" cy="111.39" r="8.47"/><circle class="d" cx="256.15" cy="125.48" r="8.47"/><circle class="d" cx="228.4" cy="142.42" r="8.47"/><circle class="d" cx="202.47" cy="162.04" r="8.47"/><circle class="d" cx="178.62" cy="184.15" r="8.47"/><circle class="d" cx="157.1" cy="208.52" r="8.47"/><circle class="d" cx="138.1" cy="234.91" r="8.47"/><circle class="d" cx="121.83" cy="263.06" r="8.47"/><circle class="d" cx="108.44" cy="292.69" r="8.47"/><circle class="d" cx="98.07" cy="323.5" r="8.47"/><circle class="d" cx="90.82" cy="355.2" r="8.47"/><circle class="d" cx="86.76" cy="387.46" r="8.47"/><circle class="d" cx="85.93" cy="419.96" r="8.47"/><circle class="d" cx="88.34" cy="452.39" r="8.47"/><circle class="d" cx="93.97" cy="484.41" r="8.47"/><circle class="d" cx="102.76" cy="515.72" r="8.47"/><circle class="d" cx="114.63" cy="545.99" r="8.47"/><circle class="d" cx="129.44" cy="574.93" r="8.47"/><circle class="d" cx="147.07" cy="602.26" r="8.47"/><circle class="d" cx="167.33" cy="627.69" r="8.47"/><circle class="d" cx="190.02" cy="650.98" r="8.47"/><circle class="d" cx="214.91" cy="671.89" r="8.47"/><circle class="d" cx="241.77" cy="690.22" r="8.47"/><circle class="d" cx="270.31" cy="705.79" r="8.47"/><circle class="d" cx="300.27" cy="718.44" r="8.47"/><circle class="d" cx="331.33" cy="728.04" r="8.47"/><circle class="d" cx="363.2" cy="734.5" r="8.47"/><circle class="d" cx="395.55" cy="737.76" r="8.47"/><circle class="d" cx="428.06" cy="737.78" r="8.47"/><circle class="d" cx="460.42" cy="734.56" r="8.47"/><circle class="d" cx="492.29" cy="728.14" r="8.47"/><circle class="d" cx="523.37" cy="718.57" r="8.47"/><circle class="d" cx="553.34" cy="705.96" r="8.47"/><circle class="d" cx="581.9" cy="690.43" r="8.47"/><circle class="d" cx="608.78" cy="672.13" r="8.47"/><circle class="d" cx="633.7" cy="651.25" r="8.47"/><circle class="d" cx="656.42" cy="627.99" r="8.47"/><circle class="d" cx="676.71" cy="602.58" r="8.47"/><circle class="d" cx="694.37" cy="575.28" r="8.47"/><circle class="d" cx="709.22" cy="546.35" r="8.47"/><circle class="d" cx="721.12" cy="516.09" r="8.47"/><circle class="d" cx="729.95" cy="484.8" r="8.47"/><circle class="d" cx="735.62" cy="452.78" r="8.47"/><circle class="d" cx="738.07" cy="420.36" r="8.47"/><circle class="d" cx="737.28" cy="387.85" r="8.47"/><circle class="d" cx="733.26" cy="355.59" r="8.47"/><circle class="d" cx="726.05" cy="323.88" r="8.47"/><circle class="d" cx="715.71" cy="293.06" r="8.47"/><circle class="d" cx="702.36" cy="263.41" r="8.47"/><circle class="d" cx="686.12" cy="235.24" r="8.47"/><circle class="d" cx="667.16" cy="208.82" r="8.47"/><circle class="d" cx="645.66" cy="184.43" r="8.47"/><circle class="d" cx="621.85" cy="162.3" r="8.47"/><circle class="d" cx="595.94" cy="142.65" r="8.47"/><circle class="d" cx="568.21" cy="125.67" r="8.47"/><circle class="d" cx="538.92" cy="111.54" r="8.47"/><circle class="d" cx="508.38" cy="100.4" r="8.47"/><circle class="d" cx="476.88" cy="92.35" r="8.47"/><circle class="d" cx="444.73" cy="87.48" r="8.47"/></g><path class="d" d="M798.43,327.42c-12.36-21.45-24.45-41.52-36.51-60.32-4.78-21.82-10.43-44.58-16.87-68.55-16.12-59.92-44.2-94.13-108.79-115.49-26.6-8.8-53.57-16-80.43-21.69-18.48-11.81-38.19-23.67-59.26-35.81-53.77-30.98-97.81-35.31-158.59-4.74-24.66,12.4-48.51,26.14-71.22,40.86-26.41,5.64-52.91,12.74-79.04,21.38-64.59,21.36-92.67,55.57-108.79,115.49-6.31,23.46-11.86,45.78-16.57,67.19-14.99,23.03-28.96,47.22-41.55,72.24-30.57,60.77-26.24,104.82,4.74,158.59,12.39,21.5,24.49,41.59,36.54,60.4,4.77,21.82,10.41,44.56,16.84,68.47,16.12,59.92,44.2,94.13,108.79,115.49,26.58,8.79,53.57,15.99,80.44,21.68,18.49,11.83,38.2,23.7,59.25,35.82,53.77,30.98,97.81,35.31,158.59,4.74,24.63-12.39,48.46-26.12,71.16-40.84,26.41-5.64,52.93-12.75,79.09-21.4,64.59-21.36,92.67-55.57,108.79-115.49,6.3-23.42,11.84-45.71,16.54-67.12,14.99-23.04,28.97-47.25,41.57-72.31,30.57-60.77,26.24-104.82-4.74-158.59Zm-386.43,437.93c-195.43,0-353.85-158.43-353.85-353.85S216.57,57.65,412,57.65s353.85,158.43,353.85,353.85-158.43,353.85-353.85,353.85Z"/><g><path class="d" d="M172.99,447.49l-10.54-5.25c2.49-5.01,4.11-11.66,3.76-19.62-.31-7.15-2.03-11.47-4.88-11.35-2.63,.11-4.35,4.28-6.41,15.93-2.24,12.46-5.1,19.16-15.76,19.62-11.53,.5-16.98-7.02-17.59-21.26-.37-8.69,1.17-17.09,4.23-23.95l10.6,5.03c-2.42,4.86-4.08,10.56-3.78,17.5,.27,6.21,1.89,10.01,4.52,9.9,2.63-.11,4.34-4.5,6.52-16.74,2.07-11.43,4.9-18.64,15.27-19.09,11.53-.5,17.68,8.09,18.36,23.93,.41,9.49-1.19,18.26-4.32,25.35Z"/><path class="d" d="M177.74,338.65l.14,.03,9.17,7.81c-7.21,13.07-14.95,19.06-25.05,20.21l-1.36,7.25,17.67,3.31-2.42,12.93-53.22-9.97,4.55-24.28c2.68-14.29,10.34-21.04,21.54-18.94,8.84,1.66,13.8,7.27,14.61,16.05,6.05-.95,10.47-5.47,14.37-14.41Zm-27.23,33.41l2.1-11.2c1.12-5.96-.99-9.78-5.88-10.69-4.96-.93-8.39,1.92-9.52,7.96l-2.07,11.06,15.37,2.88Z"/><path class="d" d="M138.04,315.68l4.62-12.31,50.68,19.03-4.62,12.31-50.68-19.03Z"/><path class="d" d="M150.38,283.64l7.63-12.72,41.2-.93,.23-.38-14.26-8.04-15.85-9.51,6.39-10.65,46.43,27.85-7.63,12.72-41.2,.93-.23,.38,14.26,8.04,15.85,9.51-6.39,10.65-46.43-27.85Z"/><path class="d" d="M263.3,226.03l.1,.1-9.54,9.68-8.04-3.92-15.9,16.14,4.04,7.98-9.54,9.68-.1-.1-24.83-51.75,11.69-11.87,52.12,24.05Zm-27.17,1.13l-7-3.41-15.36-7.84-.31,.31,8.07,15.24,3.51,6.95,11.08-11.25Z"/><path class="d" d="M238.17,178.25l11.12-7.04,8.56,13.52,3.36,6.26,.43-.27,3.29-29.5,12.41-7.86,.08,.12-4.08,33.46,.2,.31,34.11,10.84,.08,.12-13.09,8.29-29.05-9.55-.43,.27,4.18,5.65,8.87,14.02-11.12,7.04-28.92-45.7Z"/><path class="d" d="M312.97,160.65l23.44-8.03-6.72-19.63,11.34-3.88,17.55,51.22-11.34,3.88-7.2-21.01-23.44,8.03,7.2,21.02-11.34,3.88-17.55-51.23,11.34-3.88,6.72,19.63Z"/><path class="d" d="M419.2,173.91v.15l-13.53,1.16-3.56-8.2-22.57,1.94-2.11,8.69-13.54,1.16v-.15l14.74-55.46,16.6-1.42,23.98,52.14Zm-21.39-16.79l-3.11-7.14-6.57-15.94-.44,.04-3.76,16.82-1.84,7.56,15.72-1.35Z"/><path class="d" d="M476.41,174.79l-.02,.14-7.48,9.44c-13.32-6.73-19.58-14.25-21.1-24.3l-7.3-1.1-2.67,17.77-13.01-1.96,8.05-53.54,24.42,3.67c14.38,2.16,21.39,9.57,19.7,20.84-1.34,8.89-6.77,14.05-15.51,15.18,1.17,6.01,5.85,10.26,14.91,13.84Zm-34.36-26l11.27,1.7c6,.9,9.73-1.34,10.47-6.26,.75-4.98-2.22-8.31-8.29-9.23l-11.13-1.67-2.33,15.46Z"/><path class="d" d="M497.9,134.27l12.47,4.17-17.18,51.35-12.47-4.17,17.18-51.35Z"/><path class="d" d="M530.41,145.45l12.99,7.17,2.41,41.15,.38,.21,7.53-14.54,8.94-16.19,10.88,6-26.17,47.41-12.99-7.17-2.41-41.15-.38-.21-7.53,14.54-8.94,16.19-10.88-6,26.17-47.41Z"/><path class="d" d="M588.59,178.37l.1-.1,9.93,9.81-11.25,18.57-8.19,12.87,.31,.31,12.81-8.3,18.69-11.23,9.57,9.45-10.99,18.83-8.03,13.02,.31,.31,12.76-8.35,18.43-11.49,9.93,9.81-.1,.1-48.19,28.31-11.28-11.14,8.9-15.35,7.93-12.61-.31-.31-12.51,8.09-15.24,9.09-11.28-11.14,27.7-48.54Z"/><path class="d" d="M651.12,247.08l7.21,11-45.28,29.7-7.21-11,45.28-29.7Z"/><path class="d" d="M646.97,340.98l-.13,.06-11.97-1.36c-1.32-14.87,1.76-24.16,9.49-30.76l-2.92-6.78-16.51,7.12-5.21-12.08,49.72-21.45,9.78,22.68c5.76,13.35,3.17,23.22-7.29,27.74-8.25,3.56-15.51,1.68-21.08-5.15-4.49,4.17-5.63,10.39-3.88,19.98Zm3.93-42.92l4.52,10.47c2.4,5.57,6.28,7.56,10.85,5.59,4.63-2,5.89-6.28,3.45-11.92l-4.46-10.33-14.36,6.19Z"/><path class="d" d="M666.91,340.48c16.08-2.63,29.57,7.38,32.24,23.75,2.69,16.44-6.9,30.23-22.98,32.86-15.94,2.61-29.49-7.39-32.18-23.83-2.68-16.37,6.98-30.17,22.92-32.77Zm7.09,43.34c9.23-1.51,15.48-9.05,14.05-17.77-1.43-8.73-9.74-13.81-18.97-12.3-9.59,1.57-15.41,8.96-13.99,17.69,1.43,8.73,9.32,13.95,18.91,12.38Z"/><path class="d" d="M702.9,399.62l-2.17,49.5-10.95-.48,.79-18.1-43.14-1.89,.58-13.14,43.14,1.89,.8-18.25,10.95,.48Z"/></g><g><g><rect class="d" x="349.93" y="256.79" width="5.73" height="307.15"/><rect class="d" x="409.53" y="245.32" width="5.73" height="332.37"/><rect class="d" x="469.11" y="256.79" width="5.75" height="307.15"/><rect class="d" x="528.74" y="277.42" width="5.71" height="265.91"/><rect class="d" x="290.32" y="277.42" width="5.76" height="265.91"/><rect class="d" x="280.03" y="290.02" width="265.9" height="5.71"/><rect class="d" x="259.38" y="349.62" width="308.32" height="5.74"/><rect class="d" x="242.18" y="409.22" width="339.27" height="5.71"/><rect class="d" x="259.38" y="468.81" width="308.32" height="5.71"/><rect class="d" x="280.03" y="528.41" width="265.9" height="5.73"/></g><rect class="d" x="399.83" y="275.63" width="24.91" height="270.75"/><rect class="d" x="274.31" y="398.53" width="274.2" height="24.92"/><path class="d" d="M274.09,360.29v24.91s192.57,15.76,238.9-95.47l-22.27-11.12s-26.94,95.14-216.63,81.69"/></g><g><path class="d" d="M191.76,569.94l25.25-21.96,8.63,9.93-23.6,20.52c-6.12,5.32-6.81,11.44-1.92,17.06,4.89,5.62,11.04,5.8,17.16,.47l23.6-20.52,8.63,9.93-25.25,21.96c-10.53,9.16-22.18,7.57-32.63-4.45-10.45-12.02-10.41-23.78,.12-32.93Z"/><path class="d" d="M255.06,590.4l12.09,8.58-2.24,41.15,.36,.25,9.12-13.6,10.7-15.07,10.13,7.19-31.34,44.15-12.1-8.58,2.24-41.15-.36-.25-9.12,13.6-10.7,15.07-10.13-7.19,31.34-44.15Z"/><path class="d" d="M304.63,622.61l11.88,5.65-23.24,48.91-11.88-5.65,23.24-48.91Z"/><path class="d" d="M319.83,631.52l.04-.14,13.21,3.79,1.24,27.5,.52,16.49,.42,.12,9.18-13.71,15.62-22.66,13.21,3.79-.04,.14-33.58,46.55-16.02-4.59-3.79-57.27Z"/><path class="d" d="M377.24,646.49l40.62,2.55-.67,10.65-27.64-1.74-.66,10.57,26.91,1.69-.66,10.5-26.91-1.69-.73,11.67,27.93,1.75-.67,10.65-40.91-2.57,3.4-54.03Z"/><path class="d" d="M482.26,687.33l.02,.14-4.38,11.22c-14.72-2.52-22.91-7.87-27.31-17.04l-7.3,1.1,2.67,17.78-13.01,1.95-8.04-53.55,24.43-3.67c14.38-2.16,23.27,2.86,24.96,14.14,1.33,8.89-2.34,15.43-10.37,19.07,2.88,5.41,8.6,8.09,18.33,8.85Zm-40.49-14.76l11.27-1.69c6-.9,8.91-4.15,8.17-9.06-.75-4.99-4.57-7.3-10.64-6.38l-11.13,1.67,2.32,15.47Z"/><path class="d" d="M490.81,688.16l1.63-11.66c5.54,.77,12.36,.19,19.8-2.66,6.69-2.57,10.23-5.57,9.21-8.23-.94-2.46-5.44-2.76-17.14-1.02-12.52,1.83-19.79,1.25-23.61-8.71-4.13-10.78,1.26-18.33,14.57-23.43,8.12-3.11,16.57-4.32,24.05-3.59l-1.4,11.65c-5.38-.75-11.31-.51-17.79,1.97-5.8,2.22-8.89,4.98-7.95,7.43,.94,2.46,5.65,2.69,17.94,.86,11.49-1.67,19.23-1.27,22.95,8.41,4.13,10.78-2.05,19.33-16.86,25.01-8.87,3.4-17.69,4.68-25.4,3.96Z"/><path class="d" d="M525.59,619.32l11.36-6.64,27.33,46.75-11.36,6.64-27.32-46.75Z"/><path class="d" d="M542.57,610.5l38.35-31.37,6.94,8.48-14.03,11.47,27.34,33.43-10.18,8.33-27.34-33.43-14.14,11.57-6.94-8.48Z"/><path class="d" d="M618.98,583.89l-38.45-3.73-.12-.09,8.9-11.22,14.74,1.99,10.8,1.67,.27-.34-4.08-10.14-5.3-13.9,8.9-11.22,.12,.09,12.39,36.59,16.89,13.4-8.17,10.31-16.89-13.4Z"/></g><g><g><path class="d" d="M406.08,217.91c-.1,0-.17,0-.19,0l-11.6-.02,11.54-7.44,.23,.35-10.35,6.68,10.2,.02c.06,0,4.38,.14,6.66-2.82,1.7-2.2,3.13-3.67,7.31-4.01l.03,.42c-4.01,.33-5.38,1.74-7.01,3.85-2.17,2.81-5.92,2.98-6.81,2.98Z"/><path class="d" d="M419.88,211.07l-14.09-.23-.05-.04-11.43-7.94,11.65,.48c2.97,.12,5.3,1.22,6.92,3.25,.19,.24,.36,.47,.53,.7,1.05,1.45,1.96,2.71,6.52,3.36l-.03,.42Zm-13.95-.64l11.63,.19c-2.81-.75-3.63-1.88-4.49-3.07-.16-.23-.33-.46-.51-.69h0c-1.54-1.93-3.76-2.97-6.61-3.09l-10.21-.42,10.2,7.09Z"/></g><g><path class="d" d="M375.09,220.55l10.75-8.55,.26,.33-9.64,7.67,10.15-.99c.05,0,4.37-.29,6.35-3.46,1.48-2.36,2.75-3.97,6.87-4.72l.08,.41c-3.95,.72-5.18,2.26-6.59,4.53-2.1,3.36-6.48,3.65-6.67,3.66l-11.55,1.13Z"/><path class="d" d="M385.84,212.41l-.06-.03-12.17-6.77,11.64-.68c2.97-.17,5.39,.68,7.21,2.55h0c.21,.22,.4,.43,.59,.65,1.19,1.34,2.22,2.5,6.82,2.69v.42l-14.03,1.17Zm-10.76-6.47l10.85,6.04,11.59-.97c-2.87-.46-3.8-1.51-4.78-2.61-.19-.21-.37-.42-.58-.63h0c-1.72-1.77-4.04-2.59-6.88-2.42l-10.2,.59Z"/></g><g><path class="d" d="M356.25,225.12l9.84-9.58,.29,.3-8.83,8.59,10-2c.05,0,4.32-.72,5.97-4.08,1.23-2.5,2.34-4.22,6.37-5.38l.12,.4c-3.86,1.11-4.93,2.77-6.11,5.16-1.75,3.55-6.09,4.28-6.27,4.3l-11.38,2.27Z"/><path class="d" d="M366.13,215.95l-12.84-5.55,11.51-1.83c2.94-.47,5.44,.14,7.43,1.82,.23,.19,.44,.39,.65,.58,1.32,1.21,2.46,2.27,7.05,2l.05,.41-13.86,2.57Zm-11.35-5.36l11.4,4.93,11.44-2.12c-2.9-.18-3.93-1.13-5.02-2.12-.2-.19-.41-.38-.64-.57-1.89-1.59-4.28-2.17-7.09-1.72l-10.09,1.61Z"/></g><g><path class="d" d="M337.96,231.54l8.84-10.51,.32,.27-7.93,9.43,9.75-2.98s4.22-1.15,5.53-4.65c.98-2.61,1.91-4.43,5.8-5.99l.16,.39c-3.73,1.49-4.63,3.24-5.56,5.75-1.39,3.71-5.63,4.86-5.81,4.91l-11.1,3.39Z"/><path class="d" d="M346.88,221.43l-13.33-4.24,11.27-2.97c2.88-.76,5.43-.4,7.57,1.07h0c.25,.17,.48,.34,.71,.52,1.43,1.08,2.68,2.01,7.22,1.29l.09,.41-13.53,3.93Zm-11.83-4.21l11.83,3.77,11.17-3.24c-2.93,.11-4.03-.73-5.2-1.61-.22-.17-.45-.34-.69-.5-2.04-1.39-4.47-1.73-7.23-1.01l-9.88,2.6Z"/></g><g><path class="d" d="M320.4,239.75l7.75-11.34,.35,.24-6.95,10.17,9.41-3.94s4.09-1.56,5.05-5.18c.71-2.69,1.46-4.6,5.18-6.53l.19,.37c-3.57,1.85-4.28,3.69-4.96,6.27-1.01,3.83-5.12,5.4-5.3,5.46l-10.7,4.48Z"/><path class="d" d="M328.27,228.8h-.06l-13.62-2.9,10.92-4.08c2.79-1.04,5.36-.94,7.64,.31h0c.26,.14,.51,.29,.76,.44,1.53,.93,2.86,1.73,7.31,.56l.13,.4-13.07,5.26Zm-12.19-3.01l12.15,2.57,10.79-4.34c-2.88,.4-4.08-.33-5.34-1.09-.24-.14-.48-.29-.74-.43h0c-2.17-1.19-4.62-1.28-7.29-.29l-9.58,3.57Z"/></g><g><path class="d" d="M303.74,249.67l6.58-12.05,.37,.2-5.9,10.81,8.97-4.85s3.91-1.96,4.5-5.66c.44-2.75,.99-4.72,4.5-7.02l.23,.35c-3.36,2.2-3.89,4.09-4.32,6.73-.63,3.91-4.56,5.88-4.73,5.96l-10.2,5.53Z"/><path class="d" d="M310.48,237.99h-.06l-13.84-1.52,10.46-5.14c2.67-1.31,5.24-1.47,7.63-.45h0c.28,.12,.54,.24,.8,.36,1.62,.77,3.02,1.44,7.33-.17l.17,.38-12.49,6.53Zm-12.43-1.78l12.35,1.35,10.3-5.39c-2.83,.68-4.09,.08-5.42-.55-.25-.12-.51-.24-.78-.36h0c-2.28-.96-4.73-.82-7.28,.44l-9.17,4.51Z"/></g><g><path class="d" d="M288.15,261.19l5.35-12.65,.39,.16-4.8,11.35,8.44-5.72s3.7-2.34,3.92-6.08c.16-2.78,.52-4.8,3.78-7.43l.26,.33c-3.13,2.52-3.47,4.46-3.62,7.13-.24,3.95-3.95,6.3-4.11,6.4l-9.6,6.51Z"/><path class="d" d="M293.7,248.9l-13.99-.13,9.9-6.16c2.53-1.57,5.07-1.98,7.55-1.21h0c.29,.09,.56,.19,.83,.28,1.69,.61,3.15,1.13,7.28-.89l.21,.36-11.77,7.74Zm-12.54-.54l12.42,.12,9.72-6.39c-2.74,.96-4.06,.49-5.45,0-.26-.09-.53-.19-.81-.28h0c-2.36-.73-4.78-.34-7.2,1.16l-8.68,5.4Z"/></g><g><path class="d" d="M273.79,274.21l4.06-13.12,.4,.12-3.65,11.77,7.83-6.53s3.45-2.7,3.3-6.44c-.11-2.78,.04-4.82,3.02-7.77l.29,.3c-2.86,2.82-3,4.78-2.9,7.45,.16,3.96-3.3,6.67-3.45,6.78l-8.91,7.44Z"/><path class="d" d="M264.15,262.69l9.24-7.11c2.36-1.82,4.85-2.47,7.39-1.95,.29,.06,.58,.13,.85,.2,1.74,.44,3.24,.81,7.15-1.61l.24,.34-10.94,8.88-13.93,1.26Zm14.95-8.82c-1.87,0-3.7,.68-5.46,2.04l-8.1,6.23,12.37-1.12,9.03-7.33c-2.63,1.23-3.99,.89-5.42,.53-.27-.07-.55-.14-.83-.2h0c-.53-.11-1.06-.16-1.59-.16Z"/></g><g><path class="d" d="M260.79,288.59l2.74-13.46,.41,.08-2.46,12.07,7.14-7.28s3.16-3.03,2.64-6.73c-.39-2.76-.44-4.81,2.23-8.03l.32,.27c-2.57,3.09-2.51,5.06-2.14,7.71,.55,3.92-2.62,6.96-2.76,7.09l-8.12,8.28Z"/><path class="d" d="M250.06,278.09l8.49-8c2.16-2.04,4.56-2.94,7.16-2.68,.3,.03,.59,.07,.87,.11,1.78,.26,3.31,.49,6.96-2.32l.27,.31-10.01,9.92h-.06l-13.67,2.64Zm14.78-10.3c-2.15,0-4.17,.88-6,2.61l-7.44,7.01,12.2-2.35,8.26-8.19c-2.5,1.49-3.89,1.28-5.34,1.07-.28-.04-.56-.08-.85-.11h0c-.28-.03-.55-.04-.82-.04Z"/></g><g><path class="d" d="M249.29,304.19l1.39-13.66,.42,.04-1.24,12.26,6.38-7.96s2.84-3.33,1.96-6.96c-.66-2.7-.92-4.74,1.42-8.21l.35,.23c-2.25,3.33-2,5.28-1.36,7.88,.94,3.85-1.92,7.19-2.04,7.33l-7.26,9.05Z"/><path class="d" d="M237.56,294.81l7.65-8.8c1.95-2.24,4.25-3.38,6.84-3.38h.02c.3,0,.59,.01,.87,.03,1.79,.08,3.34,.15,6.69-3l.3,.29-8.97,10.87-13.4,4Zm14.49-11.76c-2.46,0-4.66,1.09-6.52,3.23l-6.7,7.71,11.9-3.55,7.4-8.97c-2.34,1.73-3.74,1.66-5.21,1.59-.28-.01-.57-.02-.87-.03Z"/></g><g><path class="d" d="M239.39,320.86l.02-13.73h.42l-.02,12.32,5.56-8.55s2.5-3.59,1.25-7.12c-.93-2.63-1.39-4.62,.6-8.31l.37,.2c-1.9,3.54-1.46,5.46-.57,7.98,1.32,3.73-1.19,7.34-1.3,7.49l-6.32,9.73Z"/><path class="d" d="M226.8,312.69l6.73-9.52c1.72-2.43,3.9-3.79,6.49-4.04h0c.3-.03,.59-.04,.87-.06,1.79-.1,3.34-.18,6.36-3.65l.33,.25-7.85,11.71-.06,.02-12.88,5.28Zm19.14-15.31c-2.15,1.95-3.55,2.03-5.02,2.11-.28,.01-.56,.03-.86,.06-2.46,.24-4.54,1.54-6.19,3.87l-5.9,8.34,11.49-4.71,6.47-9.66Z"/></g><g><path class="d" d="M231.21,338.44l-1.35-13.67,.42-.04,1.21,12.26,4.68-9.06s2.13-3.83,.54-7.21c-1.18-2.52-1.84-4.46-.23-8.33l.39,.16c-1.54,3.71-.91,5.58,.22,7.99,1.68,3.58-.46,7.43-.55,7.59l-5.32,10.31Z"/><path class="d" d="M217.86,331.56l5.75-10.14c1.47-2.59,3.51-4.16,6.05-4.67h0c.29-.06,.58-.1,.86-.15,1.77-.27,3.3-.51,5.97-4.26l.35,.22-6.64,12.43-.06,.03-12.29,6.54Zm11.89-14.4c-2.42,.48-4.36,1.99-5.77,4.46l-5.04,8.89,10.97-5.83,5.48-10.26c-1.95,2.16-3.34,2.37-4.79,2.59-.28,.04-.56,.09-.85,.14h0Z"/></g><g><path class="d" d="M224.81,356.74l-2.7-13.47,.41-.08,2.42,12.08,3.75-9.48s1.74-4.02-.18-7.23c-1.43-2.39-2.27-4.26-1.06-8.27l.4,.12c-1.17,3.85-.35,5.64,1.02,7.93,2.03,3.4,.28,7.43,.21,7.6l-4.27,10.79Z"/><path class="d" d="M210.84,351.22l4.72-10.66c1.2-2.72,3.07-4.49,5.56-5.25h0c.29-.09,.57-.16,.84-.23,1.74-.45,3.24-.84,5.51-4.84l.37,.18-5.37,13.03-.05,.04-11.58,7.73Zm10.4-15.51c-2.36,.72-4.14,2.41-5.3,5.02l-4.13,9.35,10.33-6.9,4.43-10.75c-1.72,2.34-3.08,2.69-4.51,3.06-.27,.07-.54,.14-.83,.23h0Z"/></g><g><path class="d" d="M220.27,375.58l-4.03-13.13,.4-.12,3.61,11.78,2.79-9.81s1.33-4.17-.9-7.17c-1.66-2.24-2.69-4.01-1.88-8.12l.41,.08c-.78,3.94,.21,5.65,1.8,7.79,2.36,3.18,1.02,7.37,.96,7.55l-3.18,11.16Z"/><path class="d" d="M205.82,371.48l3.63-11.08c.93-2.83,2.61-4.77,5.01-5.77h0c.28-.12,.55-.22,.82-.31,1.68-.62,3.14-1.15,5-5.36l.39,.15-4.05,13.5-.05,.04-10.75,8.84Zm8.8-16.47c-2.28,.95-3.88,2.81-4.77,5.52l-3.18,9.71,9.59-7.89,3.34-11.14c-1.48,2.5-2.8,2.98-4.18,3.49-.26,.1-.53,.19-.8,.31h0Z"/></g><g><path class="d" d="M217.62,394.78l-5.31-12.67,.39-.16,4.77,11.36,1.8-10.04c.01-.05,.91-4.28-1.61-7.05-1.87-2.06-3.07-3.72-2.67-7.89l.42,.04c-.38,4,.77,5.6,2.57,7.57,2.66,2.93,1.75,7.23,1.71,7.41l-2.05,11.42Z"/><path class="d" d="M202.84,392.15l2.51-11.39c.64-2.91,2.12-5.01,4.41-6.24h0c.26-.14,.52-.27,.78-.39,1.61-.78,3.01-1.46,4.45-5.83l.4,.11-2.69,13.83-.04,.04-9.82,9.87Zm11.7-21.54c-1.23,2.64-2.49,3.25-3.81,3.89-.25,.12-.51,.25-.76,.39-2.17,1.18-3.59,3.18-4.2,5.97l-2.2,9.98,8.76-8.81,2.22-11.42Z"/></g><g><path class="d" d="M216.9,414.16l-6.55-12.07,.37-.2,5.87,10.83,.79-10.17c0-.05,.48-4.35-2.3-6.85-2.07-1.86-3.43-3.4-3.45-7.59h.42c.02,4.02,1.32,5.49,3.31,7.28,2.94,2.65,2.46,7.02,2.44,7.21l-.9,11.57Z"/><path class="d" d="M201.93,413l1.37-11.58c.35-2.96,1.62-5.19,3.77-6.65h0c.25-.17,.49-.32,.74-.47,1.53-.94,2.85-1.75,3.84-6.24l.41,.06-1.3,14.03-.04,.05-8.79,10.8Zm9.49-22.59c-.96,2.74-2.15,3.48-3.4,4.25-.24,.15-.48,.3-.72,.46h0c-2.04,1.39-3.25,3.52-3.59,6.35l-1.2,10.15,7.84-9.63,1.07-11.58Z"/></g><g><path class="d" d="M218.11,433.5l-7.72-11.36,.35-.23,6.92,10.19-.22-10.2c0-.05,.04-4.38-2.97-6.59-2.24-1.65-3.75-3.04-4.19-7.21l.42-.04c.42,4,1.86,5.33,4.02,6.92,3.19,2.34,3.15,6.74,3.14,6.93l.25,11.6Z"/><path class="d" d="M203.1,433.84l.21-11.66c.05-2.98,1.09-5.33,3.08-6.99h0c.23-.19,.46-.37,.69-.54,1.43-1.09,2.66-2.03,3.2-6.6l.42,.02,.11,14.09-7.71,11.67Zm3.56-18.33c-1.9,1.58-2.88,3.83-2.94,6.68l-.18,10.22,6.84-10.37-.09-11.63c-.68,2.83-1.8,3.68-2.97,4.57-.22,.17-.45,.34-.67,.53h0Z"/></g><g><path class="d" d="M221.23,452.64l-8.81-10.54,.32-.27,7.9,9.45-1.23-10.12c0-.05-.39-4.36-3.61-6.26-2.4-1.42-4.03-2.65-4.88-6.76l.41-.08c.82,3.94,2.38,5.12,4.68,6.48,3.41,2.02,3.8,6.4,3.82,6.58l1.41,11.52Z"/><path class="d" d="M206.33,454.47l-.95-11.62c-.24-2.97,.56-5.41,2.37-7.27h0c.21-.21,.42-.41,.63-.61,1.31-1.22,2.44-2.28,2.53-6.88l.42-.02,1.51,14.01-.03,.06-6.48,12.33Zm1.72-18.59c-1.73,1.76-2.49,4.1-2.26,6.94l.84,10.19,5.78-11-1.24-11.56c-.4,2.88-1.42,3.84-2.5,4.84-.2,.19-.41,.38-.62,.59h0Z"/></g><g><path class="d" d="M226.25,471.36l-9.81-9.61,.29-.3,8.8,8.62-2.24-9.95c0-.05-.83-4.3-4.22-5.87-2.53-1.17-4.28-2.24-5.53-6.24l.4-.13c1.2,3.84,2.88,4.86,5.31,5.98,3.59,1.67,4.42,5.99,4.45,6.17l2.54,11.32Z"/><path class="d" d="M211.6,474.67l-2.1-11.47c-.54-2.93,.01-5.44,1.64-7.47h0c.19-.23,.38-.45,.57-.67,1.18-1.35,2.21-2.51,1.83-7.1l.41-.06,2.89,13.79-5.24,12.97Zm-.14-18.67c-1.55,1.93-2.07,4.33-1.55,7.13l1.84,10.05,4.66-11.52-2.39-11.38c-.11,2.9-1.03,3.96-2,5.06-.18,.21-.37,.42-.55,.65h0Z"/></g><g><path class="d" d="M233.1,489.49l-10.72-8.59,.26-.33,9.61,7.7-3.21-9.68s-1.25-4.2-4.78-5.42c-2.63-.92-4.48-1.8-6.12-5.66l.38-.16c1.58,3.7,3.35,4.55,5.88,5.43,3.74,1.3,4.99,5.51,5.04,5.69l3.66,11.01Z"/><path class="d" d="M218.86,494.24l-3.24-11.2c-.83-2.86-.53-5.41,.89-7.59h0c.16-.25,.33-.49,.5-.72,1.04-1.46,1.94-2.72,1.12-7.25l.4-.1,4.25,13.44-.02,.06-3.91,13.36Zm-2-18.56c-1.35,2.07-1.63,4.51-.84,7.25l2.84,9.82,3.49-11.92-3.51-11.09c.18,2.9-.63,4.04-1.49,5.24-.16,.23-.33,.46-.49,.7h0Z"/></g><g><path class="d" d="M241.72,506.86l-11.52-7.48,.23-.35,10.33,6.71-4.16-9.31s-1.66-4.05-5.3-4.92c-2.71-.65-4.63-1.35-6.66-5.02l.37-.2c1.94,3.52,3.79,4.19,6.39,4.81,3.85,.92,5.52,4.99,5.58,5.16l4.74,10.59Z"/><path class="d" d="M228.02,513l-4.33-10.82c-1.11-2.76-1.06-5.34,.13-7.64h0c.14-.27,.28-.52,.42-.77,.89-1.56,1.66-2.9,.39-7.32l.39-.14,5.57,12.95-2.57,13.75Zm-3.83-18.27c-1.13,2.2-1.17,4.65-.11,7.29l3.8,9.49,2.28-12.21-4.59-10.68c.47,2.87-.23,4.09-.96,5.36-.14,.24-.28,.49-.42,.75h0Z"/></g><g><path class="d" d="M252.03,523.27l-12.21-6.29,.19-.37,10.95,5.65-5.07-8.85s-2.06-3.86-5.76-4.37c-2.76-.38-4.74-.88-7.12-4.33l.35-.24c2.28,3.31,4.19,3.79,6.83,4.16,3.92,.53,5.99,4.42,6.07,4.58l5.77,10.07Z"/><path class="d" d="M239.01,530.75l-5.39-10.34c-1.38-2.64-1.59-5.2-.63-7.62h0c.11-.28,.23-.54,.35-.8,.73-1.64,1.37-3.05-.34-7.32l.38-.18,6.83,12.33v.06l-1.19,13.87Zm-5.63-17.8c-.91,2.3-.7,4.74,.61,7.27l4.72,9.06,1.06-12.38-5.63-10.17c.75,2.81,.18,4.09-.42,5.43-.11,.25-.23,.51-.34,.79h0Z"/></g><g><path class="d" d="M263.92,538.58l-12.77-5.05,.15-.39,11.46,4.53-5.92-8.3s-2.43-3.64-6.17-3.77c-2.78-.1-4.81-.4-7.52-3.6l.32-.27c2.6,3.07,4.54,3.36,7.21,3.45,3.96,.14,6.4,3.8,6.5,3.96l6.74,9.45Z"/><path class="d" d="M251.71,547.32l-6.39-9.75c-1.63-2.49-2.1-5.02-1.39-7.52h0c.08-.29,.17-.56,.26-.83,.57-1.7,1.06-3.17-1.07-7.25l.36-.22,8.02,11.59v.06l.2,13.92Zm-7.38-17.15c-.68,2.38-.23,4.79,1.34,7.17l5.6,8.55-.18-12.42-6.62-9.56c1.03,2.72,.58,4.05,.12,5.44-.09,.26-.18,.53-.26,.82h0Z"/></g><g><path class="d" d="M277.28,552.64l-13.21-3.75,.11-.4,11.85,3.36-6.72-7.67s-2.8-3.39-6.51-3.14c-2.78,.18-4.83,.08-7.84-2.84l.29-.3c2.89,2.79,4.85,2.89,7.52,2.72,3.94-.27,6.74,3.14,6.86,3.29l7.65,8.73Z"/><path class="d" d="M265.99,562.54l-7.33-9.07c-1.87-2.32-2.59-4.79-2.13-7.34h0c.05-.3,.12-.58,.18-.86,.39-1.75,.74-3.26-1.78-7.11l.33-.25,9.13,10.73,1.59,13.9Zm-9.05-16.33c-.44,2.43,.25,4.79,2.04,7l6.42,7.95-1.41-12.34-7.54-8.86c1.29,2.6,.98,3.97,.66,5.4-.06,.27-.12,.55-.18,.84h0Z"/></g><g><path class="d" d="M291.96,565.29l-13.52-2.42,.07-.41,12.13,2.17-7.45-6.97s-3.11-3.09-6.79-2.48c-2.75,.45-4.79,.56-8.08-2.04l.26-.33c3.15,2.49,5.12,2.4,7.75,1.96,3.91-.64,7.02,2.46,7.15,2.59l8.48,7.92Z"/><path class="d" d="M281.72,576.27l-8.19-8.29c-2.09-2.12-3.05-4.5-2.85-7.09h0c.02-.3,.06-.59,.09-.87,.22-1.78,.41-3.32-2.48-6.9l.31-.28,10.16,9.77,2.97,13.67Zm-11.73-21.52c1.55,2.46,1.37,3.85,1.2,5.31-.03,.28-.07,.56-.09,.85h0c-.19,2.46,.73,4.74,2.73,6.77l7.18,7.27-2.63-12.14-8.38-8.06Z"/></g><g><path class="d" d="M307.84,576.42l-13.69-1.06,.03-.42,12.28,.95-8.1-6.19s-3.39-2.76-7-1.79c-2.69,.73-4.71,1.03-8.24-1.23l.23-.35c3.39,2.17,5.33,1.87,7.91,1.18,3.82-1.03,7.23,1.75,7.37,1.87l9.22,7.04Z"/><path class="d" d="M298.74,588.36l-8.98-7.44c-2.29-1.9-3.48-4.18-3.54-6.77h0c0-.3,0-.59,0-.88,.04-1.79,.08-3.34-3.16-6.62l.28-.31,11.08,8.71,.02,.06,4.29,13.25Zm-12.1-14.22c.05,2.47,1.19,4.64,3.39,6.46l7.87,6.52-3.83-11.82-9.14-7.19c1.78,2.3,1.75,3.7,1.72,5.17,0,.28-.01,.56,0,.86h0Z"/></g><g><path class="d" d="M311.01,586.22v-.42l12.31-.27-8.68-5.35s-3.65-2.41-7.15-1.08c-2.6,.99-4.59,1.5-8.33-.4l.19-.37c3.59,1.82,5.49,1.33,7.99,.38,3.7-1.41,7.37,1.02,7.52,1.12l9.88,6.09-13.73,.31Z"/><path class="d" d="M316.87,598.7l-9.68-6.51c-2.47-1.66-3.88-3.81-4.2-6.39h0c-.04-.3-.06-.59-.08-.87-.14-1.79-.26-3.33-3.8-6.27l.25-.34,11.89,7.57,.03,.06,5.59,12.75Zm-13.46-12.95c.3,2.45,1.65,4.5,4.01,6.09l8.48,5.7-4.99-11.38-9.81-6.24c2,2.11,2.11,3.51,2.22,4.97,.02,.28,.04,.56,.08,.85h0Z"/></g><g><path class="d" d="M328.87,595.35l-.05-.42,12.23-1.5-9.17-4.46s-3.87-2.04-7.22-.37c-2.49,1.24-4.42,1.95-8.33,.43l.15-.39c3.75,1.45,5.6,.78,7.99-.41,3.54-1.77,7.44,.28,7.6,.37l10.43,5.08-13.63,1.67Z"/><path class="d" d="M335.94,607.19l-10.27-5.51c-2.62-1.41-4.24-3.41-4.81-5.94-.07-.29-.12-.58-.17-.86-.32-1.77-.59-3.29-4.4-5.86l.21-.36,12.58,6.34,.03,.06,6.83,12.13Zm-17.55-17.11c2.2,1.9,2.45,3.28,2.71,4.72,.05,.28,.1,.55,.16,.84h0c.54,2.41,2.09,4.32,4.6,5.66l9.01,4.83-6.09-10.82-10.38-5.24Z"/></g><g><path class="d" d="M347.55,602.66l-.09-.41,12.02-2.71-9.57-3.53s-4.06-1.64-7.22,.35c-2.36,1.48-4.21,2.37-8.24,1.25l.11-.4c3.87,1.07,5.65,.22,7.91-1.21,3.35-2.11,7.42-.46,7.6-.39l10.89,4.01-13.4,3.02Z"/><path class="d" d="M355.77,613.73l-10.77-4.46c-2.75-1.14-4.56-2.97-5.38-5.43-.09-.29-.17-.56-.25-.84-.49-1.73-.91-3.22-4.97-5.39l.17-.38,13.15,5.06,8.04,11.45Zm-19.16-15.28c2.38,1.67,2.76,3.02,3.16,4.43,.08,.27,.15,.54,.25,.82h0c.78,2.35,2.51,4.09,5.14,5.18l9.44,3.91-7.14-10.16-10.85-4.18Z"/></g><g><path class="d" d="M366.86,608.07l-.13-.4,11.69-3.89-9.87-2.56c-.05-.01-4.2-1.23-7.15,1.07-2.2,1.71-3.95,2.78-8.07,2.07l.07-.41c3.97,.68,5.64-.34,7.75-1.99,3.12-2.43,7.34-1.2,7.52-1.14l11.23,2.91-13.03,4.34Z"/><path class="d" d="M376.14,618.27l-11.16-3.37c-2.85-.86-4.83-2.5-5.89-4.87h0c-.12-.27-.23-.54-.33-.81-.66-1.67-1.23-3.11-5.48-4.88l.14-.4,13.59,3.73,9.14,10.59Zm-16.67-8.41c1.01,2.26,2.9,3.82,5.63,4.64l9.78,2.95-8.12-9.4-11.22-3.08c2.54,1.42,3.05,2.73,3.59,4.1,.1,.26,.21,.52,.33,.79h0Z"/></g><g><path class="d" d="M386.62,611.54l-.17-.38,11.24-5.03-10.08-1.56c-.05,0-4.3-.81-7.01,1.77-2.01,1.92-3.66,3.16-7.83,2.86l.03-.42c4.01,.29,5.58-.9,7.51-2.75,2.86-2.73,7.19-1.92,7.37-1.88l11.47,1.78-12.54,5.61Z"/><path class="d" d="M396.87,620.76l-11.44-2.24c-2.92-.57-5.06-2.01-6.35-4.26h0c-.15-.26-.28-.52-.41-.77-.82-1.6-1.53-2.97-5.94-4.31l.1-.41,13.89,2.36,.05,.04,10.1,9.58Zm-17.42-6.71c1.23,2.14,3.27,3.51,6.06,4.06l10.03,1.96-9.01-8.55-11.47-1.94c2.66,1.16,3.31,2.41,3.98,3.72,.13,.25,.26,.5,.4,.75h0Z"/></g><g><path class="d" d="M406.62,613.02l-.21-.36,10.69-6.13-10.18-.55s-4.36-.38-6.8,2.46c-1.81,2.11-3.31,3.51-7.5,3.63v-.42c4.01-.12,5.45-1.45,7.19-3.48,2.58-3,6.96-2.63,7.15-2.61l11.59,.63-11.91,6.83Z"/><path class="d" d="M417.74,621.18l-11.61-1.09c-2.96-.28-5.23-1.49-6.74-3.61h0c-.18-.24-.33-.49-.49-.73-.98-1.51-1.82-2.81-6.33-3.69l.05-.41,14.06,.96,.05,.04,11,8.53Zm-22.81-8.96c2.76,.89,3.53,2.07,4.33,3.3,.15,.23,.31,.47,.48,.71h0c1.43,2.01,3.6,3.17,6.44,3.43l10.18,.96-9.82-7.61-11.6-.79Z"/></g><g><path class="d" d="M412.64,612.95l-.05-.42c3.99-.51,5.29-1.99,6.82-4.18,2.27-3.24,6.67-3.31,6.85-3.31l11.59-.53-11.17,7.98-.24-.34,10.03-7.16-10.19,.46c-.05,0-4.38,.06-6.52,3.13-1.59,2.28-2.95,3.82-7.11,4.35Z"/><path class="d" d="M426.81,619.59c-2.94,0-5.29-.98-6.99-2.92h0c-.2-.23-.38-.45-.56-.67-1.12-1.4-2.09-2.61-6.67-3.05v-.42l14.1-.44,.05,.03,11.8,7.39-11.66,.07s-.05,0-.08,0Zm-6.67-3.19c1.61,1.84,3.86,2.78,6.67,2.78h.07l10.22-.06-10.52-6.6-11.62,.36c2.84,.61,3.72,1.71,4.64,2.86,.18,.22,.35,.44,.54,.66h0Z"/></g><g><path class="d" d="M432.66,611.83l-.09-.41c3.91-.91,5.06-2.51,6.37-4.84,1.93-3.46,6.3-3.95,6.49-3.97l11.48-1.68-10.33,9.06-.28-.31,9.26-8.12-10.09,1.47c-.05,0-4.35,.5-6.17,3.76-1.36,2.43-2.56,4.09-6.64,5.04Z"/><path class="d" d="M446.21,617.09c-2.39,0-4.42-.76-6.03-2.27h0c-.22-.21-.42-.41-.62-.62-1.24-1.27-2.32-2.37-6.8-2.37h-.14l-.03-.42,13.97-1.84,.06,.03,12.48,6.18-11.59,1.23c-.44,.05-.87,.07-1.29,.07Zm-5.75-2.58c1.81,1.69,4.17,2.39,6.99,2.09l10.16-1.08-11.13-5.52-11.53,1.52c2.89,.33,3.87,1.33,4.9,2.38,.2,.2,.39,.4,.61,.6h0Z"/></g><g><path class="d" d="M452.46,608.73l-.13-.4c3.81-1.29,4.79-3,5.86-5.45,1.58-3.63,5.88-4.56,6.06-4.6l11.26-2.81-9.37,10.04-.31-.29,8.41-9-9.89,2.47c-.05,.01-4.28,.93-5.77,4.36-1.11,2.55-2.14,4.33-6.11,5.68Z"/><path class="d" d="M465.42,612.67c-1.95,0-3.68-.57-5.18-1.71h0c-.24-.18-.46-.37-.68-.55-1.38-1.15-2.57-2.15-7.14-1.66l-.07-.41,13.72-3.22,.06,.02,13.03,4.91-11.41,2.38c-.81,.17-1.58,.25-2.33,.25Zm-4.92-2.05c1.96,1.5,4.38,1.96,7.16,1.38l10-2.08-11.62-4.38-11.32,2.66c2.91,.04,3.98,.94,5.11,1.88,.21,.18,.43,.36,.66,.54h0Z"/></g><g><path class="d" d="M471.86,603.68l-.17-.38c3.66-1.67,4.47-3.46,5.29-6,1.21-3.77,5.39-5.12,5.57-5.18l10.92-3.92-8.33,10.92-.33-.25,7.47-9.8-9.6,3.44s-4.16,1.35-5.31,4.91c-.85,2.65-1.69,4.52-5.51,6.25Z"/><path class="d" d="M484.2,606.36c-1.58,0-3.04-.41-4.38-1.24h0c-.26-.16-.49-.32-.73-.48-1.48-1.01-2.76-1.88-7.27-.95l-.11-.4,13.33-4.57,.06,.02,13.45,3.59-11.12,3.5c-1.12,.35-2.2,.53-3.23,.53Zm-4.16-1.59c2.1,1.3,4.55,1.52,7.27,.66l9.75-3.07-12-3.2-11,3.77c2.89-.25,4.06,.54,5.27,1.36,.23,.16,.47,.32,.72,.47h0Z"/></g><g><path class="d" d="M490.66,596.72l-.21-.36c3.47-2.02,4.1-3.89,4.66-6.5,.83-3.87,4.86-5.63,5.03-5.71l10.48-4.99-7.2,11.7-.36-.22,6.46-10.49-9.21,4.38s-4.01,1.76-4.79,5.41c-.58,2.72-1.24,4.66-4.86,6.77Z"/><path class="d" d="M502.34,598.2c-1.26,0-2.46-.28-3.61-.84h0c-.27-.13-.52-.27-.78-.41-1.58-.86-2.94-1.6-7.33-.22l-.15-.39,12.81-5.87,13.81,2.24-10.72,4.59c-1.39,.59-2.74,.89-4.03,.89Zm-7.68-2.64c1.6,0,2.53,.5,3.49,1.03,.25,.13,.49,.27,.76,.4h0c2.22,1.08,4.67,1.06,7.3-.06l9.39-4.02-12.26-1.99-10.57,4.85c.73-.14,1.35-.19,1.89-.19Z"/></g><g><path class="d" d="M508.68,587.92l-.25-.34c3.26-2.36,3.7-4.27,3.99-6.93,.44-3.93,4.27-6.09,4.44-6.18l9.93-6-6,12.35-.38-.18,5.38-11.08-8.73,5.28s-3.81,2.15-4.23,5.86c-.31,2.77-.77,4.76-4.16,7.22Z"/><path class="d" d="M519.62,588.28c-.97,0-1.92-.17-2.86-.52h0c-.28-.1-.55-.22-.81-.33-1.65-.69-3.08-1.3-7.32,.51l-.19-.37,12.16-7.12,13.96,.86-10.21,5.63c-1.6,.89-3.19,1.33-4.74,1.33Zm-2.71-.91c2.32,.86,4.76,.59,7.25-.79l8.95-4.94-12.4-.76-10.04,5.87c2.79-.82,4.08-.28,5.44,.29,.26,.11,.52,.22,.79,.32h0Z"/></g><g><path class="d" d="M525.73,577.38l-.28-.31c3.01-2.67,3.25-4.62,3.28-7.29,.05-3.96,3.65-6.48,3.8-6.59l9.28-6.96-4.74,12.89-.39-.14,4.25-11.56-8.16,6.12s-3.58,2.52-3.63,6.26c-.03,2.78-.29,4.82-3.42,7.6Z"/><path class="d" d="M525.69,577.4l-.22-.35,11.39-8.29h.06l13.91-.53-9.6,6.62c-2.45,1.69-4.97,2.22-7.48,1.57h0c-.29-.08-.57-.16-.84-.24-1.72-.53-3.2-.98-7.23,1.24Zm4.98-2.09c.91,0,1.63,.22,2.37,.45,.27,.08,.54,.17,.82,.24h0c2.39,.62,4.79,.11,7.14-1.5l8.41-5.8-12.41,.47-9.4,6.84c1.28-.52,2.25-.7,3.07-.7Z"/></g><g><path class="d" d="M541.64,565.19l-.31-.28c2.72-2.95,2.78-4.92,2.54-7.58-.35-3.94,2.98-6.81,3.13-6.93l8.54-7.85-3.44,13.3-.4-.11,3.08-11.93-7.51,6.9s-3.31,2.86-2.99,6.59c.24,2.77,.19,4.82-2.65,7.9Z"/><path class="d" d="M541.61,565.22l-.26-.33,10.51-9.39h.06l13.79-1.92-8.89,7.54c-2.27,1.92-4.72,2.7-7.29,2.3h0c-.3-.05-.58-.1-.86-.16-1.76-.35-3.28-.66-7.07,1.95Zm10.44-9.32l-8.67,7.74c2.57-1.35,3.95-1.08,5.39-.79,.28,.06,.55,.11,.84,.16,2.44,.38,4.78-.36,6.95-2.21l7.79-6.61-12.3,1.71Z"/></g><g><path class="d" d="M556.27,551.48l-.33-.25c2.42-3.21,2.27-5.17,1.77-7.8-.74-3.89,2.29-7.08,2.42-7.21l7.72-8.66-2.1,13.57-.41-.06,1.88-12.17-6.79,7.61s-3.01,3.18-2.32,6.85c.52,2.74,.67,4.78-1.85,8.13Z"/><path class="d" d="M556.23,551.51l-.29-.3,9.53-10.38h.06l13.53-3.29-.5,.52s-6.44,6.67-7.6,7.87c-2.07,2.14-4.41,3.16-7.02,3.02-.3-.02-.59-.04-.87-.07-1.79-.17-3.33-.33-6.84,2.64Zm9.46-10.31l-7.86,8.57c2.42-1.6,3.82-1.47,5.28-1.32,.28,.03,.56,.06,.86,.07h0c2.46,.15,4.72-.84,6.7-2.89,.96-1,5.56-5.76,7.1-7.35l-12.07,2.92Z"/></g><g><path class="d" d="M569.45,536.38l-.36-.22c2.09-3.44,1.75-5.37,.99-7.94-1.12-3.8,1.58-7.27,1.69-7.42l6.82-9.39-.74,13.72-.42-.02,.66-12.3-6,8.25s-2.68,3.46-1.62,7.05c.79,2.67,1.14,4.69-1.03,8.27Z"/><path class="d" d="M569.42,536.42l-.32-.27,8.45-11.28,.06-.02,13.14-4.61-7.22,9.15c-1.84,2.34-4.09,3.58-6.69,3.7h0c-.3,.01-.59,.01-.87,.01-1.79,0-3.34,0-6.54,3.31Zm8.39-11.2l-6.97,9.31c2.68-2.18,4.13-1.77,5.98-1.85h0c2.47-.11,4.61-1.3,6.38-3.54l6.33-8.02-11.72,4.11Z"/></g><g><path class="d" d="M581.07,520.04l-.38-.18c1.73-3.63,1.2-5.52,.19-7.99-1.49-3.67,.84-7.39,.94-7.55l5.85-10.02,.63,13.72-.42,.02-.57-12.31-5.14,8.81s-2.32,3.71-.91,7.17c1.05,2.58,1.6,4.55-.2,8.33Z"/><path class="d" d="M581.05,520.08l-.34-.24,7.28-12.07,.06-.03,12.62-5.89-.39,.61s-4.99,7.81-5.89,9.22c-1.6,2.51-3.72,3.97-6.29,4.35h0c-.3,.04-.58,.07-.87,.1-1.79,.18-3.33,.34-6.18,3.95Zm7.23-11.98l-6.01,9.96c2.06-2.05,3.46-2.19,4.92-2.34,.28-.03,.56-.06,.85-.1h0c2.44-.36,4.46-1.76,6-4.16,.74-1.17,4.31-6.75,5.5-8.61l-11.25,5.25Z"/></g><g><path class="d" d="M591.01,502.63l-.39-.14c1.36-3.78,.65-5.61-.6-7.97-1.85-3.5,.11-7.44,.19-7.61l4.83-10.55,1.99,13.59-.41,.06-1.79-12.19-4.24,9.27s-1.94,3.92-.2,7.23c1.3,2.46,2.05,4.37,.63,8.31Z"/><path class="d" d="M590.99,502.68l-.37-.2,6.04-12.73,.06-.03,11.97-7.12-.32,.64s-4.19,8.27-4.94,9.76c-1.35,2.66-3.31,4.32-5.82,4.95h0c-.29,.07-.57,.13-.86,.19-1.76,.36-3.28,.67-5.76,4.54Zm6-12.64l-4.99,10.5c1.84-2.25,3.22-2.53,4.66-2.82,.27-.06,.55-.11,.84-.18,2.4-.6,4.26-2.19,5.55-4.73,.63-1.24,3.62-7.15,4.62-9.12l-10.68,6.35Z"/></g><g><path class="d" d="M599.16,484.32l-.4-.1c.98-3.9,.08-5.65-1.39-7.87-2.19-3.3-.64-7.41-.57-7.59l3.75-10.98,3.34,13.32-.4,.1-2.99-11.95-3.3,9.65s-1.54,4.1,.52,7.21c1.54,2.32,2.47,4.14,1.45,8.21Z"/><path class="d" d="M599.15,484.36l-.38-.17,4.75-13.27,.05-.04,11.2-8.27-4.21,10.87c-1.07,2.78-2.86,4.63-5.3,5.51h0c-.28,.1-.56,.19-.83,.27-1.71,.53-3.19,.99-5.28,5.09Zm4.71-13.17l-3.92,10.95c1.61-2.42,2.95-2.83,4.36-3.27,.27-.08,.54-.17,.81-.27h0c2.32-.83,4.02-2.61,5.05-5.26l3.69-9.53-9.99,7.38Z"/></g><g><path class="d" d="M605.45,465.29l-.41-.06c.59-3.98-.48-5.63-2.17-7.7-2.51-3.06-1.37-7.31-1.32-7.49l2.64-11.3,4.65,12.92-.39,.14-4.17-11.59-2.32,9.93s-1.13,4.23,1.24,7.12c1.76,2.16,2.87,3.88,2.26,8.02Z"/><path class="d" d="M605.44,465.33l-.4-.13,3.4-13.67,.05-.04,10.32-9.34-3.1,11.24c-.79,2.87-2.38,4.89-4.73,6.01h0c-.27,.13-.54,.24-.8,.35-1.65,.7-3.08,1.3-4.74,5.59Zm3.38-13.58l-2.81,11.28c1.36-2.57,2.66-3.11,4.01-3.69,.26-.11,.52-.22,.78-.35h0c2.23-1.06,3.75-2.99,4.5-5.74l2.72-9.85-9.21,8.34Z"/></g><g><path class="d" d="M609.82,445.72l-.42-.02c.19-4.01-1.04-5.55-2.92-7.44-2.8-2.8-2.09-7.14-2.06-7.32l1.51-11.51,5.91,12.4-.38,.18-5.3-11.12-1.32,10.11c0,.05-.7,4.32,1.94,6.96,1.97,1.97,3.24,3.57,3.05,7.76Z"/><path class="d" d="M609.81,445.77l-.41-.09,2.03-13.95,.04-.05,9.34-10.33-1.97,11.49c-.5,2.93-1.88,5.1-4.11,6.45-.26,.16-.51,.29-.76,.43-1.58,.86-2.93,1.6-4.16,6.04Zm2.01-13.85l-1.67,11.51c1.1-2.69,2.33-3.36,3.62-4.06,.25-.13,.49-.27,.75-.42h0c2.11-1.28,3.43-3.35,3.91-6.16l1.73-10.07-8.33,9.21Z"/></g><g><path class="d" d="M611.8,425.84c-.21-4.01-1.58-5.42-3.65-7.12-3.06-2.51-2.79-6.9-2.78-7.08l.35-11.6,7.11,11.75-.36,.22-6.38-10.54-.31,10.19c0,.05-.27,4.37,2.62,6.74,2.15,1.76,3.58,3.23,3.8,7.42l-.42,.02Z"/><path class="d" d="M612.22,425.87l-.42-.04,.63-14.08,.04-.05,8.27-11.2-.82,11.63c-.21,2.97-1.36,5.26-3.44,6.82h0c-.24,.18-.48,.34-.72,.5-1.48,1.01-2.76,1.89-3.54,6.42Zm.63-13.98l-.52,11.62c.83-2.79,1.99-3.58,3.2-4.41,.23-.16,.46-.32,.7-.49,1.98-1.48,3.08-3.68,3.28-6.52l.71-10.19-7.37,9.99Z"/></g><g><path class="d" d="M612.22,405.84c-.61-3.97-2.11-5.24-4.34-6.72-3.3-2.19-3.46-6.58-3.47-6.77l-.8-11.58,8.25,10.98-.33,.25-7.4-9.85,.7,10.17c0,.05,.17,4.37,3.28,6.44,2.32,1.54,3.89,2.86,4.52,7l-.41,.06Z"/><path class="d" d="M612.63,405.82h-.42l-.78-14.07,.03-.06,7.11-11.97,.35,11.65c.09,2.98-.84,5.37-2.75,7.13h0c-.22,.2-.44,.39-.66,.57-1.37,1.15-2.56,2.15-2.89,6.74Zm-.77-13.97l.64,11.61c.55-2.86,1.62-3.76,2.75-4.7,.21-.18,.43-.36,.65-.56h0c1.82-1.67,2.7-3.96,2.61-6.81l-.3-10.22-6.34,10.68Z"/></g><g><path class="d" d="M610.63,385.9c-1-3.89-2.62-5-4.99-6.25-3.5-1.85-4.1-6.21-4.13-6.39l-1.95-11.44,9.3,10.11-.31,.28-8.34-9.07,1.71,10.05c0,.05,.6,4.34,3.91,6.08,2.46,1.3,4.15,2.46,5.2,6.52l-.4,.1Z"/><path class="d" d="M610.63,385.88l-2.17-13.92,.03-.06,5.88-12.62,.09,.71s1.2,9.2,1.41,10.85c.38,2.95-.3,5.43-2.03,7.37h0c-.2,.22-.4,.43-.6,.64-1.25,1.29-2.33,2.4-2.2,7l-.42,.04Zm-1.74-13.86l1.79,11.49c.26-2.9,1.24-3.9,2.26-4.95,.19-.2,.39-.4,.59-.62h0c1.64-1.84,2.29-4.21,1.92-7.04-.18-1.37-1.03-7.94-1.32-10.13l-5.25,11.26Z"/></g><g><path class="d" d="M607.08,366.21c-1.38-3.77-3.11-4.72-5.58-5.72-3.67-1.49-4.7-5.77-4.74-5.95l-3.08-11.19,10.26,9.13-.28,.31-9.2-8.19,2.7,9.83c.01,.05,1.03,4.26,4.49,5.67,2.58,1.05,4.38,2.03,5.82,5.97l-.39,.14Z"/><path class="d" d="M607.07,366.19l-3.54-13.64,.02-.06,4.6-13.14,2.65,11.36c.68,2.9,.24,5.43-1.28,7.53h0c-.18,.24-.36,.47-.53,.69-1.12,1.4-2.08,2.62-1.49,7.18l-.41,.08Zm-3.11-13.62l2.93,11.26c-.03-2.91,.84-4,1.76-5.15,.17-.22,.35-.44,.52-.68h0c1.45-2,1.86-4.42,1.21-7.19l-2.32-9.95-4.1,11.72Z"/></g><g><path class="d" d="M601.58,346.98c-1.75-3.62-3.56-4.38-6.13-5.14-3.8-1.12-5.25-5.27-5.31-5.45l-4.18-10.83,11.12,8.07-.25,.34-9.97-7.24,3.67,9.51s1.45,4.13,5.03,5.19c2.67,.79,4.56,1.59,6.38,5.36l-.38,.18Z"/><path class="d" d="M601.57,346.96l-4.88-13.22v-.06l3.29-13.53,3.76,11.04c.96,2.82,.78,5.38-.53,7.63h0c-.15,.26-.31,.5-.46,.74-.97,1.51-1.81,2.81-.77,7.29l-.4,.12Zm-4.45-13.24l4.03,10.91c-.32-2.89,.44-4.07,1.24-5.3,.15-.23,.3-.47,.45-.73,1.25-2.13,1.41-4.58,.49-7.28l-3.3-9.67-2.92,12.07Z"/></g><g><path class="d" d="M594.2,328.39c-2.1-3.43-3.98-4.01-6.61-4.51-3.89-.74-5.75-4.72-5.83-4.89l-5.23-10.36,11.86,6.92-.21,.36-10.64-6.21,4.6,9.1s1.85,3.97,5.53,4.66c2.74,.52,4.69,1.13,6.88,4.7l-.36,.22Z"/><path class="d" d="M594.19,328.37l-6.17-12.67v-.06l1.92-13.79,4.84,10.61c1.23,2.71,1.31,5.28,.23,7.64h0c-.13,.27-.26,.53-.39,.78-.82,1.6-1.52,2.98-.04,7.33l-.39,.16Zm-5.74-12.74l5.1,10.45c-.6-2.84,.04-4.09,.7-5.4,.13-.25,.26-.5,.38-.77h0c1.03-2.25,.95-4.7-.23-7.29l-4.24-9.3-1.7,12.3Z"/></g><g><path class="d" d="M585,310.62c-2.43-3.2-4.36-3.59-7.02-3.83-3.94-.35-6.19-4.13-6.28-4.29l-6.24-9.78,12.49,5.71-.17,.38-11.21-5.12,5.48,8.6s2.24,3.76,5.96,4.09c2.77,.24,4.78,.65,7.32,3.99l-.33,.25Z"/><path class="d" d="M584.99,310.6l-7.41-11.99v-.06l.53-13.91,5.87,10.07c1.5,2.57,1.83,5.12,.99,7.58h0c-.1,.28-.2,.55-.31,.82-.66,1.67-1.22,3.11,.69,7.3l-.37,.2Zm-6.98-12.1l6.11,9.9c-.88-2.77-.37-4.08,.16-5.44,.1-.26,.2-.52,.3-.8h0c.8-2.34,.48-4.77-.96-7.23l-5.15-8.83-.47,12.41Z"/></g><g><path class="d" d="M574.08,293.86c-2.74-2.94-4.72-3.13-7.37-3.11-.03,0-.05,0-.08,0-3.92,0-6.49-3.49-6.6-3.64l-7.18-9.12,13,4.44-.13,.4-11.66-3.98,6.31,8.01s2.57,3.48,6.27,3.48h.07c2.78-.04,4.82,.17,7.68,3.24l-.31,.29Z"/><path class="d" d="M574.07,293.84l-8.56-11.19-.87-13.96,6.85,9.44c1.75,2.41,2.33,4.91,1.74,7.44h0c-.07,.29-.15,.57-.22,.85-.49,1.73-.9,3.22,1.41,7.2l-.35,.23Zm-8.15-11.35l7.06,9.24c-1.15-2.67-.78-4.02-.38-5.43,.08-.27,.15-.54,.22-.83,.56-2.41,0-4.8-1.67-7.1l-6-8.27,.77,12.4Z"/></g><g><path class="d" d="M561.55,278.27c-3.02-2.65-4.99-2.65-7.64-2.36-3.92,.45-6.88-2.82-7.01-2.96l-8.05-8.36,13.38,3.12-.1,.41-12-2.8,7.08,7.34s2.96,3.24,6.65,2.83c2.77-.31,4.82-.31,7.96,2.46l-.28,.31Z"/><path class="d" d="M561.53,278.25l-9.63-10.29-2.25-13.81,7.75,8.71c1.98,2.22,2.81,4.66,2.48,7.23h0c-.04,.3-.09,.58-.14,.86-.31,1.77-.58,3.29,2.12,7.02l-.32,.27Zm-9.24-10.48l7.95,8.49c-1.42-2.54-1.17-3.92-.92-5.37,.05-.28,.1-.55,.13-.84h0c.32-2.45-.48-4.77-2.37-6.9l-6.79-7.63,2,12.26Z"/></g><g><path class="d" d="M547.52,264c-3.27-2.34-5.22-2.15-7.84-1.59-3.88,.83-7.13-2.12-7.27-2.25l-8.84-7.51,13.62,1.77-.05,.42-12.22-1.59,7.77,6.6s3.25,2.93,6.9,2.15c2.72-.58,4.76-.78,8.17,1.66l-.24,.34Z"/><path class="d" d="M547.51,263.98l-10.61-9.28-.02-.06-3.6-13.45,8.58,7.89c2.19,2.02,3.26,4.35,3.18,6.95h0c0,.3-.03,.59-.05,.87-.13,1.79-.25,3.34,2.81,6.77l-.29,.3Zm-10.24-9.51l8.76,7.65c-1.66-2.38-1.56-3.78-1.45-5.25,.02-.28,.04-.56,.05-.86h0c.08-2.47-.95-4.7-3.05-6.63l-7.52-6.92,3.21,12Z"/></g><g><path class="d" d="M532.15,251.19c-3.48-2-5.41-1.62-7.96-.8-3.77,1.21-7.31-1.4-7.46-1.51l-9.55-6.6,13.73,.41v.42l-12.33-.37,8.39,5.8s3.53,2.6,7.08,1.46c2.65-.85,4.66-1.25,8.29,.84l-.21,.36Z"/><path class="d" d="M532.13,251.18l-11.48-8.17-.02-.06-4.92-13.03,9.32,7c2.38,1.79,3.68,4.01,3.86,6.6h0c.02,.3,.03,.59,.04,.88,.05,1.79,.08,3.34,3.47,6.46l-.26,.32Zm-11.13-8.44l9.47,6.75c-1.89-2.21-1.93-3.61-1.96-5.08,0-.28-.01-.56-.04-.86h0c-.17-2.46-1.41-4.58-3.69-6.29l-8.17-6.14,4.38,11.62Z"/></g><g><path class="d" d="M504.8,240.54c-2.56,0-4.67-1.25-4.79-1.33l-10.15-5.61,13.7-.96,.03,.42-12.29,.86,8.92,4.93s3.76,2.24,7.19,.74c2.55-1.11,4.51-1.71,8.33,0l-.17,.38c-3.66-1.65-5.55-1.07-8,0-.94,.41-1.89,.56-2.78,.56Z"/><path class="d" d="M515.56,239.98l-12.24-6.99-.03-.06-6.19-12.47,9.97,6.04c2.55,1.54,4.06,3.62,4.49,6.18h0c.05,.3,.09,.58,.12,.87,.22,1.78,.42,3.32,4.09,6.09l-.23,.35Zm-11.92-7.29l10.1,5.77c-2.1-2.01-2.27-3.4-2.46-4.86-.04-.28-.07-.56-.12-.85-.42-2.44-1.86-4.42-4.3-5.89l-8.74-5.29,5.52,11.13Z"/></g><g><path class="d" d="M486.49,232.15c-2.19,0-3.97-.83-4.08-.88l-10.67-4.58,13.54-2.32,.07,.41-12.14,2.08,9.37,4.02s3.96,1.85,7.23,.02c2.43-1.36,4.32-2.15,8.29-.82l-.13,.4c-3.81-1.27-5.62-.51-7.96,.79-1.17,.66-2.41,.88-3.53,.88Z"/><path class="d" d="M497.96,230.47l-12.87-5.74-.04-.05-7.4-11.79,10.52,5.02c2.69,1.28,4.4,3.2,5.09,5.7h0c.08,.29,.14,.57,.21,.85,.4,1.75,.74,3.26,4.68,5.65l-.19,.37Zm-12.58-6.07l10.62,4.74c-2.29-1.79-2.6-3.16-2.93-4.59-.06-.27-.12-.55-.2-.83-.66-2.38-2.29-4.21-4.86-5.44l-9.23-4.4,6.6,10.52Z"/></g><g><path class="d" d="M467.34,225.62c-1.76,0-3.14-.48-3.24-.52l-11.07-3.49,13.24-3.65,.11,.4-11.88,3.28,9.72,3.07s4.13,1.45,7.2-.69c2.28-1.59,4.08-2.57,8.17-1.64l-.09,.41c-3.92-.89-5.65,.05-7.84,1.58-1.41,.98-2.98,1.27-4.33,1.27Z"/><path class="d" d="M479.5,222.77l-13.38-4.43-.04-.05-8.53-11,10.97,3.95c2.8,1.01,4.69,2.75,5.63,5.17h0c.11,.28,.2,.56,.29,.83,.57,1.7,1.07,3.17,5.22,5.15l-.16,.39Zm-13.13-4.79l11.04,3.66c-2.46-1.55-2.9-2.88-3.37-4.28-.09-.27-.18-.53-.29-.81h0c-.89-2.31-2.7-3.96-5.38-4.93l-9.62-3.46,7.61,9.81Z"/></g><g><path class="d" d="M447.54,221.03c-1.26,0-2.18-.22-2.26-.24l-11.36-2.37,12.81-4.95,.15,.39-11.49,4.44,9.98,2.09c.05,.01,4.25,1.03,7.09-1.41,2.11-1.81,3.81-2.96,7.97-2.45l-.05,.42c-3.99-.49-5.62,.61-7.64,2.35-1.65,1.41-3.67,1.74-5.2,1.74Z"/><path class="d" d="M460.36,216.94l-13.75-3.08-.04-.05-9.59-10.1,11.31,2.83c2.89,.72,4.94,2.27,6.12,4.58h0c.13,.27,.25,.53,.37,.79,.74,1.64,1.37,3.05,5.7,4.61l-.12,.4Zm-13.54-3.46l11.35,2.54c-2.6-1.3-3.18-2.58-3.78-3.92-.12-.25-.23-.51-.36-.78h0c-1.11-2.21-3.08-3.67-5.84-4.37l-9.91-2.49,8.55,9.01Z"/></g><g><path class="d" d="M427.3,218.45c-.68,0-1.13-.06-1.19-.07l-11.54-1.23,12.25-6.2,.19,.37-10.99,5.56,10.14,1.08s4.34,.6,6.92-2.11c1.92-2.01,3.48-3.33,7.68-3.23v.42c-.15,0-.29,0-.42,0-3.71,0-5.18,1.24-6.96,3.1-1.89,1.98-4.56,2.3-6.09,2.3Z"/><path class="d" d="M440.74,213.04l-13.99-1.7-10.59-9.13,11.53,1.7c2.94,.43,5.15,1.76,6.54,3.95,.16,.25,.31,.5,.45,.75,.9,1.55,1.67,2.9,6.13,4.02l-.08,.41Zm-13.81-2.09l11.54,1.4c-2.71-1.04-3.42-2.25-4.15-3.52-.14-.24-.28-.49-.44-.74h0c-1.33-2.08-3.43-3.35-6.25-3.76l-10.11-1.49,9.41,8.11Z"/></g></g><g><path class="d" d="M653.6,506.41l-1.43-13.65c-.15-1.39-1.85-1.98-2.82-.97l-8.39,8.75-1.25,12.06c-.14,1.39,1.4,2.32,2.56,1.53l11.34-7.73Z"/><path class="d" d="M654.94,509.32l-12.83,8.74c-1.45,.99-2.4,2.57-2.58,4.32l-2.67,25.67,18.05-18.82c1.22-1.27,1.81-3.01,1.63-4.76l-1.59-15.14Z"/><path class="d" d="M658.22,507.96l1.4,13.34c.15,1.39,1.85,1.98,2.82,.97l8.2-8.56,1.23-11.78c.14-1.39-1.4-2.32-2.56-1.53l-11.09,7.56Z"/><path class="d" d="M656.94,504.98l12.59-8.58c1.45-.99,2.4-2.57,2.58-4.32l2.7-25.94-17.86,18.63c-1.22,1.27-1.81,3.01-1.63,4.76l1.62,15.45Z"/></g><g><path class="d" d="M170.03,506.41l1.43-13.65c.15-1.39,1.85-1.98,2.82-.97l8.39,8.75,1.25,12.06c.14,1.39-1.4,2.32-2.56,1.53l-11.34-7.73Z"/><path class="d" d="M168.7,509.32l12.83,8.74c1.45,.99,2.4,2.57,2.58,4.32l2.67,25.67-18.05-18.82c-1.22-1.27-1.81-3.01-1.63-4.76l1.59-15.14Z"/><path class="d" d="M165.41,507.96l-1.4,13.34c-.15,1.39-1.85,1.98-2.82,.97l-8.2-8.56-1.23-11.78c-.14-1.39,1.4-2.32,2.56-1.53l11.09,7.56Z"/><path class="d" d="M166.69,504.98l-12.59-8.58c-1.45-.99-2.4-2.57-2.58-4.32l-2.7-25.94,17.86,18.63c1.22,1.27,1.81,3.01,1.63,4.76l-1.62,15.45Z"/></g></g></g></g></svg>