<svg viewBox="0 0 478 224" fill="none" xmlns="http://www.w3.org/2000/svg">
<g clip-path="url(#clip0_112_1388)">
<path d="M344.49 0H10.4C4.65624 0 0 4.65624 0 10.4V212.92C0 218.664 4.65624 223.32 10.4 223.32H344.49C350.234 223.32 354.89 218.664 354.89 212.92V10.4C354.89 4.65624 350.234 0 344.49 0Z" fill="#191345"/>
<path d="M340.69 13.75H15.6801C13.9901 13.75 12.6201 15.12 12.6201 16.81V207.06C12.6201 208.75 13.9901 210.12 15.6801 210.12H340.69C342.38 210.12 343.75 208.75 343.75 207.06V16.81C343.75 15.12 342.38 13.75 340.69 13.75Z" fill="#DFDFEA"/>
<path d="M35.9797 35C37.9403 35 39.5297 33.433 39.5297 31.5C39.5297 29.567 37.9403 28 35.9797 28C34.0191 28 32.4297 29.567 32.4297 31.5C32.4297 33.433 34.0191 35 35.9797 35Z" fill="#6978AA"/>
<path d="M48.5596 35C50.4926 35 52.0596 33.433 52.0596 31.5C52.0596 29.567 50.4926 28 48.5596 28C46.6266 28 45.0596 29.567 45.0596 31.5C45.0596 33.433 46.6266 35 48.5596 35Z" fill="#6978AA"/>
<path d="M61.1504 35C63.0834 35 64.6504 33.433 64.6504 31.5C64.6504 29.567 63.0834 28 61.1504 28C59.2174 28 57.6504 29.567 57.6504 31.5C57.6504 33.433 59.2174 35 61.1504 35Z" fill="#6978AA"/>
<path d="M27.2002 55.27L27.2002 144.28C27.2002 147.726 29.9939 150.52 33.4402 150.52H186.15C189.596 150.52 192.39 147.726 192.39 144.28V55.27C192.39 51.8238 189.596 49.03 186.15 49.03L33.4402 49.03C29.9939 49.03 27.2002 51.8238 27.2002 55.27Z" fill="url(#paint0_linear_112_1388)"/>
<path d="M201.03 55.28V144.29C201.03 147.736 203.824 150.53 207.27 150.53H321.14C324.587 150.53 327.38 147.736 327.38 144.29V55.28C327.38 51.8338 324.587 49.04 321.14 49.04L207.27 49.04C203.824 49.04 201.03 51.8338 201.03 55.28Z" fill="url(#paint1_linear_112_1388)"/>
<path d="M317.48 159.29H265.28C259.812 159.29 255.38 163.722 255.38 169.19C255.38 174.658 259.812 179.09 265.28 179.09H317.48C322.948 179.09 327.38 174.658 327.38 169.19C327.38 163.722 322.948 159.29 317.48 159.29Z" fill="url(#paint2_linear_112_1388)"/>
<path d="M307.66 166.99H275.1C273.94 166.99 273 167.928 273 169.085C273 170.242 273.94 171.18 275.1 171.18H307.66C308.82 171.18 309.76 170.242 309.76 169.085C309.76 167.928 308.82 166.99 307.66 166.99Z" fill="white"/>
<path d="M242 159.38H30.1604C28.5201 159.38 27.1904 160.71 27.1904 162.35C27.1904 163.99 28.5201 165.32 30.1604 165.32H242C243.641 165.32 244.97 163.99 244.97 162.35C244.97 160.71 243.641 159.38 242 159.38Z" fill="url(#paint3_linear_112_1388)"/>
<path d="M242 172.95H30.1604C28.5201 172.95 27.1904 174.28 27.1904 175.92C27.1904 177.56 28.5201 178.89 30.1604 178.89H242C243.641 178.89 244.97 177.56 244.97 175.92C244.97 174.28 243.641 172.95 242 172.95Z" fill="url(#paint4_linear_112_1388)"/>
<path d="M242 186.52H30.1604C28.5201 186.52 27.1904 187.85 27.1904 189.49C27.1904 191.13 28.5201 192.46 30.1604 192.46H242C243.641 192.46 244.97 191.13 244.97 189.49C244.97 187.85 243.641 186.52 242 186.52Z" fill="url(#paint5_linear_112_1388)"/>
<path d="M459.56 36.49H387.05C382.14 36.49 378.16 40.4702 378.16 45.38V205.29C378.16 210.2 382.14 214.18 387.05 214.18H459.56C464.47 214.18 468.45 210.2 468.45 205.29V45.38C468.45 40.4702 464.47 36.49 459.56 36.49Z" fill="#DFDFEA"/>
<path d="M428.84 38.5498H417.77C417.406 38.5498 417.11 38.8431 417.11 39.2048C417.11 39.5666 417.406 39.8598 417.77 39.8598H428.84C429.205 39.8598 429.5 39.5666 429.5 39.2048C429.5 38.8431 429.205 38.5498 428.84 38.5498Z" fill="#8D7EAE"/>
<path d="M471.97 184.24H374.63V214.17H471.97V184.24Z" fill="url(#paint6_linear_112_1388)"/>
<path d="M399.2 191.87H390.6C389.33 191.87 388.3 192.9 388.3 194.17V202.77C388.3 204.04 389.33 205.07 390.6 205.07H399.2C400.47 205.07 401.5 204.04 401.5 202.77V194.17C401.5 192.9 400.47 191.87 399.2 191.87Z" fill="white"/>
<path d="M418.14 191.87H409.54C408.27 191.87 407.24 192.9 407.24 194.17V202.77C407.24 204.04 408.27 205.07 409.54 205.07H418.14C419.411 205.07 420.44 204.04 420.44 202.77V194.17C420.44 192.9 419.411 191.87 418.14 191.87Z" fill="white"/>
<path d="M437.07 191.87H428.47C427.2 191.87 426.17 192.9 426.17 194.17V202.77C426.17 204.04 427.2 205.07 428.47 205.07H437.07C438.34 205.07 439.37 204.04 439.37 202.77V194.17C439.37 192.9 438.34 191.87 437.07 191.87Z" fill="white"/>
<path d="M456.009 191.87H447.409C446.139 191.87 445.109 192.9 445.109 194.17V202.77C445.109 204.04 446.139 205.07 447.409 205.07H456.009C457.28 205.07 458.309 204.04 458.309 202.77V194.17C458.309 192.9 457.28 191.87 456.009 191.87Z" fill="white"/>
<path d="M405.671 97.4299H390.521C389.25 97.4299 388.221 98.4597 388.221 99.7299V114.88C388.221 116.15 389.25 117.18 390.521 117.18H405.671C406.941 117.18 407.971 116.15 407.971 114.88V99.7299C407.971 98.4597 406.941 97.4299 405.671 97.4299Z" fill="url(#paint7_linear_112_1388)"/>
<path d="M430.841 97.4299H415.691C414.42 97.4299 413.391 98.4597 413.391 99.7299V114.88C413.391 116.15 414.42 117.18 415.691 117.18H430.841C432.111 117.18 433.141 116.15 433.141 114.88V99.7299C433.141 98.4597 432.111 97.4299 430.841 97.4299Z" fill="url(#paint8_linear_112_1388)"/>
<path d="M456.011 97.4299H440.861C439.59 97.4299 438.561 98.4597 438.561 99.7299V114.88C438.561 116.15 439.59 117.18 440.861 117.18H456.011C457.281 117.18 458.311 116.15 458.311 114.88V99.7299C458.311 98.4597 457.281 97.4299 456.011 97.4299Z" fill="url(#paint9_linear_112_1388)"/>
<path d="M405.671 123.23H390.521C389.25 123.23 388.221 124.26 388.221 125.53V140.68C388.221 141.95 389.25 142.98 390.521 142.98H405.671C406.941 142.98 407.971 141.95 407.971 140.68V125.53C407.971 124.26 406.941 123.23 405.671 123.23Z" fill="url(#paint10_linear_112_1388)"/>
<path d="M430.841 123.23H415.691C414.42 123.23 413.391 124.26 413.391 125.53V140.68C413.391 141.95 414.42 142.98 415.691 142.98H430.841C432.111 142.98 433.141 141.95 433.141 140.68V125.53C433.141 124.26 432.111 123.23 430.841 123.23Z" fill="url(#paint11_linear_112_1388)"/>
<path d="M456.011 123.23H440.861C439.59 123.23 438.561 124.26 438.561 125.53V140.68C438.561 141.95 439.59 142.98 440.861 142.98H456.011C457.281 142.98 458.311 141.95 458.311 140.68V125.53C458.311 124.26 457.281 123.23 456.011 123.23Z" fill="url(#paint12_linear_112_1388)"/>
<path d="M462.62 27.9199H383.82C375.77 27.9199 369.24 34.4499 369.24 42.4999V208.74C369.24 216.79 375.77 223.32 383.82 223.32H462.62C470.67 223.32 477.2 216.79 477.2 208.74V42.4999C477.2 34.4499 470.67 27.9199 462.62 27.9199ZM468.44 205.29C468.44 210.2 464.46 214.18 459.55 214.18H387.04C382.13 214.18 378.15 210.2 378.15 205.29V45.3799C378.15 40.4699 382.13 36.4899 387.04 36.4899H398.97C399.63 36.4899 400.17 36.9699 400.17 37.5599V39.1799C400.17 40.5899 401.45 41.7299 403.03 41.7299H445.01C446.59 41.7299 447.87 40.5899 447.87 39.1799V37.5599C447.87 36.9699 448.41 36.4899 449.07 36.4899H459.55C464.46 36.4899 468.44 40.4699 468.44 45.3799V205.28V205.29Z" fill="#191345"/>
<path d="M456.611 51.1599H450.541C450.16 51.1599 449.851 51.4688 449.851 51.8499C449.851 52.231 450.16 52.5399 450.541 52.5399H456.611C456.992 52.5399 457.301 52.231 457.301 51.8499C457.301 51.4688 456.992 51.1599 456.611 51.1599Z" fill="url(#paint13_linear_112_1388)"/>
<path d="M456.611 53.3H450.541C450.16 53.3 449.851 53.609 449.851 53.9901C449.851 54.3711 450.16 54.68 450.541 54.68H456.611C456.992 54.68 457.301 54.3711 457.301 53.9901C457.301 53.609 456.992 53.3 456.611 53.3Z" fill="url(#paint14_linear_112_1388)"/>
<path d="M456.611 49.01H450.541C450.16 49.01 449.851 49.3189 449.851 49.7C449.851 50.0811 450.16 50.39 450.541 50.39H456.611C456.992 50.39 457.301 50.0811 457.301 49.7C457.301 49.3189 456.992 49.01 456.611 49.01Z" fill="url(#paint15_linear_112_1388)"/>
<path d="M455.91 62.46H390.7C389.374 62.46 388.3 63.5345 388.3 64.86V88.96C388.3 90.2854 389.374 91.36 390.7 91.36H455.91C457.235 91.36 458.31 90.2854 458.31 88.96V64.86C458.31 63.5345 457.235 62.46 455.91 62.46Z" fill="url(#paint16_linear_112_1388)"/>
<path d="M402.9 86.8799H391.95C391.647 86.8799 391.4 87.1261 391.4 87.4299V87.4399C391.4 87.7436 391.647 87.9899 391.95 87.9899H402.9C403.204 87.9899 403.45 87.7436 403.45 87.4399V87.4299C403.45 87.1261 403.204 86.8799 402.9 86.8799Z" fill="url(#paint17_linear_112_1388)"/>
<path d="M420.54 83.1599H392.51C391.897 83.1599 391.4 83.6569 391.4 84.2699C391.4 84.8829 391.897 85.3799 392.51 85.3799H420.54C421.153 85.3799 421.65 84.8829 421.65 84.2699C421.65 83.6569 421.153 83.1599 420.54 83.1599Z" fill="url(#paint18_linear_112_1388)"/>
<path d="M453.991 88.3799C454.388 88.3799 454.711 88.0576 454.711 87.6599C454.711 87.2623 454.388 86.9399 453.991 86.9399C453.593 86.9399 453.271 87.2623 453.271 87.6599C453.271 88.0576 453.593 88.3799 453.991 88.3799Z" fill="#DFDFEA"/>
<path d="M451.6 88.3799C451.998 88.3799 452.32 88.0576 452.32 87.6599C452.32 87.2623 451.998 86.9399 451.6 86.9399C451.202 86.9399 450.88 87.2623 450.88 87.6599C450.88 88.0576 451.202 88.3799 451.6 88.3799Z" fill="#DFDFEA"/>
<path d="M449.22 88.3799C449.618 88.3799 449.94 88.0576 449.94 87.6599C449.94 87.2623 449.618 86.9399 449.22 86.9399C448.822 86.9399 448.5 87.2623 448.5 87.6599C448.5 88.0576 448.822 88.3799 449.22 88.3799Z" fill="#DFDFEA"/>
</g>
<defs>
<linearGradient id="paint0_linear_112_1388" x1="44.9502" y1="34.94" x2="174.63" y2="164.62" gradientUnits="userSpaceOnUse">
<stop stop-color="#B492BF"/>
<stop offset="1" stop-color="#C4B6D9"/>
</linearGradient>
<linearGradient id="paint1_linear_112_1388" x1="209.07" y1="44.65" x2="319.34" y2="154.91" gradientUnits="userSpaceOnUse">
<stop stop-color="#B492BF"/>
<stop offset="1" stop-color="#C4B6D9"/>
</linearGradient>
<linearGradient id="paint2_linear_112_1388" x1="291.38" y1="179.09" x2="291.38" y2="159.29" gradientUnits="userSpaceOnUse">
<stop stop-color="#8D7EAE"/>
<stop offset="1" stop-color="#6978AA"/>
</linearGradient>
<linearGradient id="paint3_linear_112_1388" x1="136.08" y1="165.32" x2="136.08" y2="159.38" gradientUnits="userSpaceOnUse">
<stop stop-color="#E6E7E8"/>
<stop offset="1" stop-color="#F5F2F9"/>
</linearGradient>
<linearGradient id="paint4_linear_112_1388" x1="0.000431232" y1="178.89" x2="1.00043" y2="172.95" gradientUnits="userSpaceOnUse">
<stop stop-color="#E6E7E8"/>
<stop offset="1" stop-color="#F5F2F9"/>
</linearGradient>
<linearGradient id="paint5_linear_112_1388" x1="0.000431232" y1="192.46" x2="1.00043" y2="186.52" gradientUnits="userSpaceOnUse">
<stop stop-color="#E6E7E8"/>
<stop offset="1" stop-color="#F5F2F9"/>
</linearGradient>
<linearGradient id="paint6_linear_112_1388" x1="423.3" y1="214.18" x2="423.3" y2="184.24" gradientUnits="userSpaceOnUse">
<stop stop-color="#8D7EAE"/>
<stop offset="1" stop-color="#6978AA"/>
</linearGradient>
<linearGradient id="paint7_linear_112_1388" x1="388.901" y1="98.0999" x2="407.301" y2="116.5" gradientUnits="userSpaceOnUse">
<stop stop-color="#B492BF"/>
<stop offset="1" stop-color="#C4B6D9"/>
</linearGradient>
<linearGradient id="paint8_linear_112_1388" x1="414.061" y1="98.0999" x2="432.461" y2="116.5" gradientUnits="userSpaceOnUse">
<stop stop-color="#B492BF"/>
<stop offset="1" stop-color="#C4B6D9"/>
</linearGradient>
<linearGradient id="paint9_linear_112_1388" x1="439.231" y1="98.0999" x2="457.631" y2="116.5" gradientUnits="userSpaceOnUse">
<stop stop-color="#B492BF"/>
<stop offset="1" stop-color="#C4B6D9"/>
</linearGradient>
<linearGradient id="paint10_linear_112_1388" x1="388.901" y1="123.91" x2="407.301" y2="142.31" gradientUnits="userSpaceOnUse">
<stop stop-color="#B492BF"/>
<stop offset="1" stop-color="#C4B6D9"/>
</linearGradient>
<linearGradient id="paint11_linear_112_1388" x1="414.061" y1="123.91" x2="432.461" y2="142.31" gradientUnits="userSpaceOnUse">
<stop stop-color="#B492BF"/>
<stop offset="1" stop-color="#C4B6D9"/>
</linearGradient>
<linearGradient id="paint12_linear_112_1388" x1="439.231" y1="123.91" x2="457.631" y2="142.31" gradientUnits="userSpaceOnUse">
<stop stop-color="#B492BF"/>
<stop offset="1" stop-color="#C4B6D9"/>
</linearGradient>
<linearGradient id="paint13_linear_112_1388" x1="449.851" y1="51.8499" x2="457.301" y2="51.8499" gradientUnits="userSpaceOnUse">
<stop stop-color="#8D7EAE"/>
<stop offset="1" stop-color="#6978AA"/>
</linearGradient>
<linearGradient id="paint14_linear_112_1388" x1="449.851" y1="53.99" x2="457.301" y2="53.99" gradientUnits="userSpaceOnUse">
<stop stop-color="#8D7EAE"/>
<stop offset="1" stop-color="#6978AA"/>
</linearGradient>
<linearGradient id="paint15_linear_112_1388" x1="449.851" y1="49.7" x2="457.301" y2="49.7" gradientUnits="userSpaceOnUse">
<stop stop-color="#8D7EAE"/>
<stop offset="1" stop-color="#6978AA"/>
</linearGradient>
<linearGradient id="paint16_linear_112_1388" x1="388.3" y1="76.91" x2="458.31" y2="76.91" gradientUnits="userSpaceOnUse">
<stop stop-color="#B492BF"/>
<stop offset="1" stop-color="#C4B6D9"/>
</linearGradient>
<linearGradient id="paint17_linear_112_1388" x1="397.43" y1="86.8799" x2="397.43" y2="87.9899" gradientUnits="userSpaceOnUse">
<stop stop-color="#E6E7E8"/>
<stop offset="1" stop-color="#F5F2F9"/>
</linearGradient>
<linearGradient id="paint18_linear_112_1388" x1="406.52" y1="83.1599" x2="406.52" y2="85.3799" gradientUnits="userSpaceOnUse">
<stop stop-color="#E6E7E8"/>
<stop offset="1" stop-color="#F5F2F9"/>
</linearGradient>
<clipPath id="clip0_112_1388">
<rect width="477.21" height="223.32" fill="white"/>
</clipPath>
</defs>
</svg>
