<svg viewBox="0 0 478 224" fill="none" xmlns="http://www.w3.org/2000/svg">
<g clip-path="url(#clip0_112_1390)">
<path d="M344.49 0.320068H10.4C4.65624 0.320068 0 4.97631 0 10.7201V213.24C0 218.984 4.65624 223.64 10.4 223.64H344.49C350.234 223.64 354.89 218.984 354.89 213.24V10.7201C354.89 4.97631 350.234 0.320068 344.49 0.320068Z" fill="#191345"/>
<path d="M340.69 14.0701H15.6801C13.9901 14.0701 12.6201 15.4401 12.6201 17.1301V207.38C12.6201 209.07 13.9901 210.44 15.6801 210.44H340.69C342.38 210.44 343.75 209.07 343.75 207.38V17.1301C343.75 15.4401 342.38 14.0701 340.69 14.0701Z" fill="#393578"/>
<path d="M35.9797 35.3201C37.9403 35.3201 39.5297 33.7531 39.5297 31.8201C39.5297 29.8871 37.9403 28.3201 35.9797 28.3201C34.0191 28.3201 32.4297 29.8871 32.4297 31.8201C32.4297 33.7531 34.0191 35.3201 35.9797 35.3201Z" fill="url(#paint0_linear_112_1390)"/>
<path d="M48.5596 35.3201C50.4926 35.3201 52.0596 33.7531 52.0596 31.8201C52.0596 29.8871 50.4926 28.3201 48.5596 28.3201C46.6266 28.3201 45.0596 29.8871 45.0596 31.8201C45.0596 33.7531 46.6266 35.3201 48.5596 35.3201Z" fill="url(#paint1_linear_112_1390)"/>
<path d="M61.1504 35.3201C63.0834 35.3201 64.6504 33.7531 64.6504 31.8201C64.6504 29.8871 63.0834 28.3201 61.1504 28.3201C59.2174 28.3201 57.6504 29.8871 57.6504 31.8201C57.6504 33.7531 59.2174 35.3201 61.1504 35.3201Z" fill="url(#paint2_linear_112_1390)"/>
<path d="M27.2002 55.5901L27.2002 144.6C27.2002 148.046 29.9939 150.84 33.4402 150.84H186.15C189.596 150.84 192.39 148.046 192.39 144.6V55.5901C192.39 52.1438 189.596 49.3501 186.15 49.3501L33.4402 49.3501C29.9939 49.3501 27.2002 52.1438 27.2002 55.5901Z" fill="url(#paint3_linear_112_1390)"/>
<path d="M201.03 55.6001V144.61C201.03 148.056 203.824 150.85 207.27 150.85H321.14C324.587 150.85 327.38 148.056 327.38 144.61V55.6001C327.38 52.1539 324.587 49.3601 321.14 49.3601L207.27 49.3601C203.824 49.3601 201.03 52.1539 201.03 55.6001Z" fill="url(#paint4_linear_112_1390)"/>
<path d="M317.48 159.61H265.28C259.812 159.61 255.38 164.042 255.38 169.51C255.38 174.978 259.812 179.41 265.28 179.41H317.48C322.948 179.41 327.38 174.978 327.38 169.51C327.38 164.042 322.948 159.61 317.48 159.61Z" fill="url(#paint5_linear_112_1390)"/>
<path d="M307.66 167.31H275.1C273.94 167.31 273 168.248 273 169.405C273 170.562 273.94 171.5 275.1 171.5H307.66C308.82 171.5 309.76 170.562 309.76 169.405C309.76 168.248 308.82 167.31 307.66 167.31Z" fill="url(#paint6_linear_112_1390)"/>
<path d="M242 159.7H30.1604C28.5201 159.7 27.1904 161.03 27.1904 162.67C27.1904 164.31 28.5201 165.64 30.1604 165.64H242C243.641 165.64 244.97 164.31 244.97 162.67C244.97 161.03 243.641 159.7 242 159.7Z" fill="url(#paint7_linear_112_1390)"/>
<path d="M242 173.27H30.1604C28.5201 173.27 27.1904 174.6 27.1904 176.24C27.1904 177.88 28.5201 179.21 30.1604 179.21H242C243.641 179.21 244.97 177.88 244.97 176.24C244.97 174.6 243.641 173.27 242 173.27Z" fill="url(#paint8_linear_112_1390)"/>
<path d="M242 186.84H30.1604C28.5201 186.84 27.1904 188.17 27.1904 189.81C27.1904 191.45 28.5201 192.78 30.1604 192.78H242C243.641 192.78 244.97 191.45 244.97 189.81C244.97 188.17 243.641 186.84 242 186.84Z" fill="url(#paint9_linear_112_1390)"/>
<path d="M459.56 36.8101H387.05C382.14 36.8101 378.16 40.7902 378.16 45.7001V205.61C378.16 210.52 382.14 214.5 387.05 214.5H459.56C464.47 214.5 468.45 210.52 468.45 205.61V45.7001C468.45 40.7902 464.47 36.8101 459.56 36.8101Z" fill="#393578"/>
<path d="M428.84 38.8699H417.77C417.406 38.8699 417.11 39.1631 417.11 39.5249C417.11 39.8866 417.406 40.1799 417.77 40.1799H428.84C429.205 40.1799 429.5 39.8866 429.5 39.5249C429.5 39.1631 429.205 38.8699 428.84 38.8699Z" fill="#8D7EAE"/>
<path d="M471.97 184.56H374.63V214.49H471.97V184.56Z" fill="url(#paint10_linear_112_1390)"/>
<path d="M399.2 192.19H390.6C389.33 192.19 388.3 193.22 388.3 194.49V203.09C388.3 204.36 389.33 205.39 390.6 205.39H399.2C400.47 205.39 401.5 204.36 401.5 203.09V194.49C401.5 193.22 400.47 192.19 399.2 192.19Z" fill="url(#paint11_linear_112_1390)"/>
<path d="M418.14 192.19H409.54C408.27 192.19 407.24 193.22 407.24 194.49V203.09C407.24 204.36 408.27 205.39 409.54 205.39H418.14C419.411 205.39 420.44 204.36 420.44 203.09V194.49C420.44 193.22 419.411 192.19 418.14 192.19Z" fill="url(#paint12_linear_112_1390)"/>
<path d="M437.07 192.19H428.47C427.2 192.19 426.17 193.22 426.17 194.49V203.09C426.17 204.36 427.2 205.39 428.47 205.39H437.07C438.34 205.39 439.37 204.36 439.37 203.09V194.49C439.37 193.22 438.34 192.19 437.07 192.19Z" fill="url(#paint13_linear_112_1390)"/>
<path d="M456.009 192.19H447.409C446.139 192.19 445.109 193.22 445.109 194.49V203.09C445.109 204.36 446.139 205.39 447.409 205.39H456.009C457.28 205.39 458.309 204.36 458.309 203.09V194.49C458.309 193.22 457.28 192.19 456.009 192.19Z" fill="url(#paint14_linear_112_1390)"/>
<path d="M405.671 97.75H390.521C389.25 97.75 388.221 98.7797 388.221 100.05V115.2C388.221 116.47 389.25 117.5 390.521 117.5H405.671C406.941 117.5 407.971 116.47 407.971 115.2V100.05C407.971 98.7797 406.941 97.75 405.671 97.75Z" fill="url(#paint15_linear_112_1390)"/>
<path d="M430.841 97.75H415.691C414.42 97.75 413.391 98.7797 413.391 100.05V115.2C413.391 116.47 414.42 117.5 415.691 117.5H430.841C432.111 117.5 433.141 116.47 433.141 115.2V100.05C433.141 98.7797 432.111 97.75 430.841 97.75Z" fill="url(#paint16_linear_112_1390)"/>
<path d="M456.011 97.75H440.861C439.59 97.75 438.561 98.7797 438.561 100.05V115.2C438.561 116.47 439.59 117.5 440.861 117.5H456.011C457.281 117.5 458.311 116.47 458.311 115.2V100.05C458.311 98.7797 457.281 97.75 456.011 97.75Z" fill="url(#paint17_linear_112_1390)"/>
<path d="M405.671 123.55H390.521C389.25 123.55 388.221 124.58 388.221 125.85V141C388.221 142.27 389.25 143.3 390.521 143.3H405.671C406.941 143.3 407.971 142.27 407.971 141V125.85C407.971 124.58 406.941 123.55 405.671 123.55Z" fill="url(#paint18_linear_112_1390)"/>
<path d="M430.841 123.55H415.691C414.42 123.55 413.391 124.58 413.391 125.85V141C413.391 142.27 414.42 143.3 415.691 143.3H430.841C432.111 143.3 433.141 142.27 433.141 141V125.85C433.141 124.58 432.111 123.55 430.841 123.55Z" fill="url(#paint19_linear_112_1390)"/>
<path d="M456.011 123.55H440.861C439.59 123.55 438.561 124.58 438.561 125.85V141C438.561 142.27 439.59 143.3 440.861 143.3H456.011C457.281 143.3 458.311 142.27 458.311 141V125.85C458.311 124.58 457.281 123.55 456.011 123.55Z" fill="url(#paint20_linear_112_1390)"/>
<path d="M462.62 28.24H383.82C375.77 28.24 369.24 34.77 369.24 42.82V209.06C369.24 217.11 375.77 223.64 383.82 223.64H462.62C470.67 223.64 477.2 217.11 477.2 209.06V42.82C477.2 34.77 470.67 28.24 462.62 28.24ZM468.44 205.61C468.44 210.52 464.46 214.5 459.55 214.5H387.04C382.13 214.5 378.15 210.52 378.15 205.61V45.7C378.15 40.79 382.13 36.81 387.04 36.81H398.97C399.63 36.81 400.17 37.29 400.17 37.88V39.5C400.17 40.91 401.45 42.05 403.03 42.05H445.01C446.59 42.05 447.87 40.91 447.87 39.5V37.88C447.87 37.29 448.41 36.81 449.07 36.81H459.55C464.46 36.81 468.44 40.79 468.44 45.7V205.6V205.61Z" fill="#191345"/>
<path d="M456.611 51.48H450.541C450.16 51.48 449.851 51.7889 449.851 52.17C449.851 52.5511 450.16 52.86 450.541 52.86H456.611C456.992 52.86 457.301 52.5511 457.301 52.17C457.301 51.7889 456.992 51.48 456.611 51.48Z" fill="url(#paint21_linear_112_1390)"/>
<path d="M456.611 53.6201H450.541C450.16 53.6201 449.851 53.929 449.851 54.3101C449.851 54.6912 450.16 55.0001 450.541 55.0001H456.611C456.992 55.0001 457.301 54.6912 457.301 54.3101C457.301 53.929 456.992 53.6201 456.611 53.6201Z" fill="url(#paint22_linear_112_1390)"/>
<path d="M456.611 49.3301H450.541C450.16 49.3301 449.851 49.639 449.851 50.0201C449.851 50.4012 450.16 50.7101 450.541 50.7101H456.611C456.992 50.7101 457.301 50.4012 457.301 50.0201C457.301 49.639 456.992 49.3301 456.611 49.3301Z" fill="url(#paint23_linear_112_1390)"/>
<path d="M455.91 62.78H390.7C389.374 62.78 388.3 63.8545 388.3 65.18V89.28C388.3 90.6055 389.374 91.68 390.7 91.68H455.91C457.235 91.68 458.31 90.6055 458.31 89.28V65.18C458.31 63.8545 457.235 62.78 455.91 62.78Z" fill="url(#paint24_linear_112_1390)"/>
<path d="M402.9 87.2H391.95C391.647 87.2 391.4 87.4462 391.4 87.75V87.76C391.4 88.0637 391.647 88.31 391.95 88.31H402.9C403.204 88.31 403.45 88.0637 403.45 87.76V87.75C403.45 87.4462 403.204 87.2 402.9 87.2Z" fill="url(#paint25_linear_112_1390)"/>
<path d="M420.54 83.48H392.51C391.897 83.48 391.4 83.9769 391.4 84.59C391.4 85.203 391.897 85.7 392.51 85.7H420.54C421.153 85.7 421.65 85.203 421.65 84.59C421.65 83.9769 421.153 83.48 420.54 83.48Z" fill="url(#paint26_linear_112_1390)"/>
<path d="M453.991 88.7C454.388 88.7 454.711 88.3777 454.711 87.98C454.711 87.5824 454.388 87.26 453.991 87.26C453.593 87.26 453.271 87.5824 453.271 87.98C453.271 88.3777 453.593 88.7 453.991 88.7Z" fill="url(#paint27_linear_112_1390)"/>
<path d="M451.6 88.7C451.998 88.7 452.32 88.3777 452.32 87.98C452.32 87.5824 451.998 87.26 451.6 87.26C451.202 87.26 450.88 87.5824 450.88 87.98C450.88 88.3777 451.202 88.7 451.6 88.7Z" fill="url(#paint28_linear_112_1390)"/>
<path d="M449.22 88.7C449.618 88.7 449.94 88.3777 449.94 87.98C449.94 87.5824 449.618 87.26 449.22 87.26C448.822 87.26 448.5 87.5824 448.5 87.98C448.5 88.3777 448.822 88.7 449.22 88.7Z" fill="url(#paint29_linear_112_1390)"/>
</g>
<defs>
<linearGradient id="paint0_linear_112_1390" x1="31.5432" y1="35.3201" x2="32.6951" y2="35.1308" gradientUnits="userSpaceOnUse">
<stop stop-color="white"/>
<stop offset="1" stop-color="#F5F2F9"/>
</linearGradient>
<linearGradient id="paint1_linear_112_1390" x1="44.1856" y1="35.3201" x2="45.322" y2="35.136" gradientUnits="userSpaceOnUse">
<stop stop-color="white"/>
<stop offset="1" stop-color="#F5F2F9"/>
</linearGradient>
<linearGradient id="paint2_linear_112_1390" x1="56.7764" y1="35.3201" x2="57.9129" y2="35.136" gradientUnits="userSpaceOnUse">
<stop stop-color="white"/>
<stop offset="1" stop-color="#F5F2F9"/>
</linearGradient>
<linearGradient id="paint3_linear_112_1390" x1="44.9502" y1="35.2601" x2="174.63" y2="164.94" gradientUnits="userSpaceOnUse">
<stop offset="0.01" stop-color="#191345"/>
<stop offset="0.31" stop-color="#1F1A4F"/>
<stop offset="0.83" stop-color="#312D6C"/>
<stop offset="1" stop-color="#393578"/>
</linearGradient>
<linearGradient id="paint4_linear_112_1390" x1="214.607" y1="35.2701" x2="339.764" y2="131" gradientUnits="userSpaceOnUse">
<stop offset="0.01" stop-color="#191345"/>
<stop offset="0.31" stop-color="#1F1A4F"/>
<stop offset="0.83" stop-color="#312D6C"/>
<stop offset="1" stop-color="#393578"/>
</linearGradient>
<linearGradient id="paint5_linear_112_1390" x1="291.38" y1="179.41" x2="291.38" y2="159.61" gradientUnits="userSpaceOnUse">
<stop offset="0.01" stop-color="#191345"/>
<stop offset="0.31" stop-color="#1F1A4F"/>
<stop offset="0.83" stop-color="#312D6C"/>
<stop offset="1" stop-color="#393578"/>
</linearGradient>
<linearGradient id="paint6_linear_112_1390" x1="268.41" y1="171.5" x2="270.438" y2="168.618" gradientUnits="userSpaceOnUse">
<stop stop-color="white"/>
<stop offset="1" stop-color="#F5F2F9"/>
</linearGradient>
<linearGradient id="paint7_linear_112_1390" x1="136.08" y1="165.64" x2="136.08" y2="159.7" gradientUnits="userSpaceOnUse">
<stop stop-color="#E6E7E8"/>
<stop offset="1" stop-color="#F5F2F9"/>
</linearGradient>
<linearGradient id="paint8_linear_112_1390" x1="0.000431232" y1="179.21" x2="1.00043" y2="173.27" gradientUnits="userSpaceOnUse">
<stop stop-color="white"/>
<stop offset="1" stop-color="#F5F2F9"/>
</linearGradient>
<linearGradient id="paint9_linear_112_1390" x1="0.000431232" y1="192.78" x2="1.00043" y2="186.84" gradientUnits="userSpaceOnUse">
<stop stop-color="white"/>
<stop offset="1" stop-color="#F5F2F9"/>
</linearGradient>
<linearGradient id="paint10_linear_112_1390" x1="423.3" y1="214.49" x2="423.3" y2="184.56" gradientUnits="userSpaceOnUse">
<stop stop-color="#262262"/>
<stop offset="1" stop-color="#191345"/>
</linearGradient>
<linearGradient id="paint11_linear_112_1390" x1="388.3" y1="198.79" x2="401.5" y2="198.79" gradientUnits="userSpaceOnUse">
<stop offset="0.01" stop-color="#D1D3D4"/>
<stop offset="0.44" stop-color="#DBDDDE"/>
<stop offset="1" stop-color="#F1F2F2"/>
</linearGradient>
<linearGradient id="paint12_linear_112_1390" x1="407.24" y1="198.79" x2="420.44" y2="198.79" gradientUnits="userSpaceOnUse">
<stop offset="0.01" stop-color="#D1D3D4"/>
<stop offset="0.44" stop-color="#DBDDDE"/>
<stop offset="1" stop-color="#F1F2F2"/>
</linearGradient>
<linearGradient id="paint13_linear_112_1390" x1="426.17" y1="198.79" x2="439.37" y2="198.79" gradientUnits="userSpaceOnUse">
<stop offset="0.01" stop-color="#D1D3D4"/>
<stop offset="0.44" stop-color="#DBDDDE"/>
<stop offset="1" stop-color="#F1F2F2"/>
</linearGradient>
<linearGradient id="paint14_linear_112_1390" x1="445.109" y1="198.79" x2="458.309" y2="198.79" gradientUnits="userSpaceOnUse">
<stop offset="0.01" stop-color="#D1D3D4"/>
<stop offset="0.44" stop-color="#DBDDDE"/>
<stop offset="1" stop-color="#F1F2F2"/>
</linearGradient>
<linearGradient id="paint15_linear_112_1390" x1="388.891" y1="98.42" x2="407.291" y2="116.82" gradientUnits="userSpaceOnUse">
<stop offset="0.01" stop-color="#191345"/>
<stop offset="0.31" stop-color="#1F1A4F"/>
<stop offset="0.83" stop-color="#312D6C"/>
<stop offset="1" stop-color="#393578"/>
</linearGradient>
<linearGradient id="paint16_linear_112_1390" x1="414.061" y1="98.42" x2="432.461" y2="116.82" gradientUnits="userSpaceOnUse">
<stop offset="0.01" stop-color="#191345"/>
<stop offset="0.31" stop-color="#1F1A4F"/>
<stop offset="0.83" stop-color="#312D6C"/>
<stop offset="1" stop-color="#393578"/>
</linearGradient>
<linearGradient id="paint17_linear_112_1390" x1="439.231" y1="98.42" x2="457.631" y2="116.82" gradientUnits="userSpaceOnUse">
<stop offset="0.01" stop-color="#191345"/>
<stop offset="0.31" stop-color="#1F1A4F"/>
<stop offset="0.83" stop-color="#312D6C"/>
<stop offset="1" stop-color="#393578"/>
</linearGradient>
<linearGradient id="paint18_linear_112_1390" x1="388.891" y1="124.22" x2="407.291" y2="142.62" gradientUnits="userSpaceOnUse">
<stop offset="0.01" stop-color="#191345"/>
<stop offset="0.31" stop-color="#1F1A4F"/>
<stop offset="0.83" stop-color="#312D6C"/>
<stop offset="1" stop-color="#393578"/>
</linearGradient>
<linearGradient id="paint19_linear_112_1390" x1="414.061" y1="124.22" x2="432.461" y2="142.62" gradientUnits="userSpaceOnUse">
<stop offset="0.01" stop-color="#191345"/>
<stop offset="0.31" stop-color="#1F1A4F"/>
<stop offset="0.83" stop-color="#312D6C"/>
<stop offset="1" stop-color="#393578"/>
</linearGradient>
<linearGradient id="paint20_linear_112_1390" x1="439.231" y1="124.22" x2="457.631" y2="142.62" gradientUnits="userSpaceOnUse">
<stop offset="0.01" stop-color="#191345"/>
<stop offset="0.31" stop-color="#1F1A4F"/>
<stop offset="0.83" stop-color="#312D6C"/>
<stop offset="1" stop-color="#393578"/>
</linearGradient>
<linearGradient id="paint21_linear_112_1390" x1="449.851" y1="52.17" x2="457.301" y2="52.17" gradientUnits="userSpaceOnUse">
<stop offset="0.01" stop-color="#D1D3D4"/>
<stop offset="0.44" stop-color="#DBDDDE"/>
<stop offset="1" stop-color="#F1F2F2"/>
</linearGradient>
<linearGradient id="paint22_linear_112_1390" x1="449.851" y1="54.3101" x2="457.301" y2="54.3101" gradientUnits="userSpaceOnUse">
<stop offset="0.01" stop-color="#D1D3D4"/>
<stop offset="0.44" stop-color="#DBDDDE"/>
<stop offset="1" stop-color="#F1F2F2"/>
</linearGradient>
<linearGradient id="paint23_linear_112_1390" x1="449.851" y1="50.0201" x2="457.301" y2="50.0201" gradientUnits="userSpaceOnUse">
<stop offset="0.01" stop-color="#D1D3D4"/>
<stop offset="0.44" stop-color="#DBDDDE"/>
<stop offset="1" stop-color="#F1F2F2"/>
</linearGradient>
<linearGradient id="paint24_linear_112_1390" x1="468.029" y1="65.8854" x2="457.217" y2="108.518" gradientUnits="userSpaceOnUse">
<stop offset="0.01" stop-color="#191345"/>
<stop offset="0.31" stop-color="#1F1A4F"/>
<stop offset="0.83" stop-color="#312D6C"/>
<stop offset="1" stop-color="#393578"/>
</linearGradient>
<linearGradient id="paint25_linear_112_1390" x1="397.43" y1="87.2" x2="397.43" y2="88.31" gradientUnits="userSpaceOnUse">
<stop stop-color="#E6E7E8"/>
<stop offset="1" stop-color="#F5F2F9"/>
</linearGradient>
<linearGradient id="paint26_linear_112_1390" x1="406.52" y1="83.48" x2="406.52" y2="85.7" gradientUnits="userSpaceOnUse">
<stop stop-color="#E6E7E8"/>
<stop offset="1" stop-color="#F5F2F9"/>
</linearGradient>
<linearGradient id="paint27_linear_112_1390" x1="453.271" y1="87.98" x2="454.711" y2="87.98" gradientUnits="userSpaceOnUse">
<stop offset="0.01" stop-color="#D1D3D4"/>
<stop offset="0.44" stop-color="#DBDDDE"/>
<stop offset="1" stop-color="#F1F2F2"/>
</linearGradient>
<linearGradient id="paint28_linear_112_1390" x1="450.88" y1="87.98" x2="452.32" y2="87.98" gradientUnits="userSpaceOnUse">
<stop offset="0.01" stop-color="#D1D3D4"/>
<stop offset="0.44" stop-color="#DBDDDE"/>
<stop offset="1" stop-color="#F1F2F2"/>
</linearGradient>
<linearGradient id="paint29_linear_112_1390" x1="448.5" y1="87.98" x2="449.94" y2="87.98" gradientUnits="userSpaceOnUse">
<stop offset="0.01" stop-color="#D1D3D4"/>
<stop offset="0.44" stop-color="#DBDDDE"/>
<stop offset="1" stop-color="#F1F2F2"/>
</linearGradient>
<clipPath id="clip0_112_1390">
<rect width="477.21" height="223.32" fill="white" transform="translate(0 0.320068)"/>
</clipPath>
</defs>
</svg>
